<?xml version="1.0" encoding="utf-8"?>
<!-- Generator: Adobe Illustrator 22.0.0, SVG Export Plug-In . SVG Version: 6.00 Build 0)  -->
<svg version="1.1" xmlns="http://www.w3.org/2000/svg" xmlns:xlink="http://www.w3.org/1999/xlink" x="0px" y="0px"
	 viewBox="0 0 657 577.1" style="enable-background:new 0 0 657 577.1;" xml:space="preserve">
<style type="text/css">
	.st0{fill:#43A3FF;}
	.st1{fill:#FFFFFF;}
	.st2{font-family:'MontserratAlternates-ExtraBold';}
	.st3{font-size:118.7764px;}
	.st4{font-family:'MontserratAlternates-Light';}
	.st5{font-family:'Montserrat-Light';}
	.st6{fill:none;stroke:#FFFFFF;stroke-width:25.95;stroke-miterlimit:10;}
	.st7{fill:none;}
	.st8{fill:#00C3FF;}
</style>
<g id="Layer_2">
	<rect class="st0" width="657" height="577"/>
</g>
<g id="Layer_1">
	<text transform="matrix(1 0 0 1 117 539.2544)" class="st1 st2 st3">Create</text>
	<text transform="matrix(1 0 0 1 524.9111 539.2544)" class="st1 st4 st3">It</text>
	<text transform="matrix(1 0 0 1 32 539.2358)" class="st1 st5 st3">J</text>
	<rect x="306.3" y="83" transform="matrix(0.5 0.866 -0.866 0.5 247.279 -237.0709)" class="st1" width="45.2" height="25.2"/>
	<path class="st0" d="M440.9,105.7l-36.8,20.8c-6.8,3.9-15.2,3.8-21.9-0.2l-36.4-21.5c-6.7-4-10.9-11.2-10.8-19.1l0.4-42.3
		c0.1-7.8,4.3-15,11.1-18.9l36.8-20.8c6.8-3.9,15.2-3.8,21.9,0.2l36.4,21.5c6.7,4,10.9,11.2,10.8,19.1L452,86.9
		C451.9,94.7,447.7,101.9,440.9,105.7z"/>
	<polygon class="st1" points="328.8,70.1 325.8,71.5 323.1,69.6 323.4,66.3 326.4,64.9 329.1,66.8 	"/>
	
		<rect x="446.4" y="185.3" transform="matrix(0.9996 2.659099e-02 -2.659099e-02 0.9996 5.6298 -12.335)" class="st1" width="40.5" height="40.5"/>
	<path class="st6" d="M311.8,396.3l-124.5-72c-10.8-6.3-17.5-17.8-17.5-30.4l0.2-143.8c0-12.5,6.7-24.1,17.5-30.3L312.1,48
		c10.8-6.2,24.2-6.2,35,0l124.5,72c10.8,6.3,17.5,17.8,17.5,30.4L489,294.2c0,12.5-6.7,24.1-17.5,30.3l-124.6,71.8
		C335.9,402.6,322.6,402.6,311.8,396.3z"/>
	<line class="st7" x1="329.8" y1="222.5" x2="330.9" y2="12.7"/>
	
		<rect x="234.9" y="99.8" transform="matrix(-8.899034e-03 1 -1 -8.899034e-03 436.91 -181.22)" class="st1" width="146.8" height="52.3"/>
	
		<rect x="279.1" y="198.2" transform="matrix(0.4991 0.8666 -0.8666 0.4991 328.0828 -147.7597)" class="st8" width="25.6" height="23.5"/>
	
		<rect x="287.3" y="133.2" transform="matrix(0.8655 0.5009 -0.5009 0.8655 125.1059 -176.8273)" class="st1" width="209" height="22.6"/>
	
		<rect x="256.6" y="81.1" transform="matrix(-8.899034e-03 1 -1 -8.899034e-03 375.4182 -184.6875)" class="st1" width="45.2" height="25.2"/>
	
		<rect x="161.5" y="220.6" transform="matrix(-0.8666 0.4991 -0.4991 -0.8666 564.1903 342.747)" class="st1" width="149.5" height="52.3"/>
	
		<rect x="168.1" y="224.7" transform="matrix(-5.851884e-03 1 -1 -5.851884e-03 422.1065 55.0346)" class="st1" width="31.2" height="25.2"/>
	
		<rect x="334" y="165.4" transform="matrix(0.8655 0.5009 -0.5009 0.8655 142.6604 -177.4829)" class="st0" width="135.7" height="23"/>
	<path class="st0" d="M465,309.6l-58.6,34.5c-7.4,4.3-16.5,4.4-23.9,0.1l-58.9-34.1c-7.3-4.2-11.8-12-11.8-20.4l-0.3-69.1
		c0-8.4,4.4-16.2,11.6-20.5l58.6-34.5c7.4-4.3,16.5-4.4,23.9-0.1l58.9,34.1c7.3,4.2,11.8,12,11.8,20.4l0.3,69.1
		C476.7,297.5,472.3,305.3,465,309.6z"/>
	<path class="st1" d="M236.3,262.9l-60-34.7c-7.7-4.4-12.4-12.7-12.4-21.5l0.1-69.3c0-8.9,4.8-17.1,12.4-21.5l60-34.6
		c7.7-4.4,17.2-4.4,24.8,0l60,34.7c7.7,4.4,12.4,12.7,12.4,21.5l-0.1,69.3c0,8.9-4.8,17.1-12.4,21.5l-60,34.6
		C253.5,267.3,244,267.3,236.3,262.9z"/>
	<rect x="35" y="454" class="st0" width="21" height="21"/>
</g>
</svg>
