<?xml version="1.0" encoding="utf-8"?>
<!-- Generator: Adobe Illustrator 22.0.0, SVG Export Plug-In . SVG Version: 6.00 Build 0)  -->
<svg version="1.1" xmlns="http://www.w3.org/2000/svg" xmlns:xlink="http://www.w3.org/1999/xlink" x="0px" y="0px"
	 viewBox="0 0 359 404.1" style="enable-background:new 0 0 359 404.1;" xml:space="preserve">
<style type="text/css">
	.st0{fill:#00C3FF;}
	.st1{enable-background:new    ;}
	.st2{fill:#FFFFFF;}
	.st3{fill:none;stroke:#FFFFFF;stroke-width:25.95;stroke-miterlimit:10;}
	.st4{fill:none;}
</style>
<g id="Layer_2">
	<rect x="-2" class="st0" width="363" height="402"/>
</g>
<g id="Layer_1">
	<g id="Layer_1_1_">
		<rect x="166.3" y="52" transform="matrix(0.866 -0.5 0.5 0.866 -13.3045 99.4608)" class="st2" width="25.2" height="45.2"/>
		<path class="st0" d="M290.9,84.7l-36.8,20.8c-6.8,3.9-15.2,3.8-21.9-0.2l-36.4-21.5c-6.7-4-10.9-11.2-10.8-19.1l0.4-42.3
			c0.1-7.8,4.3-15,11.1-18.9l36.8-20.8c6.8-3.9,15.2-3.8,21.9,0.2l36.4,21.5c6.7,4,10.9,11.2,10.8,19.1L302,65.9
			C301.9,73.7,297.7,80.9,290.9,84.7z"/>
		<polygon class="st2" points="178.8,49.1 175.8,50.5 173.1,48.6 173.4,45.3 176.4,43.9 179.1,45.8 		"/>
		
			<rect x="296.4" y="164.3" transform="matrix(2.659222e-02 -0.9996 0.9996 2.659222e-02 123.7313 496.149)" class="st2" width="40.5" height="40.5"/>
		<path class="st3" d="M161.8,375.3l-124.5-72c-10.8-6.3-17.5-17.8-17.5-30.4L20,129.1c0-12.5,6.7-24.1,17.5-30.3L162.1,27
			c10.8-6.2,24.2-6.2,35,0l124.5,72c10.8,6.3,17.5,17.8,17.5,30.4L339,273.2c0,12.5-6.7,24.1-17.5,30.3l-124.6,71.8
			C185.9,381.6,172.6,381.6,161.8,375.3z"/>
		<line class="st4" x1="179.8" y1="201.5" x2="180.9" y2="-8.3"/>
		
			<rect x="84.8" y="78.8" transform="matrix(8.898682e-03 -1 1 8.898682e-03 51.8531 262.2354)" class="st2" width="146.8" height="52.3"/>
		
			<rect x="130.1" y="176.2" transform="matrix(0.8666 -0.4991 0.4991 0.8666 -75.3933 96.0014)" class="st0" width="23.5" height="25.6"/>
		
			<rect x="230.5" y="19" transform="matrix(0.5009 -0.8655 0.8655 0.5009 13.8152 270.9373)" class="st2" width="22.6" height="209"/>
		
			<rect x="106.6" y="60.1" transform="matrix(8.898682e-03 -1 1 8.898682e-03 55.4073 201.2605)" class="st2" width="45.2" height="25.2"/>
		
			<rect x="11.5" y="199.7" transform="matrix(0.8666 -0.4991 0.4991 0.8666 -101.1878 73.2062)" class="st2" width="149.5" height="52.3"/>
		
			<rect x="18.1" y="203.7" transform="matrix(5.851784e-03 -1 1 5.851784e-03 -182.8083 248.8108)" class="st2" width="31.2" height="25.2"/>
		
			<rect x="240.4" y="88.1" transform="matrix(0.5009 -0.8655 0.8655 0.5009 -9.2422 295.7939)" class="st0" width="23" height="135.7"/>
		<path class="st0" d="M315,288.6l-58.6,34.5c-7.4,4.3-16.5,4.4-23.9,0.1l-58.9-34.1c-7.3-4.2-11.8-12-11.8-20.4l-0.3-69.1
			c0-8.4,4.4-16.2,11.6-20.5l58.6-34.5c7.4-4.3,16.5-4.4,23.9-0.1l58.9,34.1c7.3,4.2,11.8,12,11.8,20.4l0.3,69.1
			C326.7,276.5,322.3,284.3,315,288.6z"/>
		<path class="st2" d="M86.3,241.9l-60-34.7c-7.7-4.4-12.4-12.7-12.4-21.5l0.1-69.3c0-8.9,4.8-17.1,12.4-21.5l60-34.6
			c7.7-4.4,17.2-4.4,24.8,0l60,34.7c7.7,4.4,12.4,12.7,12.4,21.5l-0.1,69.3c0,8.9-4.8,17.1-12.4,21.5l-60,34.6
			C103.5,246.3,94,246.3,86.3,241.9z"/>
	</g>
</g>
</svg>
