<?xml version="1.0" encoding="utf-8"?>
<!-- Generator: Adobe Illustrator 22.0.0, SVG Export Plug-In . SVG Version: 6.00 Build 0)  -->
<svg version="1.1" xmlns="http://www.w3.org/2000/svg" xmlns:xlink="http://www.w3.org/1999/xlink" x="0px" y="0px"
	 viewBox="0 0 821.3 202.5" style="enable-background:new 0 0 821.3 202.5;" xml:space="preserve">
<style type="text/css">
	.st0{fill:#FFFFFF;}
	.st1{font-family:'MontserratAlternates-ExtraBold';}
	.st2{font-size:118.7764px;}
	.st3{font-family:'MontserratAlternates-Light';}
	.st4{font-family:'Montserrat-Light';}
	.st5{fill:#1F4160;}
	.st6{fill:#00C3FF;}
	.st7{fill:none;stroke:#00C3FF;stroke-width:13.6237;stroke-miterlimit:10;}
	.st8{fill:none;}
</style>
<g id="Layer_3">
</g>
<g id="Layer_2">
</g>
<g id="Layer_1">
	<text transform="matrix(1 0 0 1 315.2058 147.9774)" class="st0 st1 st2">Create</text>
	<text transform="matrix(1 0 0 1 723.117 147.9774)" class="st0 st3 st2">It</text>
	<text transform="matrix(1 0 0 1 230.2058 147.9589)" class="st0 st4 st2">J</text>
	<rect x="233.2" y="62.7" class="st5" width="21" height="21"/>
	<rect x="81.4" y="28.8" transform="matrix(0.5 0.866 -0.866 0.5 77.2711 -63.0462)" class="st6" width="23.8" height="13.2"/>
	<path class="st5" d="M152,40.7l-19.3,10.9c-3.6,2-8,2-11.5-0.1L102,40.3c-3.5-2.1-5.7-5.9-5.7-10l0.2-22.2c0-4.1,2.3-7.9,5.8-9.9
		l19.3-10.9c3.6-2,8-2,11.5,0.1l19.1,11.3c3.5,2.1,5.7,5.9,5.7,10l-0.2,22.2C157.8,34.9,155.6,38.7,152,40.7z"/>
	<polygon class="st0" points="93.2,22 91.6,22.7 90.2,21.7 90.3,20 91.9,19.3 93.3,20.3 	"/>
	
		<rect x="154.9" y="82.5" transform="matrix(0.9996 2.659099e-02 -2.659099e-02 0.9996 2.5339 -4.3681)" class="st6" width="21.3" height="21.3"/>
	<path class="st7" d="M84.2,193.2l-65.3-37.8c-5.7-3.3-9.2-9.4-9.2-15.9L9.8,64c0-6.6,3.5-12.6,9.2-15.9l65.4-37.7
		c5.7-3.3,12.7-3.3,18.4,0l65.3,37.8c5.7,3.3,9.2,9.4,9.2,15.9l-0.1,75.5c0,6.6-3.5,12.6-9.2,15.9l-65.4,37.7
		C96.9,196.5,89.9,196.5,84.2,193.2z"/>
	<line class="st8" x1="93.7" y1="102" x2="94.2" y2="-8.1"/>
	
		<rect x="43.8" y="37.6" transform="matrix(-8.899034e-03 1 -1 -8.899034e-03 134.4062 -30.6143)" class="st6" width="77.1" height="27.5"/>
	
		<rect x="67" y="89.2" transform="matrix(0.4991 0.8666 -0.8666 0.4991 119.6121 -16.1293)" class="st6" width="13.4" height="12.3"/>
	
		<rect x="71.4" y="55.1" transform="matrix(0.8655 0.5009 -0.5009 0.8655 47.5777 -55.0207)" class="st6" width="109.7" height="11.9"/>
	
		<rect x="55.3" y="27.8" transform="matrix(-8.899034e-03 1 -1 -8.899034e-03 102.123 -32.4347)" class="st6" width="23.8" height="13.2"/>
	
		<rect x="5.3" y="101" transform="matrix(-0.8666 0.4991 -0.4991 -0.8666 140.4903 191.9719)" class="st6" width="78.5" height="27.5"/>
	
		<rect x="8.8" y="103.2" transform="matrix(-5.851884e-03 1 -1 -5.851884e-03 126.8761 93.4663)" class="st6" width="16.4" height="13.2"/>
	<path class="st5" d="M164.7,148.3l-30.8,18.1c-3.9,2.3-8.6,2.3-12.5,0.1l-30.9-17.9c-3.8-2.2-6.2-6.3-6.2-10.7l-0.1-36.3
		c0-4.4,2.3-8.5,6.1-10.7L121,72.7c3.9-2.3,8.6-2.3,12.5-0.1l30.9,17.9c3.8,2.2,6.2,6.3,6.2,10.7l0.1,36.3
		C170.8,141.9,168.5,146,164.7,148.3z"/>
	
		<rect x="95.9" y="73.1" transform="matrix(0.8655 0.5009 -0.5009 0.8655 57.3198 -55.2236)" class="st5" width="71.3" height="12.1"/>
	<path class="st6" d="M44.6,123.2L13.1,105c-4-2.3-6.5-6.6-6.5-11.3l0-36.4c0-4.7,2.5-9,6.5-11.3l31.5-18.2c4-2.3,9-2.3,13,0
		l31.5,18.2c4,2.3,6.5,6.6,6.5,11.3l0,36.4c0,4.7-2.5,9-6.5,11.3l-31.5,18.2C53.6,125.5,48.6,125.5,44.6,123.2z"/>
</g>
</svg>
