<?xml version="1.0" encoding="utf-8"?>
<!-- Generator: Adobe Illustrator 22.0.0, SVG Export Plug-In . SVG Version: 6.00 Build 0)  -->
<svg version="1.1" id="Layer_1" xmlns="http://www.w3.org/2000/svg" xmlns:xlink="http://www.w3.org/1999/xlink" x="0px" y="0px"
	 viewBox="0 0 818.4 201.8" style="enable-background:new 0 0 818.4 201.8;" xml:space="preserve">
<style type="text/css">
	.st0{fill:#383747;}
	.st1{font-family:'MontserratAlternates-ExtraBold';}
	.st2{font-size:118.7764px;}
	.st3{font-family:'MontserratAlternates-Light';}
	.st4{font-family:'Montserrat-Light';}
	.st5{fill:#FFFFFF;}
	.st6{fill:#00C3FF;}
	.st7{fill:none;stroke:#00C3FF;stroke-width:13.6237;stroke-miterlimit:10;}
	.st8{fill:none;}
	.st9{fill:#FFFFFF;stroke:#FFFFFF;stroke-width:0.525;stroke-miterlimit:10;}
</style>
<text transform="matrix(1 0 0 1 312.3119 147.2421)" class="st0 st1 st2">Create</text>
<text transform="matrix(1 0 0 1 720.223 147.2421)" class="st0 st3 st2">It</text>
<text transform="matrix(1 0 0 1 227.3119 147.2236)" class="st0 st4 st2">J</text>
<rect x="230.3" y="62" class="st5" width="21" height="21"/>
<rect x="83.8" y="22.8" transform="matrix(0.866 -0.5 0.5 0.866 -5.2608 49.8315)" class="st6" width="13.2" height="23.8"/>
<path class="st5" d="M149.1,40l-19.3,10.9c-3.6,2-8,2-11.5-0.1L99.2,39.5c-3.5-2.1-5.7-5.9-5.7-10l0.2-22.2c0-4.1,2.3-7.9,5.8-9.9
	l19.3-10.9c3.6-2,8-2,11.5,0.1l19.1,11.3c3.5,2.1,5.7,5.9,5.7,10l-0.2,22.2C154.9,34.2,152.7,38,149.1,40z"/>
<polygon class="st5" points="90.3,21.3 88.7,22 87.3,21 87.4,19.3 89,18.6 90.4,19.6 "/>
<rect x="152" y="81.7" transform="matrix(2.659222e-02 -0.9996 0.9996 2.659222e-02 66.0272 252.4743)" class="st6" width="21.3" height="21.3"/>
<path class="st7" d="M81.3,192.5L16,154.7c-5.7-3.3-9.2-9.4-9.2-15.9l0.1-75.5c0-6.6,3.5-12.6,9.2-15.9L81.5,9.7
	c5.7-3.3,12.7-3.3,18.4,0l65.3,37.8c5.7,3.3,9.2,9.4,9.2,15.9l-0.1,75.5c0,6.6-3.5,12.6-9.2,15.9l-65.4,37.7
	C94,195.8,87,195.8,81.3,192.5z"/>
<line class="st8" x1="90.8" y1="101.3" x2="91.3" y2="-8.8"/>
<rect x="41" y="36.8" transform="matrix(8.898682e-03 -1 1 8.898682e-03 28.249 129.6033)" class="st6" width="77.1" height="27.5"/>
<rect x="64.7" y="87.9" transform="matrix(0.8666 -0.4991 0.4991 0.8666 -37.7632 47.9866)" class="st6" width="12.3" height="13.4"/>
<rect x="117.4" y="5.5" transform="matrix(0.5009 -0.8655 0.8655 0.5009 9.3444 136.8923)" class="st6" width="11.9" height="109.7"/>
<rect x="52.3" y="27.1" transform="matrix(8.898682e-03 -1 1 8.898682e-03 29.9067 97.6349)" class="st6" width="23.8" height="13.2"/>
<rect x="2.4" y="100.3" transform="matrix(0.8666 -0.4991 0.4991 0.8666 -51.336 36.0252)" class="st6" width="78.5" height="27.5"/>
<rect x="5.9" y="102.5" transform="matrix(5.851784e-03 -1 1 5.851784e-03 -95.1157 122.5151)" class="st6" width="16.4" height="13.2"/>
<path class="st9" d="M161.8,147.5L131,165.6c-3.9,2.3-8.6,2.3-12.5,0.1l-30.9-17.9c-3.8-2.2-6.2-6.3-6.2-10.7l-0.1-36.3
	c0-4.4,2.3-8.5,6.1-10.7L118.1,72c3.9-2.3,8.6-2.3,12.5-0.1l30.9,17.9c3.8,2.2,6.2,6.3,6.2,10.7l0.1,36.3
	C167.9,141.2,165.6,145.3,161.8,147.5z"/>
<rect x="122.6" y="42.8" transform="matrix(0.5009 -0.8655 0.8655 0.5009 -3.7095 150.4898)" class="st5" width="12.1" height="71.3"/>
<path class="st6" d="M41.7,122.5l-31.5-18.2c-4-2.3-6.5-6.6-6.5-11.3V56.6c0-4.7,2.5-9,6.5-11.3l31.5-18.2c4-2.3,9-2.3,13,0
	l31.6,18.3c4,2.3,6.5,6.6,6.5,11.3v36.4c0,4.7-2.5,9-6.5,11.3l-31.5,18.2C50.7,124.8,45.7,124.8,41.7,122.5z"/>
</svg>
