<?xml version="1.0" encoding="utf-8"?>
<!-- Generator: Adobe Illustrator 22.0.0, SVG Export Plug-In . SVG Version: 6.00 Build 0)  -->
<svg version="1.1" id="Layer_1" xmlns="http://www.w3.org/2000/svg" xmlns:xlink="http://www.w3.org/1999/xlink" x="0px" y="0px"
	 viewBox="0 0 672 580" style="enable-background:new 0 0 672 580;" xml:space="preserve">
<style type="text/css">
	.st0{fill:#383747;}
	.st1{font-family:'MontserratAlternates-ExtraBold';}
	.st2{font-size:118.7764px;}
	.st3{font-family:'MontserratAlternates-Light';}
	.st4{font-family:'Montserrat-Light';}
	.st5{fill:#00C3FF;}
	.st6{fill:#FFFFFF;}
	.st7{fill:none;stroke:#00C3FF;stroke-width:25.95;stroke-miterlimit:10;}
	.st8{fill:none;}
	.st9{fill:#FFFFFF;stroke:#FFFFFF;stroke-miterlimit:10;}
</style>
<text transform="matrix(1 0 0 1 123 544.2544)" class="st0 st1 st2">Create</text>
<text transform="matrix(1 0 0 1 530.9111 544.2544)" class="st0 st3 st2">It</text>
<text transform="matrix(1 0 0 1 38 544.2358)" class="st0 st4 st2">J</text>
<rect x="322.3" y="78" transform="matrix(0.866 -0.5 0.5 0.866 -5.4037 180.9461)" class="st5" width="25.2" height="45.2"/>
<path class="st6" d="M446.9,110.7l-36.8,20.8c-6.8,3.9-15.2,3.8-21.9-0.2l-36.4-21.5c-6.7-4-10.9-11.2-10.8-19.1l0.4-42.3
	c0.1-7.8,4.3-15,11.1-18.9l36.8-20.8c6.8-3.9,15.2-3.8,21.9,0.2l36.4,21.5c6.7,4,10.9,11.2,10.8,19.1L458,91.9
	C457.9,99.7,453.7,106.9,446.9,110.7z"/>
<polygon class="st6" points="334.8,75.1 331.8,76.5 329.1,74.6 329.4,71.3 332.4,69.9 335.1,71.8 "/>
<rect x="452.4" y="190.3" transform="matrix(2.659222e-02 -0.9996 0.9996 2.659222e-02 249.5921 677.4024)" class="st5" width="40.5" height="40.5"/>
<path class="st7" d="M317.8,401.3l-124.5-72c-10.8-6.3-17.5-17.8-17.5-30.4l0.2-143.8c0-12.5,6.7-24.1,17.5-30.3L318.1,53
	c10.8-6.2,24.2-6.2,35,0l124.5,72c10.8,6.3,17.5,17.8,17.5,30.4L495,299.2c0,12.5-6.7,24.1-17.5,30.3l-124.6,71.8
	C341.9,407.6,328.6,407.6,317.8,401.3z"/>
<line class="st8" x1="335.8" y1="227.5" x2="336.9" y2="17.7"/>
<rect x="240.8" y="104.8" transform="matrix(8.898682e-03 -1 1 8.898682e-03 180.4659 443.9978)" class="st5" width="146.8" height="52.3"/>
<rect x="286.1" y="202.2" transform="matrix(0.8666 -0.4991 0.4991 0.8666 -67.5523 177.3267)" class="st5" width="23.5" height="25.6"/>
<rect x="386.5" y="45" transform="matrix(0.5009 -0.8655 0.8655 0.5009 69.1713 418.9325)" class="st5" width="22.6" height="209"/>
<rect x="262.6" y="86.1" transform="matrix(8.898682e-03 -1 1 8.898682e-03 184.0201 383.023)" class="st5" width="45.2" height="25.2"/>
<rect x="167.5" y="225.7" transform="matrix(0.8666 -0.4991 0.4991 0.8666 -93.3469 154.5316)" class="st5" width="149.5" height="52.3"/>
<rect x="174.1" y="229.7" transform="matrix(5.851784e-03 -1 1 5.851784e-03 -53.7207 430.656)" class="st5" width="31.2" height="25.2"/>
<path class="st9" d="M471,315.6l-58.6,34.5c-7.4,4.3-16.5,4.4-23.9,0.1l-58.9-34.1c-7.3-4.2-11.8-12-11.8-20.4l-0.3-69.1
	c0-8.4,4.4-16.2,11.6-20.5l58.6-34.5c7.4-4.3,16.5-4.4,23.9-0.1l58.9,34.1c7.3,4.2,11.8,12,11.8,20.4l0.3,69.1
	C482.7,303.5,478.3,311.3,471,315.6z"/>
<rect x="396.4" y="116.1" transform="matrix(0.5009 -0.8655 0.8655 0.5009 44.3828 444.7873)" class="st6" width="23" height="135.7"/>
<path class="st5" d="M242.3,267.9l-60-34.7c-7.7-4.4-12.4-12.7-12.4-21.5l0.1-69.3c0-8.9,4.8-17.1,12.4-21.5l60-34.6
	c7.7-4.4,17.2-4.4,24.8,0l60,34.7c7.7,4.4,12.4,12.7,12.4,21.5l-0.1,69.3c0,8.9-4.8,17.1-12.4,21.5l-60,34.6
	C259.5,272.3,250,272.3,242.3,267.9z"/>
<rect x="41" y="459" class="st6" width="21" height="21"/>
</svg>
