<?xml version="1.0" encoding="utf-8"?>
<!-- Generator: Adobe Illustrator 22.0.0, SVG Export Plug-In . SVG Version: 6.00 Build 0)  -->
<svg version="1.1" id="Layer_1" xmlns="http://www.w3.org/2000/svg" xmlns:xlink="http://www.w3.org/1999/xlink" x="0px" y="0px"
	 viewBox="0 0 868 243" style="enable-background:new 0 0 868 243;" xml:space="preserve">
<style type="text/css">
	.st0{fill:#383747;}
	.st1{font-family:'MontserratAlternates-ExtraBold';}
	.st2{font-size:118.7764px;}
	.st3{font-family:'MontserratAlternates-Light';}
	.st4{font-family:'Montserrat-Light';}
	.st5{fill:#FFFFFF;}
	.st6{fill:#00C3FF;}
	.st7{fill:none;stroke:#00C3FF;stroke-width:13.6237;stroke-miterlimit:10;}
	.st8{fill:none;}
	.st9{fill:#FFFFFF;stroke:#FFFFFF;stroke-width:0.525;stroke-miterlimit:10;}
</style>
<text transform="matrix(1 0 0 1 339 168.2544)" class="st0 st1 st2">Create</text>
<text transform="matrix(1 0 0 1 746.9111 168.2544)" class="st0 st3 st2">It</text>
<text transform="matrix(1 0 0 1 254 168.2358)" class="st0 st4 st2">J</text>
<rect x="257" y="83" class="st5" width="21" height="21"/>
<rect x="105.2" y="49.1" transform="matrix(0.5 0.866 -0.866 0.5 106.7285 -73.5141)" class="st6" width="23.8" height="13.2"/>
<path class="st5" d="M175.8,61l-19.3,10.9c-3.6,2-8,2-11.5-0.1l-19.1-11.3c-3.5-2.1-5.7-5.9-5.7-10l0.2-22.2c0-4.1,2.3-7.9,5.8-9.9
	l19.3-10.9c3.6-2,8-2,11.5,0.1l19.1,11.3c3.5,2.1,5.7,5.9,5.7,10l-0.2,22.2C181.6,55.2,179.4,59,175.8,61z"/>
<polygon class="st5" points="117,42.3 115.4,43 114,42 114.1,40.3 115.7,39.6 117.1,40.6 "/>
<rect x="178.7" y="102.7" transform="matrix(0.9996 2.659099e-02 -2.659099e-02 0.9996 3.0815 -4.9937)" class="st6" width="21.3" height="21.3"/>
<path class="st7" d="M108,213.5l-65.3-37.8c-5.7-3.3-9.2-9.4-9.2-15.9l0.1-75.5c0-6.6,3.5-12.6,9.2-15.9l65.4-37.7
	c5.7-3.3,12.7-3.3,18.4,0l65.3,37.8c5.7,3.3,9.2,9.4,9.2,15.9l-0.1,75.5c0,6.6-3.5,12.6-9.2,15.9l-65.4,37.7
	C120.7,216.8,113.7,216.8,108,213.5z"/>
<line class="st8" x1="117.5" y1="122.3" x2="118" y2="12.2"/>
<rect x="67.6" y="57.8" transform="matrix(-8.899034e-03 1 -1 -8.899034e-03 178.6882 -33.9501)" class="st6" width="77.1" height="27.5"/>
<rect x="90.8" y="109.5" transform="matrix(0.4991 0.8666 -0.8666 0.4991 149.1022 -26.5911)" class="st6" width="13.4" height="12.3"/>
<rect x="95.2" y="75.4" transform="matrix(0.8655 0.5009 -0.5009 0.8655 60.9353 -64.2123)" class="st6" width="109.7" height="11.9"/>
<rect x="79.1" y="48.1" transform="matrix(-8.899034e-03 1 -1 -8.899034e-03 146.4051 -35.7705)" class="st6" width="23.8" height="13.2"/>
<rect x="29.1" y="121.3" transform="matrix(-0.8666 0.4991 -0.4991 -0.8666 195.0233 217.9448)" class="st6" width="78.5" height="27.5"/>
<rect x="32.6" y="123.5" transform="matrix(-5.851884e-03 1 -1 -5.851884e-03 171.0861 90.0681)" class="st6" width="16.4" height="13.2"/>
<path class="st9" d="M188.5,168.5l-30.8,18.1c-3.9,2.3-8.6,2.3-12.5,0.1l-30.9-17.9c-3.8-2.2-6.2-6.3-6.2-10.7l-0.1-36.3
	c0-4.4,2.3-8.5,6.1-10.7L144.8,93c3.9-2.3,8.6-2.3,12.5-0.1l30.9,17.9c3.8,2.2,6.2,6.3,6.2,10.7l0.1,36.3
	C194.6,162.2,192.3,166.3,188.5,168.5z"/>
<rect x="119.7" y="93.4" transform="matrix(0.8655 0.5009 -0.5009 0.8655 70.6774 -64.4152)" class="st5" width="71.3" height="12.1"/>
<path class="st6" d="M68.4,143.5l-31.5-18.2c-4-2.3-6.5-6.6-6.5-11.3l0-36.4c0-4.7,2.5-9,6.5-11.3l31.5-18.2c4-2.3,9-2.3,13,0
	L113,66.4c4,2.3,6.5,6.6,6.5,11.3l0,36.4c0,4.7-2.5,9-6.5,11.3l-31.5,18.2C77.4,145.8,72.4,145.8,68.4,143.5z"/>
</svg>
