<?xml version="1.0" encoding="utf-8"?>
<!-- Generator: Adobe Illustrator 21.1.0, SVG Export Plug-In . SVG Version: 6.00 Build 0)  -->
<svg version="1.1" id="Layer_1" xmlns="http://www.w3.org/2000/svg" xmlns:xlink="http://www.w3.org/1999/xlink" x="0px" y="0px"
	 viewBox="0 0 825.6 835.8" style="enable-background:new 0 0 825.6 835.8;" xml:space="preserve">
<style type="text/css">
	.st0{fill:#003747;stroke:#FFFFFF;stroke-width:40;stroke-miterlimit:10;}
	.st1{fill:#FFFFFF;}
</style>
<path class="st0" d="M522.6,28.7L795.8,288c8.2,7.8,11.6,19.3,9,30.3l-88,366.3c-2.6,11-10.9,19.7-21.7,22.9l-361.2,107
	c-10.8,3.2-22.5,0.4-30.7-7.4L29.9,547.7c-8.2-7.8-11.6-19.3-9-30.3l88-366.3c2.6-11,10.9-19.7,21.7-22.9l361.2-107
	C502.7,18.1,514.4,20.9,522.6,28.7z"/>
<g>
	<rect x="262.8" y="218.8" transform="matrix(0.866 -0.5 0.5 0.866 -70.3853 221.6961)" class="st1" width="231.3" height="46.7"/>
</g>
<g>
	<rect x="325.3" y="281.8" transform="matrix(0.866 -0.5 0.5 0.866 -98.4818 242.8109)" class="st1" width="157" height="46.7"/>
</g>
<g>
	<rect x="358.7" y="345" transform="matrix(0.866 -0.5 0.5 0.866 -126.1519 265.9457)" class="st1" width="148.9" height="46.7"/>
</g>
<g>
	<rect x="387.5" y="407.7" transform="matrix(0.866 -0.5 0.5 0.866 -153.5008 289.2825)" class="st1" width="151" height="46.7"/>
</g>
<g>
	<rect x="295.8" y="508.8" transform="matrix(0.866 -0.5 0.5 0.866 -209.2072 283.5762)" class="st1" width="257.4" height="46.7"/>
</g>
<g>
	<rect x="367" y="570.4" transform="matrix(0.866 -0.5 0.5 0.866 -235.7326 307.7787)" class="st1" width="178.8" height="46.7"/>
</g>
<g>
	<rect x="260.9" y="504.1" transform="matrix(0.866 -0.5 0.5 0.866 -224.0534 218.8132)" class="st1" width="70.8" height="46.7"/>
</g>
</svg>
