<?xml version="1.0" encoding="utf-8"?>
<!-- Generator: Adobe Illustrator 22.0.1, SVG Export Plug-In . SVG Version: 6.00 Build 0)  -->
<svg version="1.1" id="Linkedin" xmlns="http://www.w3.org/2000/svg" xmlns:xlink="http://www.w3.org/1999/xlink" x="0px" y="0px"
	 viewBox="0 0 71.7 71.6" style="enable-background:new 0 0 71.7 71.6;" xml:space="preserve">
<style type="text/css">
	.st0{fill:#FFFFFF;}
</style>
<g>
	<g id="linkedin-linkedin">
		<path class="st0" d="M1.2,23.8H16v47.8H1.2V23.8z M8.6,0c4.8,0,8.6,3.9,8.6,8.6c0,4.8-3.9,8.6-8.6,8.6C3.8,17.2,0,13.4,0,8.6
			C0,3.9,3.8,0,8.6,0"/>
		<path class="st0" d="M25.4,23.8h14.2v6.5h0.2c2-3.8,6.8-7.7,14.1-7.7c15,0,17.8,9.9,17.8,22.8v26.2H56.8V48.3
			c0-5.5-0.1-12.7-7.7-12.7c-7.7,0-8.9,6-8.9,12.3v23.6H25.4V23.8z"/>
	</g>
</g>
</svg>
