<?xml version="1.0" encoding="utf-8"?>
<!-- Generator: Adobe Illustrator 21.1.0, SVG Export Plug-In . SVG Version: 6.00 Build 0)  -->
<svg version="1.1" id="Layer_1" xmlns="http://www.w3.org/2000/svg" xmlns:xlink="http://www.w3.org/1999/xlink" x="0px" y="0px"
	 viewBox="0 0 830.1 867.6" style="enable-background:new 0 0 830.1 867.6;" xml:space="preserve">
<style type="text/css">
	.st0{fill:#0EC4AE;}
	.st1{fill:#BDD1B0;}
	.st2{fill:#176AAF;}
</style>
<g>
	<rect x="106.4" y="386.6" transform="matrix(0.866 -0.5 0.5 0.866 -168.9582 214.643)" class="st0" width="419.2" height="72"/>
</g>
<g>
	<rect x="12.9" y="557.4" transform="matrix(0.866 -0.5 0.5 0.866 -267.4534 188.6294)" class="st0" width="410.7" height="72"/>
</g>
<g>
	<rect x="16.2" y="634.6" transform="matrix(0.866 -0.5 0.5 0.866 -299.2755 224.204)" class="st0" width="505" height="72"/>
</g>
<g>
	<rect x="168.6" y="744" transform="matrix(0.866 -0.5 0.5 0.866 -353.2683 241.4961)" class="st0" width="210.8" height="72"/>
</g>
<g>
	<rect x="13.1" y="345.9" transform="matrix(0.866 -0.5 0.5 0.866 -164.7796 148.7696)" class="st0" width="364.2" height="72"/>
</g>
<g>
	<rect x="-28.4" y="168.5" transform="matrix(0.866 -0.5 0.5 0.866 -59.6258 186.5268)" class="st0" width="693.4" height="72"/>
</g>
<g>
	<rect x="15.3" y="111.3" transform="matrix(0.866 -0.5 0.5 0.866 -42.779 135.0169)" class="st0" width="430.6" height="72"/>
</g>
<g>
	<rect x="492.1" y="440.7" transform="matrix(0.866 -0.5 0.5 0.866 -157.8358 364.3958)" class="st1" width="217.9" height="72"/>
</g>
<g>
	<rect x="352.3" y="569.9" transform="matrix(0.866 -0.5 0.5 0.866 -225.8942 368.819)" class="st0" width="445.9" height="72"/>
</g>
<g>
	<rect x="333.4" y="675.3" transform="matrix(0.866 -0.5 0.5 0.866 -278.3458 383.7641)" class="st0" width="487.1" height="72"/>
</g>
<g>
	<rect x="530.3" y="738.4" transform="matrix(0.866 -0.5 0.5 0.866 -299.5341 430.9325)" class="st0" width="248" height="72"/>
</g>
<g>
	<rect x="382.3" y="338" transform="matrix(0.866 -0.5 0.5 0.866 -108.2651 343.9145)" class="st0" width="410.7" height="72"/>
</g>
<g>
	<rect x="496.7" y="186.6" transform="matrix(0.866 -0.5 0.5 0.866 -22.0916 362.6914)" class="st0" width="338.1" height="72"/>
</g>
<g>
	<rect x="362.3" y="180.3" transform="matrix(0.866 -0.5 0.5 0.866 -37.0021 279.4243)" class="st2" width="281.2" height="57"/>
	<path class="st2" d="M607.7,124l21,36.4L398.1,293.5l-21-36.4L607.7,124 M613.2,103.5L356.7,251.6l36,62.4l256.5-148.1L613.2,103.5
		L613.2,103.5z"/>
</g>
<g>
	<rect x="713.2" y="352.3" transform="matrix(0.866 -0.5 0.5 0.866 -92.6423 430.8173)" class="st0" width="88.7" height="72"/>
</g>
<g>
	<rect x="31.2" y="527.3" transform="matrix(0.866 -0.5 0.5 0.866 -271.5129 113.2628)" class="st0" width="88.7" height="72"/>
</g>
<g>
	<rect x="527.2" y="252.8" transform="matrix(0.866 -0.5 0.5 0.866 -65.0664 319.732)" class="st2" width="73.7" height="57"/>
	<path class="st2" d="M579,248.4l21,36.4l-50.8,29.3l-21-36.4L579,248.4 M584.5,227.9l-76.8,44.3l36,62.4l76.8-44.3L584.5,227.9
		L584.5,227.9z"/>
</g>
<g>
	<rect x="463.4" y="302.6" transform="matrix(0.866 -0.5 0.5 0.866 -100.4399 282.6343)" class="st2" width="27.5" height="52.4"/>
	<path class="st2" d="M473.3,309.4l18.7,32.4l-10.9,6.3l-18.7-32.4L473.3,309.4 M478.8,288.9l-36.8,21.3l33.7,58.3l36.8-21.3
		L478.8,288.9L478.8,288.9z"/>
</g>
<g>
	<rect x="474.7" y="374.9" transform="matrix(0.866 -0.5 0.5 0.866 -128.099 324.0115)" class="st2" width="131.8" height="52.4"/>
	<path class="st2" d="M581.8,355.7l18.7,32.4l-101.2,58.4l-18.7-32.4L581.8,355.7 M587.3,335.2l-127.1,73.4l33.7,58.3L621,393.5
		L587.3,335.2L587.3,335.2z"/>
</g>
<g>
	<rect x="510.5" y="467.2" transform="matrix(0.866 -0.5 0.5 0.866 -169.4197 352.7794)" class="st2" width="126.1" height="50.7"/>
	<path class="st2" d="M612.5,450.5l17,29.4l-94.8,54.7l-17-29.4L612.5,450.5 M618.6,427.7l-123.7,71.4l33.7,58.3L652.3,486
		L618.6,427.7L618.6,427.7z"/>
</g>
<g>
	<rect x="404" y="607.4" transform="matrix(0.866 -0.5 0.5 0.866 -245.3195 349.4416)" class="st2" width="250.7" height="50.2"/>
	<path class="st2" d="M622.3,559.8l16.5,28.6L436.5,705.2L420,676.6L622.3,559.8 M628.6,536.3l-232,134l33.7,58.3l232-134
		L628.6,536.3L628.6,536.3z"/>
</g>
<g>
	<rect x="291" y="593.5" transform="matrix(0.866 -0.5 0.5 0.866 -262.1524 259.9841)" class="st2" width="126.1" height="51.4"/>
	<path class="st2" d="M392.9,576.4l17.7,30.6l-95.3,55l-17.7-30.6L392.9,576.4 M398.8,554.5l-123.1,71.1l33.7,58.3l123.1-71.1
		L398.8,554.5L398.8,554.5z"/>
</g>
<g>
	<rect x="234.5" y="522.8" transform="matrix(0.866 -0.5 0.5 0.866 -233.5086 222.515)" class="st2" width="127.9" height="48.4"/>
	<path class="st2" d="M338.3,507l14.7,25.5L258.6,587l-14.7-25.5L338.3,507 M345.2,481.1L218,554.5l33.7,58.3l127.2-73.5
		L345.2,481.1L345.2,481.1z"/>
</g>
<g>
	<rect x="639.2" y="40.8" transform="matrix(0.866 -0.5 0.5 0.866 58.5347 372.1371)" class="st0" width="169" height="72"/>
</g>
<g>
	<rect x="42.4" y="64.6" transform="matrix(0.866 -0.5 0.5 0.866 -33.2897 76.944)" class="st0" width="169" height="72"/>
</g>
</svg>
