<?xml version="1.0" encoding="utf-8"?>
<!-- Generator: Adobe Illustrator 21.1.0, SVG Export Plug-In . SVG Version: 6.00 Build 0)  -->
<svg version="1.1" id="Layer_1" xmlns="http://www.w3.org/2000/svg" xmlns:xlink="http://www.w3.org/1999/xlink" x="0px" y="0px"
	 viewBox="0 0 294 357" style="enable-background:new 0 0 294 357;" xml:space="preserve">
<style type="text/css">
	.st0{fill:#5A5A5A;}
	.st1{fill:#C2C2C2;}
</style>
<path class="st0" d="M273.1,357H20.9C9.4,357,0,347.6,0,336.1V20.9C0,9.4,9.4,0,20.9,0h252.2C284.6,0,294,9.4,294,20.9v315.2
	C294,347.6,284.6,357,273.1,357z"/>
<g id="XMLID_2_" transform="translate(-154.56295,-46.655011)">
	<path class="st1" d="M233.6,321.7h-14c-11,0-20-9-20-20v-14h14c11,0,20,9,20,20V321.7z"/>
	<path class="st1" d="M383.6,290.7h-40v-170c0-11,9-20,20-20h40v170C403.6,281.7,394.6,290.7,383.6,290.7z"/>
	<path class="st1" d="M347.6,349.7h-77c-11,0-20-9-20-20v-23h117v23C367.6,340.7,358.6,349.7,347.6,349.7z"/>
</g>
</svg>
