<?xml version="1.0" encoding="utf-8"?>
<!-- Generator: Adobe Illustrator 21.1.0, SVG Export Plug-In . SVG Version: 6.00 Build 0)  -->
<svg version="1.1" id="Layer_1" xmlns="http://www.w3.org/2000/svg" xmlns:xlink="http://www.w3.org/1999/xlink" x="0px" y="0px"
	 viewBox="0 0 288.6 291" style="enable-background:new 0 0 288.6 291;" xml:space="preserve">
<style type="text/css">
	.st0{fill:#FCFCFC;}
	.st1{fill:#1069A2;}
	.st2{fill:#126BA3;}
	.st3{fill:#136CA4;}
	.st4{fill:#146CA4;}
</style>
<g id="_x36_z2JQh.tif">
	<g>
		<g>
			<path class="st0" d="M288.6,291c-95.7,0-191.5,0-287.4,0c0-96.6,0-193.3,0-290.2c95.7,0,191.5,0,287.4,0
				C288.6,97.4,288.6,194.2,288.6,291z"/>
			<path class="st1" d="M186.5,7.8c12-0.3,20.6,5.5,26.4,15.5c10,17.4,19.7,34.9,29.5,52.3c11.7,21,23.5,41.9,35.2,62.9
				c8.3,14.9,6.9,27.1-4.8,39.8c-28.9,31.3-57.9,62.5-86.9,93.8c-0.5,0.6-1,1.1-1.6,1.6c-11.9,12.1-23.5,14.3-38.9,7.4
				c-12.6-5.6-25-11.5-37.5-17.2c-27-12.5-54.1-24.9-81.1-37.5c-13.1-6.1-20.4-17.7-19.5-30.2c0.4-5.5,1.2-10.9,1.9-16.4
				c3.3-28.1,6.7-56.2,10-84.3c1.4-11.9,2.8-23.9,4.5-35.8c2-13.8,11.1-22.9,25.6-25.8c13-2.6,26-5.2,39-7.7
				c29.5-5.8,58.9-11.6,88.3-17.4C180,8.1,183.2,7.8,186.5,7.8z"/>
			<path class="st0" d="M17.6,196.4c1.6-14,3.3-28.4,5-42.9c3.4-28.3,6.8-56.7,10.2-85c0.2-1.7,0.4-3.5,0.6-5.2
				c1.9-11.5,6.7-16.8,18-19.2c16.6-3.5,33.3-6.8,50-10.1c24.8-4.9,49.6-9.8,74.4-14.6c1.2-0.2,2.5-0.5,3.7-0.7
				c12.8-2.2,19.6,0.9,26.1,12.4c7.2,12.6,14.2,25.3,21.3,38c13.6,24.2,27.1,48.5,40.7,72.7c7.3,13.1,6.6,20.1-3.6,31.1
				c-28.6,30.9-57.3,61.7-86.1,92.5c-9.6,10.3-16.8,11.8-29.5,6c-38.7-17.8-77.3-35.7-116-53.4C23.3,213.7,17.5,207.5,17.6,196.4z"
				/>
			<path class="st2" d="M215.1,128.5c0,10.8,0.1,21.6,0,32.4c-0.1,6.6-1.4,7.9-7.9,8c-6.5,0.1-13,0.2-19.6,0c-5.3-0.1-7.1-2-7.2-7.4
				c-0.2-5.8-0.1-11.5,0-17.3c0.1-2.7-0.8-4.2-3.8-4.2c-3,0-5.5,0.3-5.5,4.3c0.1,5.8,0.1,11.5-0.1,17.3c-0.2,5.7-1.4,7-7.2,7.1
				c-6.5,0.1-13,0.2-19.6,0c-5.6-0.2-7.3-1.8-7.4-7.2c-0.1-22.1-0.1-44.1,0-66.2c0-5.7,1.6-7.1,7.2-7.2c6.8-0.1,13.5-0.1,20.3,0
				c5.2,0.1,6.5,1.5,6.7,6.8c0.2,5.5,0.1,11,0,16.6c0,2.7,0.1,5,3.8,5c4.1,0,5.3-0.8,5.4-5.2c0.2-5.3-0.1-10.5,0.1-15.8
				c0.2-6.1,1.5-7.4,7.7-7.6c6.5-0.1,13-0.1,19.6,0c6.4,0.1,7.5,1.2,7.5,7.5C215.2,106.5,215.1,117.5,215.1,128.5z"/>
			<path class="st3" d="M127.8,128.2c0,10.8,0.1,21.5,0,32.3c-0.1,7.1-1.3,8.4-8.3,8.5c-6.3,0.1-12.5,0.2-18.8,0
				c-5.4-0.2-6.7-1.2-6.9-6.6c-0.4-10-0.4-20-0.4-30c0-12.3,0-24.5,0.4-36.8c0.2-7,1.1-7.5,8.2-7.6c6-0.1,12-0.1,18,0
				c6.7,0.1,7.7,1,7.8,8C127.9,106.7,127.8,117.4,127.8,128.2z"/>
			<path class="st4" d="M72.9,164.7c3.5,0,7,0,10.5,0c4,0,5.9,2.2,6.1,6c0,0.2,0,0.5,0,0.7c0.2,16.8,0.9,17.3-15.9,16.9
				c-3.5-0.1-7,0.1-10.5-0.1c-5.4-0.3-6.6-1.5-6.9-6.7c-0.1-3.5-0.1-7,0-10.5c0.2-5.2,1.1-6.2,6.1-6.4
				C65.9,164.5,69.4,164.7,72.9,164.7z"/>
		</g>
	</g>
</g>
</svg>
