<?xml version="1.0" encoding="utf-8"?>
<!-- Generator: Adobe Illustrator 21.1.0, SVG Export Plug-In . SVG Version: 6.00 Build 0)  -->
<svg version="1.1" id="Layer_1" xmlns="http://www.w3.org/2000/svg" xmlns:xlink="http://www.w3.org/1999/xlink" x="0px" y="0px"
	 viewBox="0 0 315 315" style="enable-background:new 0 0 315 315;" xml:space="preserve">
<style type="text/css">
	.st0{fill:#99CCFF;}
	.st1{fill:#FFFFFF;}
</style>
<rect x="0" y="0" class="st0" width="315" height="315"/>
<path class="st1" d="M223.9,203.3l-15.4,3.7c0,0,0,0,0,0L173.4,59.1c0,0,0,0,0,0l15.4-3.7c0,0,0,0,0,0L223.9,203.3
	C223.9,203.3,223.9,203.3,223.9,203.3z"/>
<polygon class="st1" points="131.5,285.8 129.3,276.5 129.3,276.5 196.4,260.6 196.4,260.6 198.6,269.9 198.6,269.9 131.5,285.8 "/>
<rect x="139.1" y="223.1" transform="matrix(0.973 -0.2307 0.2307 0.973 -51.1591 44.5888)" class="st1" width="52" height="35.8"/>
<polygon class="st1" points="131.9,248.7 96.9,257 96.9,257 92.8,239.7 92.8,239.7 127.8,231.4 127.8,231.4 131.9,248.7 "/>
<rect x="88.8" y="212.9" transform="matrix(0.973 -0.2307 0.2307 0.973 -48.5545 28.5593)" class="st1" width="18" height="18"/>
<rect x="165" y="152" transform="matrix(0.973 -0.2307 0.2307 0.973 -39.8718 46.9705)" class="st1" width="31.8" height="84"/>
<rect x="169.7" y="35" transform="matrix(0.973 -0.2307 0.2307 0.973 -5.0807 42.1475)" class="st1" width="16" height="15.7"/>
<rect x="114.2" y="232.8" transform="matrix(0.973 -0.2307 0.2307 0.973 -54.5451 35.1911)" class="st1" width="18" height="36"/>
<rect x="211.7" y="212.1" transform="matrix(0.973 -0.2307 0.2307 0.973 -44.8075 56.6149)" class="st1" width="16" height="15.7"/>
<rect x="141.2" y="40.7" transform="matrix(0.973 -0.2307 0.2307 0.973 -17.3891 38.7829)" class="st1" width="31.8" height="106"/>
<rect x="201.9" y="240.1" transform="matrix(0.973 -0.2307 0.2307 0.973 -51.5364 55.1097)" class="st1" width="16" height="15.7"/>
</svg>
