<?xml version="1.0" encoding="utf-8"?>
<!-- Generator: Adobe Illustrator 21.1.0, SVG Export Plug-In . SVG Version: 6.00 Build 0)  -->
<svg version="1.1" id="Layer_1" xmlns="http://www.w3.org/2000/svg" xmlns:xlink="http://www.w3.org/1999/xlink" x="0px" y="0px"
	 viewBox="0 0 617.6 702.3" style="enable-background:new 0 0 617.6 702.3;" xml:space="preserve">
<style type="text/css">
	.st0{fill:#FFFFFF;}
	.st1{fill:#7EC0EE;}
	.st2{fill:none;}
</style>
<g>
	<polygon class="st0" points="19.2,528.8 10.2,189.2 299.7,11.5 598.3,173.5 607.4,513.1 317.8,690.7 	"/>
	<path class="st1" d="M300,23.1l288.5,156.4l8.8,328L317.5,679.2L29.1,522.7l-8.8-328L300,23.1 M299.4,0L0,183.7l9.4,351.1
		l308.8,167.4l299.4-183.7l-9.4-351.1L299.4,0L299.4,0z"/>
</g>
<g>
	<path class="st1" d="M328.9,261.6h-74.2c-4,0-7.3-3.3-7.3-7.3v-74.2c0-4,3.3-7.3,7.3-7.3h74.2c4,0,7.3,3.3,7.3,7.3v74.2
		C336.2,258.4,332.9,261.6,328.9,261.6z"/>
</g>
<g>
	<path class="st1" d="M330.7,361.6H253c-3,0-5.5-2.5-5.5-5.5v-77.7c0-3,2.5-5.5,5.5-5.5h77.7c3,0,5.5,2.5,5.5,5.5v77.7
		C336.2,359.2,333.7,361.6,330.7,361.6z"/>
</g>
<g>
	<path class="st1" d="M430.9,461.6h-74.2c-4,0-7.3-3.3-7.3-7.3v-74.2c0-4,3.3-7.3,7.3-7.3h74.2c4,0,7.3,3.3,7.3,7.3v74.2
		C438.2,458.4,434.9,461.6,430.9,461.6z"/>
</g>
<line class="st2" x1="336.7" y1="372.6" x2="247.7" y2="461.6"/>
<g id="XMLID_9_">
	<path class="st1" d="M335.4,376.6l-86,86c-0.1,0.1-0.1,0.1-0.2,0.2c-1-0.8-1.7-2-1.7-3.4V379c0-2.3,1.9-4.2,4.2-4.2H332
		C333.4,374.9,334.6,375.6,335.4,376.6z"/>
</g>
<g id="XMLID_7_">
	<path class="st1" d="M351.9,273.9l85.2,84.2c0.2,0.2,0.4,0.3,0.6,0.5c-0.9,1.2-2.3,2-3.9,2l-78.4,0.5c-2.7,0-4.9-2.2-4.9-4.9
		l-0.5-78.4C350,276.3,350.7,274.9,351.9,273.9z"/>
</g>
<g>
	<path class="st1" d="M228.9,463.6h-74.2c-4,0-7.3-3.3-7.3-7.3v-74.2c0-4,3.3-7.3,7.3-7.3h74.2c4,0,7.3,3.3,7.3,7.3v74.2
		C236.2,460.4,232.9,463.6,228.9,463.6z"/>
</g>
</svg>
