<?xml version="1.0" encoding="utf-8"?>
<!-- Generator: Adobe Illustrator 21.1.0, SVG Export Plug-In . SVG Version: 6.00 Build 0)  -->
<svg version="1.1" id="Layer_1" xmlns="http://www.w3.org/2000/svg" xmlns:xlink="http://www.w3.org/1999/xlink" x="0px" y="0px"
	 viewBox="0 0 263 191" style="enable-background:new 0 0 263 191;" xml:space="preserve">
<style type="text/css">
	.st0{fill:#FEFEFE;}
	.st1{fill:#FBFCFB;}
	.st2{fill:#E3E3E3;}
	.st3{fill:#EFEFEC;}
	.st4{fill:#FBFBF9;}
	.st5{fill:#141414;}
	.st6{fill:#4C4C4C;}
	.st7{fill:#646464;}
	.st8{fill:#E0DEDA;}
	.st9{fill:#E7E3E0;}
	.st10{fill:#686868;}
	.st11{fill:#FAFEFC;}
	.st12{fill:#A79E93;}
	.st13{fill:#595959;}
	.st14{fill:#4E4E4E;}
	.st15{fill:#383629;}
	.st16{fill:#464238;}
	.st17{fill:#353535;}
	.st18{fill:#858484;}
	.st19{fill:#E8E6E4;}
	.st20{fill:#848484;}
	.st21{fill:#626262;}
	.st22{fill:#938E84;}
	.st23{fill:#716A61;}
	.st24{fill:#272416;}
	.st25{fill:#2E2E2E;}
	.st26{fill:#090909;}
	.st27{fill:#0F0F0F;}
	.st28{fill:#131313;}
	.st29{fill:#242424;}
	.st30{fill:#383838;}
	.st31{fill:#515153;}
	.st32{fill:#080808;}
	.st33{fill:#545353;}
	.st34{fill:#282828;}
	.st35{fill:#3A352F;}
	.st36{fill:#98928F;}
	.st37{fill:#444444;}
	.st38{fill:#5E554E;}
	.st39{fill:#1A1A1B;}
	.st40{fill:#181818;}
	.st41{fill:#333333;}
	.st42{fill:#505050;}
	.st43{fill:#313131;}
	.st44{fill:#5E6E70;}
	.st45{fill:#5C7174;}
	.st46{fill:#708285;}
	.st47{fill:#485351;}
	.st48{fill:#8D9D9E;}
	.st49{fill:#6C6A5F;}
	.st50{fill:#5C6C6F;}
	.st51{fill:#4B4D47;}
	.st52{fill:#504A42;}
	.st53{fill:#BDBDBD;}
	.st54{fill:#F0F0F0;}
	.st55{fill:#FAFAFA;}
	.st56{fill:#1A1A1A;}
	.st57{fill:#0E0F0F;}
	.st58{fill:#3C3C3C;}
	.st59{fill:#0C0A0B;}
	.st60{fill:#9D9588;}
	.st61{fill:#7A7A77;}
	.st62{fill:#64594A;}
	.st63{fill:#252213;}
	.st64{fill:#161514;}
	.st65{fill:#41392A;}
	.st66{fill:#1C1F16;}
	.st67{fill:#8D8979;}
	.st68{fill:#5A6964;}
	.st69{fill:#6E7B74;}
	.st70{fill:#392F24;}
	.st71{fill:#A79B93;}
	.st72{fill:#463E37;}
	.st73{fill:#9E968C;}
	.st74{fill:#181919;}
	.st75{fill:#090808;}
	.st76{fill:#252424;}
	.st77{fill:#312A26;}
	.st78{fill:#3E3A2F;}
	.st79{fill:#4B4B4B;}
	.st80{fill:#1F1F1F;}
	.st81{fill:#1D1D1D;}
	.st82{fill:#535353;}
	.st83{fill:#1F1F1E;}
	.st84{fill:#8F877C;}
	.st85{fill:#2A251C;}
	.st86{fill:#C1B8AC;}
	.st87{fill:#D3CFC8;}
	.st88{fill:#786F69;}
	.st89{fill:#ACA095;}
	.st90{fill:#A99F93;}
	.st91{fill:#39443E;}
	.st92{fill:#525E5D;}
	.st93{fill:#E2EDEC;}
	.st94{fill:#576967;}
	.st95{fill:#5E6E69;}
	.st96{fill:#4C4C42;}
	.st97{fill:#4A5653;}
	.st98{fill:#40453F;}
	.st99{fill:#F4FDFD;}
	.st100{fill:#A5A69E;}
	.st101{fill:#A6BCBF;}
	.st102{fill:#6A787A;}
	.st103{fill:#576865;}
	.st104{fill:#242A26;}
	.st105{fill:#413E35;}
	.st106{fill:#121313;}
	.st107{fill:#0B0B0B;}
	.st108{fill:#BAB7B2;}
	.st109{fill:#E0E0DB;}
	.st110{fill:#D9D7D2;}
	.st111{fill:#FDFEFB;}
	.st112{fill:#A59F98;}
	.st113{fill:#1D1C1B;}
	.st114{fill:#1D1C1D;}
	.st115{fill:#2E2317;}
	.st116{fill:#231D14;}
	.st117{fill:#85806E;}
	.st118{fill:#413D2F;}
	.st119{fill:#2B271B;}
	.st120{fill:#B6B2A1;}
	.st121{fill:#ABA292;}
	.st122{fill:#ACA295;}
	.st123{fill:#060606;}
	.st124{fill:#494A4A;}
	.st125{fill:#1C1D1D;}
	.st126{fill:#131212;}
	.st127{fill:#252F29;}
	.st128{fill:#3A3122;}
	.st129{fill:#1E1C13;}
	.st130{fill:#6F6F67;}
	.st131{fill:#292112;}
	.st132{fill:#A49B90;}
	.st133{fill:#4D4232;}
	.st134{fill:#2A2F27;}
	.st135{fill:#20241B;}
	.st136{fill:#2A2D25;}
	.st137{fill:#353225;}
	.st138{fill:#4F5048;}
	.st139{fill:#3E4C46;}
	.st140{fill:#282322;}
	.st141{fill:#1C180F;}
	.st142{fill:#1F1B0D;}
	.st143{fill:#151605;}
	.st144{fill:#E8E2DB;}
	.st145{fill:#504840;}
	.st146{fill:#3D3120;}
	.st147{fill:#272117;}
	.st148{fill:#BBB1A3;}
	.st149{fill:#8B8573;}
	.st150{fill:#1E1A0A;}
	.st151{fill:#282414;}
	.st152{fill:#3E382A;}
	.st153{fill:#6C6759;}
	.st154{fill:#746E60;}
	.st155{fill:#958B77;}
	.st156{fill:#C2BAA9;}
	.st157{fill:#4C4232;}
	.st158{fill:#2A2418;}
	.st159{fill:#87806F;}
	.st160{stroke:#0B4F48;stroke-miterlimit:10;}
	.st161{fill:#FFFFFF;stroke:#0B4F48;stroke-miterlimit:10;}
</style>
<g>
	<g>
		<path class="st0" d="M40.9,120.9c0-38.9,0-77.8-0.1-116.7c0-2.8,0.6-3.4,3.4-3.4C104.5,1,164.8,1,225.1,0.9c2.8,0,3.4,0.6,3.4,3.4
			c-0.1,51.5-0.1,103.1,0,154.6c0,2.8-0.6,3.4-3.4,3.4c-60.3-0.1-120.6-0.1-180.9,0c-2.8,0-3.4-0.6-3.4-3.4
			c0.2-11.1,0.1-22.2,0.1-33.3c2.9-0.3,5.3,1.1,7.8,2.2c0.8,0.4,1.6,0.7,2.5,1c3.8,0.5,7.6,0.6,11.4-0.2c0.5-0.1,1-0.1,1.5-0.1
			c8.2-0.1,16.4,0,24.6-0.9c6.5-0.5,13-0.5,19.5-0.3c5.2,0.4,10.8-1.2,15.6,2.1c6.2,4.5,11.8,3.1,17.1-1.6c4.9-1,9.8-0.3,14.7-0.5
			c17.9,0,35.7,1.6,53.6,1c0.9,0,1.9,0,2.8,0c1.5,0,2.8-0.1,2.8-2.2c0-1.7-1-1.8-2.3-2.2c-4.2-1.2-8.4-2.1-12.7-2.7
			c-9.3-1.1-18-4.5-26.9-7.3c-3.5-1.4-2.8-3.6-1.2-6c0.2-0.8,2.1,0.3,1.5-1.3c-0.7-1.7-0.3-3.6-1.6-5.1c-1.3-1.9-2.9-3.6-4.8-5
			c-3.2-2.2-4-5.5-3.3-9.1c0.8-3.6,2.5-7,3.9-10.4c0.7-1.8,2.7-2.6,4.3-2.1c5.2,1.4,6.5-1.7,7.4-5.7c0.8-3.4,0.9-7,3.2-10
			c2.5-3.2,4-6.9,5.8-10.5c1-1.7,1.4-3.6,1.7-5.6c0.4-1.5,0.9-3,1.8-4.3c1.9-2.9,2-6,1.3-9.2c-0.8-0.9-1.5-0.4-2.2,0.2
			c-0.3,0.3-0.5,0.6-0.8,0.8c-0.6,0.6-1.3,1-2,1.3c-1.3,0.5-2.5,1.4-3.8,2.1c-4.2,3.4-6.8,8.1-9.5,12.6c-3.2,5.3-6.3,10.6-10.7,15.2
			c-2.2,2.3-4.7,5.2-0.7,8.6c1.5,1.2,1.1,3.5-0.1,5.2c-2.3,3.3-4.4,6.8-7.2,9.8c-3,3.2-6.5,5.4-11.2,4.2c-2.7-0.7-5.2,0.5-7.5,2
			c-1.8,1.7-4.7-0.1-6.3,2c-0.5,0.4-1.1,0.7-1.8,1c-2.7,0.8-5.5,0-8.1,0.8c-0.8,0.3-1.6,0.6-2.4,1.1c-2.5,1-2.8,4.6-5.9,4.9
			c-1.1,0.2-2.2,0-3.2,0.4c-1.4,0.6-3.1,1.5-3,3.2c0.2,2.1,2.3,1.6,3.7,1.7c2.3,0.2,4.6-0.2,6.9,0.5c0.9,0.3,1.7,0.7,2.3,1.5
			c0.3,1.1-0.2,1.8-1.1,2.4c-1,0.3-1.9,0.1-2.7-0.4c-3.5-1.1-7.1-0.8-10.7-0.2c-0.8,0.3-1.7,0.6-2.5,0.9c-1.5,0.4-3.1,0.5-4.5,1
			c-0.4,0.1-0.9,0.2-1.3,0.3c-2.2,0.2-4.3,0.8-6.3,1.6c-2.9,1-6,1.5-8.4,3.5c-1.2,0.8-2.5,1.3-3.9,1.5c-0.7,0.1-1.4,0.1-2.2,0.2
			c-6,0.7-12,2.2-18,2.5c-1.3,0.5-2.9-2.8-4,0.3c-1.5,2-3.7,1.7-5.8,1.8C45.6,123.6,43.1,122.6,40.9,120.9z"/>
		<path class="st1" d="M48.4,128.4c-2.5-0.9-5.2-1.2-7.5-2.8c0-1.6,0-3.1,0-4.7c2.9-0.9,4.8,2.2,7.5,1.9
			C49.8,124.7,50.1,126.5,48.4,128.4z"/>
		<path class="st2" d="M173.1,107.8c-0.5,1.6-3.5,3.2,0,4.7c0.6,0.7,0.6,1.4,0.1,2.1c-1.2,0.8-2.4,0.8-3.6,0.2
			c-0.6-0.5-0.9-1.1-1-1.9c0-0.9,0.3-1.8,0.6-2.7c1-2.7,2.4-5.3,1.3-8.3c-0.6-1.1-1.1-2.1-2.1-3c-2-1.6-4.4-2.7-5.4-5.3
			c-0.6-1.5-1.1-2.9-1.1-4.5c0.4-2.9,1.9-5.4,2.8-8.1c0.3-1.3,1.4-2.5,0.6-4c-2.5,0.2-2.3,2.7-3.7,3.9c-1,1.1-2,2.1-2.7,3.4
			c-0.2,0.4-0.5,0.7-0.7,1c-1.2,1.2-2.3,2.5-3.7,3.5c-1.3,0.7-2.7,1.4-4,2c-0.4,0.2-0.8,0.3-1.3,0.3c-3.3,0.4-6.7-0.9-9.9,0.6
			c-0.9,0.2-1.9,0.2-2.7-0.5c2.3-2.5,5.4-3.6,8.4-2.7c3.6,1.1,6.3-0.2,8.6-2.1c4-3.3,6.3-8.1,9.3-12.2c1.1-1.5,0.2-4.2-1.2-4.2
			c-4-0.2-1.9-2.4-1.5-3.7c0.8-2.9,2.5-5.7,4.7-7.4c4.8-3.7,6.3-9.5,9.6-14c3-4.2,4.9-9.3,10-11.8c0.3,1.1-0.2,2.1-0.6,3
			c-1.4,2.8-3.9,4.8-5.5,7.5c-1.3,1.4-2.1,2.9-2.6,4.7c-0.4,1-0.8,2-1.5,2.8c-2.5,3.4-4.5,7.2-7.9,9.9c-0.4,0.5-0.8,1-1.2,1.4
			c-0.8,0.9-1.5,1.8-1.9,3c1.5,4.9,6.4,8,12.2,7.6c1.2-1.4,1.8-3.3,3.7-3.9c0.4-0.1,0.8,0,1.2,0.2c0.1,2.2-1.3,3.8-2.3,5.5
			c-1,1.7-2.3,2.5-4.6,1.4c-2.3-1.1-4.7-1-5.4,2.6c-0.4,2.1-1.6,4-2.4,6c-2.2,5.3-1.4,8.4,3.2,11.5c1.9,1.3,2.7,3.3,4.1,4.9
			C173.7,103.4,173.9,105.6,173.1,107.8z"/>
		<path class="st3" d="M48.4,128.4c0-1.9,0-3.7,0-5.6c2-0.2,4.4,0.7,5.6-1.9c0.9-0.7,1.8-0.6,2.8-0.1c6.6-0.9,13.1-1.8,19.7-2.7
			c0.3,0.5,0.2,0.9-0.1,1.3c-2.3,1.7-5.1,1.5-7.6,2.4c-2.7,0.3-5.3,1.2-8,1.3c-1.7,0-3.5-0.1-5,1c-0.8,0.5-1.7,0.7-2.9,1.9
			c9.3,0.4,17.9,0.2,26.5-0.4c14-0.9,27.9-0.2,41.9-0.3c2,0,3.6,0.9,4.8,2.4c1,0.9,2,1.8,3.4,2.1c3.2,0.5,6.3,0.4,9.1-1.6
			c0.4-0.2,0.8-0.2,1.3-0.2c0.2,0.1,0.4,0.2,0.6,0.4c-3.2,5.6-10.2,6.4-16.1,1.8c-4.9-4.2-10.5-2.1-15.9-1.9c-6.6,0-13.1,0-19.7,0
			c-8.4,1-16.9,0.1-25.3,0.9l-0.5,0l-0.5,0c-4.1,0.7-8.1,0.7-12.2,0C49.5,129.3,48.8,129.1,48.4,128.4z"/>
		<path class="st4" d="M173.1,114.1c0-0.5,0-1.1,0-1.6c6.4,2.1,12.8,4.4,19.3,6.1c4.9,1.2,10,1.9,15.1,2.2c3,0.2,5.5,4.8,8.5,0.5
			c1.7,2-0.2,3.4,0.3,4.9c0.8,2.9-0.6,3.3-3.1,3.2c-13.4-0.5-26.7,0.7-40.1-0.9c-5.5-0.7-11.2-0.1-16.8-0.1c-0.3-0.6-0.2-1,0.3-1.4
			c1.4-0.9,2.9-1.1,4.5-1c11.8,0.5,23.7,0.1,35.5,0.2c5.4,0,10.8,1.4,16.2,0.5c-2.2-2.6-4.5-3.5-10.2-3.6c-4.1-0.7-8-1.7-12.1-2.2
			c-2.8-1.1-5.7-2.3-8.7-2.9c-2-0.6-4-1.4-6.1-1.6C174.4,116,173.3,115.6,173.1,114.1z"/>
		<path class="st5" d="M177.6,42.8c1.8-2.4,3.6-4.9,5.4-7.3c1.8-1.4,3.1-3.4,5-4.5c0.6-0.4,1.2-0.8,1.8-1.2c0.4,0.3,0.6,0.6,0.7,1
			c0.1,0.9-0.2,1.7-0.6,2.4c-0.4,0.9-0.9,1.9-1.4,2.8c-0.8,1.2-1.3,2.6-2.1,3.8c-2.4,1.5-5.2,2.8-5.3,6.3c-1.4,1.7-2.3,4.8-5.3,1.8
			C175.5,45.9,177.3,44.6,177.6,42.8z"/>
		<path class="st6" d="M189.2,33c0.3-0.7,0.5-1.3,0.8-2c0.6-0.6,0.8-1.3,0.1-1.9c0.9-1.6,2-2.4,3.7-1c1.1,3.9,0.3,7.5-1,11.2
			c-1,1.1-0.5,2.9-1.8,3.9c-1.3,0.3-1.5-0.7-1.8-1.6c-0.2-0.9-0.1-1.8,0.1-2.7c0.2-0.8,0.6-1.6,0.9-2.4C190.8,35,190.1,34,189.2,33z
			"/>
		<path class="st7" d="M189.2,48.8c-1.3,3.8-3,7.3-5.7,10.4c-0.7-0.2-1.2-0.6-1.5-1.4c0.3-4.6,1.8-8.6,5.8-11.2
			C188.8,47,189,47.9,189.2,48.8z"/>
		<path class="st1" d="M63.4,129.3c3.5-1.9,7.3-0.7,10.9-0.9c4.8-0.2,9.6-0.1,14.4-0.1c-0.8,1-1.9,1-2.9,0.9
			C78.3,128.6,70.9,130.6,63.4,129.3z"/>
		<path class="st1" d="M156.2,127.4c0,0.3,0,0.7,0,1c-5.3,0-10.5,0-15.8,0c0,0-0.3-0.2-0.3-0.2c1.3-4.7,5.3-2.4,8.1-3
			c0.8,0,1.6,0,2.3,0C152.6,125.5,154.7,125.8,156.2,127.4z"/>
		<path class="st8" d="M117.6,108c-2.5-0.1-4.9-0.2-7.4-0.1c-2.3,0-4.8-0.2-5.1-2.8c-0.2-2.2,2.2-3.6,4-4.5c1.1-0.6,2.7-0.2,4.1-0.2
			c0.2,0.4,0.2,0.8-0.1,1.1c-1.2,1-3,1.2-4.1,2.5c-0.7,1.4,0.3,1.6,1.3,1.7c2,0.2,4-0.1,6,0.3c0.4,0.1,0.9,0.3,1.2,0.5
			c0.4,0.3,0.5,0.7,0.5,1.2C117.9,107.7,117.7,107.8,117.6,108z"/>
		<path class="st9" d="M118.7,110.6c0.3-0.6,0.5-1.1,0.8-1.7c0.6-0.8,1.4-0.5,2.2-0.5c1.3-0.1,2.3,0.5,3.1,1.4
			c0.4,0.4,0.9,0.7,1.4,1.1c1,0.7,2,1.4,2.4,2.7c0.1,1.1-0.3,2-1.1,2.8c-1.4,0.5-2.1-0.7-3.1-1.3c-0.9-0.6-1.9-1.1-3-1.6
			c-0.4-0.1-0.7-0.3-1-0.5c-0.7-0.4-1.4-0.8-1.8-1.4C118.3,111.2,118.4,110.9,118.7,110.6z"/>
		<path class="st10" d="M182.3,58.1c0.4,0.4,0.7,0.7,1.1,1.1c-1.7,3.1-2.4,6.6-2.9,10c-0.3,0.1-0.6,0.1-0.9,0.1
			c-2.1-2,0.8-5.1-1.4-7.1C178.5,59.7,178.8,57.2,182.3,58.1z"/>
		<path class="st1" d="M108.4,128.4c4.4-1.9,9.1-0.6,13.6-0.8c1.4,0,1.7,1.6,2.3,2.6C119.2,127.7,113.8,128.5,108.4,128.4z"/>
		<path class="st11" d="M126.1,135.3c2.6-1.8,5.3-1.4,8-0.5C131.6,135.9,128.9,136.1,126.1,135.3z"/>
		<path class="st12" d="M118.7,110.6c0.1,0.3,0.1,0.5,0.3,0.8c-3.3,2.1-6.6,2.2-9.9-0.1c-0.2-0.6-0.1-1.2,0.1-1.7
			c2.5-0.4,5-0.9,7.5,0.3C117.2,110.6,118,110.6,118.7,110.6z"/>
		<path class="st13" d="M189.2,48.8c-0.9-0.4-1.1-1.3-1.2-2.2c-1-2.4-0.9-4.4,2-5.4c0.1,0.8,0.2,1.5,0.9,1.9
			C191.7,45.4,190.4,47.1,189.2,48.8z"/>
		<path class="st14" d="M118.6,95.5c0.4-0.8,1.1-0.9,1.9-1c1.5-0.7,2.9,0.2,4.3,0.4c0.4,0.2,0.6,0.6,0.8,1c-0.5,2.9-1.6,4.8-4.8,2.6
			c-0.3-0.3-0.6-0.6-0.9-0.9C119.4,97,118.9,96.4,118.6,95.5z"/>
		<path class="st15" d="M76.3,118.7c0.1-0.2,0.2-0.4,0.2-0.6c0.6,0,1.2,0.1,1.9,0.1c0.7,0.7,1.9,0.9,2.2,2.1c-0.1,1-0.6,1.6-1.4,2.1
			c-1.1,0.5-2.2,0.5-3.4,0.5c-0.7-0.1-1.3-0.3-1.9-0.7c-0.3-0.3-0.5-0.7-0.4-1.2C73.9,119.6,75.8,120,76.3,118.7z"/>
		<path class="st16" d="M97.2,111.5c0.3,0,0.6,0,0.9,0c1.2-0.7,2.4-0.7,3.3,0.5c0.3,0.7,0.3,1.5-0.1,2.2c-0.3,0.4-0.7,0.7-1.2,0.9
			c-1.2,0.4-2.4,0.3-3.6,0c-0.9-0.3-1.7-0.8-2.3-1.6C94.1,111.1,96.5,112.6,97.2,111.5z"/>
		<path class="st17" d="M118.6,95.5c1.1,0.2,2,0.6,2,1.9c-2.3,0.8-3,3.5-5.2,4.4c-0.9,0.2-1.8,0.1-2.5-0.8c0.1-0.3,0.2-0.5,0.3-0.8
			C116.1,100,115.3,95.4,118.6,95.5z"/>
		<path class="st18" d="M136.6,91.1c0.8-0.1,1.6-0.2,2.4-0.3c0.2,0.1,0.3,0.2,0.5,0.3c0,1.1-1,1.6-1.7,2.2c-0.7,0.6-1.4,1.3-2.4,1.6
			c-0.6,0-1.1-0.2-1.5-0.6c-0.7-0.6-1.6-0.8-2.5-1c-0.4-0.1-0.6-0.4-0.7-0.8C132.2,89.5,134.9,92.3,136.6,91.1z"/>
		<path class="st19" d="M82.2,117c1.8-3.3,5.4-2.7,8.3-3.8c0.1,0.2,0.2,0.3,0.3,0.5c-0.2,1.2-1.1,1.6-2,2.1
			c-0.9,0.4-1.9,0.7-2.7,1.2c-1.1,0.6-2.2,1.2-3.5,0.5C82.5,117.3,82.3,117.2,82.2,117z"/>
		<path class="st8" d="M116.7,109.9c-2.5-0.1-4.9-0.1-7.4-0.2c-1.5,1.2-3.1,1.4-4.7,0.1C108.7,108.2,112.8,107.8,116.7,109.9z"/>
		<path class="st20" d="M125.2,95.5c-1.6-0.3-3.1-0.6-4.7-0.9c3-1.5,6.3,0.2,9.3-1.1C129.4,96.9,127.1,95.6,125.2,95.5z"/>
		<path class="st21" d="M192.7,39.3c0.3-3.7,1.3-7.4,1-11.2C195.5,32,194.9,35.7,192.7,39.3z"/>
		<path class="st1" d="M50.3,129.3c4.1,0,8.1,0,12.2,0C58.4,130.9,54.4,130.9,50.3,129.3z"/>
		<path class="st22" d="M104.7,109.7c1.6,0,3.1,0,4.7-0.1c0,0.3,0,0.6,0,0.9c-0.5,1.3-1.6,1.8-3,1.9c-1.6,0-3.1-0.2-3.7-2
			C103.4,110.3,104,110,104.7,109.7z"/>
		<path class="st14" d="M125.2,95.5c1.2-1.4,3.9,0.6,4.6-2c0.3-0.3,0.7-0.7,1-1c0,0.3,0,0.5,0.1,0.8c0.7,0.7,0.8,1.6,0.5,2.5
			c-0.3,0.7-0.8,1.1-1.4,1.4c-0.9,0.3-1.8,0.2-2.7,0c-0.9-0.3-1.6-0.8-2.1-1.5L125.2,95.5z"/>
		<path class="st23" d="M102.7,110.5c1.1,0.9,2.4,1.2,3.8,1c0.3,0.5,0.2,1-0.3,1.4c-1.9,1-3.6,0.9-5.3-0.4c-0.7-1.1-1.9-0.7-2.9-1
			C99.5,110.4,101.1,110.6,102.7,110.5z"/>
		<path class="st4" d="M173.1,107.8c0-2.2,0.1-4.3,0.1-6.5c1.8,1.7-0.1,4.7,2.3,6.3c0.5,0.3,0,1.4-0.6,1.4
			C174.2,108.9,173.7,108.2,173.1,107.8z"/>
		<path class="st24" d="M80.3,120c-1.1,0-1.8-0.5-1.9-1.7c1.3-0.4,2.5-0.8,3.8-1.2l-0.1,0.3c1,0.4,1.6,0.9,1.1,2.1
			C82.4,120.3,81.5,121,80.3,120z"/>
		<path class="st4" d="M219.2,119.3c0.8,0.3,1.4,0.7,1.3,1.6c-0.1,0.7-0.8,0.9-1.4,0.8c-0.8-0.2-1.5-0.5-1.3-1.5
			C217.9,119.6,218.5,119.2,219.2,119.3z"/>
		<path class="st25" d="M188.1,30.9c-1.3,1.9-2.6,3.9-5,4.5c0.5-0.8,1-1.7,1.5-2.5C185.9,32.6,186.4,30.7,188.1,30.9z"/>
		<path class="st19" d="M97.2,111.5c-1,0.6-2,1.2-3,1.8c-1,1.1-2.2,1.1-3.4,0.3c-0.1-0.1-0.2-0.3-0.3-0.4
			C92.6,112.1,94.7,111.2,97.2,111.5z"/>
		<path class="st26" d="M190.1,29.1c0.8,0.2,2.2-0.4,2.3,0.7c0.1,1.6-1.5,0.9-2.4,1.3c0-0.4-0.1-0.9-0.1-1.3
			C189.8,29.5,189.8,29.3,190.1,29.1z"/>
		<path class="st8" d="M122.5,108.9c-1,0-2,0-3,0c-0.6-0.3-1.3-0.6-1.9-0.9c0.1-0.1,0.2-0.3,0.3-0.4
			C120,106.3,121.4,107,122.5,108.9z"/>
		<path class="st1" d="M56.9,120.8c-0.9,0-1.9,0.1-2.8,0.1c-0.9-1.2,0.5-1.1,0.9-1.3C56,119.2,56.4,120,56.9,120.8z"/>
		<path class="st27" d="M164.5,61.6c0.2-0.3,0.5-0.6,0.7-0.9c4.1-2.1,5.8-6.2,8.6-9.5c0.5-0.4,0.2,1.4,1,0.4c1-1.4,2.2-2,3.9-1.2
			c0.3,3.9-2.9,6.2-4.3,9.3c-0.9,2.1-1.9,4.2-3.2,6c-1.7,1.4-1,5.6-5,4.4c-1.2-2.8,0.9-4.6,2-6.7c0.1-0.5,0.5-0.8,0.6-1.3
			c-0.4,0.3-0.5,0.9-0.8,1.4c-1.4,1.6-1.9,4.5-5,3.4c-0.4-0.3-0.6-0.7-0.5-1.1C163.3,64.5,163.9,63,164.5,61.6z"/>
		<path class="st28" d="M160.7,80.1c1.8-1.6,1.6-6,5.9-4.4c0.3,1.8-1.1,3.1-1.4,4.8c-0.7,2.7-2.2,5.1-2.8,7.8
			c-0.1,0.4-0.3,0.8-0.4,1.2c-3.8,3.6-3.9-0.8-5.3-2.5c0.1-1.1,1.1-1.9,1.3-3l-0.1,0.1C159,83,160.4,81.9,160.7,80.1z"/>
		<path class="st29" d="M178.5,62.7c1-0.2,2.2-0.5,1.8,1.3c-0.3,1.8-0.5,3.5-0.8,5.3c-1.1,1.5-2.4,2.8-2.9,4.7
			c-4.9-0.5-5.6-1.2-4.6-4.3C174.4,67.6,175.1,63.9,178.5,62.7z"/>
		<path class="st30" d="M173,70c-1.6,4,2.5,2.6,3.7,4c-1.7,3-4.4,0.1-5.3-0.1c-3.6-1.3-7.2-3.5-9.7-6.6c-0.6-0.8,0.1-2,1.1-2.7
			c0.5,0.3,0.5,0.7,0.2,1.2c0,0.3,0,0.5,0.1,0.8c2.2,0.3,3.3,1.6,3.6,3.7c2.9-0.2,1.8-3.6,3.7-4.7c0.4-0.3,0.7-0.3,1.1,0
			C172.2,66.9,171.5,68.8,173,70z"/>
		<path class="st6" d="M163.9,93.6c1.2,2.3,3.7,3.2,5.5,4.8c-0.7,1-1.7,1.2-2.8,1.4c-0.4,0-0.8,0-1.3-0.1c-1.5-0.8-3-1.2-4.7-1.4
			c-1.8-0.5-3.6-0.9-5.3,0.5c-0.6,0.3-1.3,0.3-2,0.1c-0.7-0.3-1.1-0.8-1.4-1.4c-0.3-1,0.1-1.8,0.8-2.5c0.7-0.6,1.5-0.9,2.4-1.1
			c2.5-0.6,5,0.2,7.5,0.1C163.1,93.8,163.5,93.7,163.9,93.6z"/>
		<path class="st31" d="M171.3,101.1c2.1,3.4-0.2,6.3-1.2,9.3c-2.7,2.2-5.3,0.7-8-0.3c-0.7-0.6-0.5-1.2,0.1-1.8
			c4-0.9,6.4-3.7,8.6-6.9C171,101.4,171.1,101.3,171.3,101.1z"/>
		<path class="st32" d="M178.6,50.6c-1.4,0.2-2.6,0.6-3.5,1.8c-0.3,0.3,0.1,1.5-0.9,0.9c-0.3-0.2-0.2-1.1-0.2-1.7
			c-0.5-0.3-0.6-0.7-0.1-1.2c-0.2-1.1,0.7-1.7,1.1-2.6c0.3-0.5,0.6-0.4,0.9,0c2.6,2.1,3-1.5,4.7-1.9c2.6,1.5-0.2,2.5-0.4,3.8
			C179.8,50.2,179.3,50.5,178.6,50.6z"/>
		<path class="st33" d="M139,90.8c3.4-2.6,7.1-0.6,10.7-0.8c1,1.1,1.6,2.2,1,3.7c-2.3,1.3-3.6-1.2-5.4-1.5c-1.5-0.3-3.1-0.1-4.6-0.5
			c-0.4-0.2-0.8-0.4-1.1-0.7C139.5,90.9,139.3,90.9,139,90.8z"/>
		<path class="st34" d="M173.9,50.4c0,0.4,0.1,0.8,0.1,1.2c-2.5,3.5-3.9,8.1-8.8,9.2C168.1,57.3,171,53.8,173.9,50.4z"/>
		<path class="st35" d="M173.1,114.1c0.9,0.4,1.9,0.7,2.8,1.1c1.2,1,2.9,0.9,4,2.1c0.1,0.5-0.1,0.9-0.4,1.2
			c-2.9,1.1-5.2-0.8-7.9-1.2c-1.1-0.4-2.1-0.9-2.4-2.2c0-0.2,0.1-0.4,0.1-0.7C170.6,114.3,171.8,114.2,173.1,114.1z"/>
		<path class="st36" d="M161.7,109.2c2.8,0.4,5.5,1.6,8.4,1.2c-0.3,0.7-0.7,1.4-1,2.1c-0.8,0.7-1.6,0.7-2.6,0.6
			c-1.9-0.6-4.1-0.3-5.6-2c-0.3-0.4-0.3-0.8-0.3-1.3C160.9,109.5,161.2,109.3,161.7,109.2z"/>
		<path class="st37" d="M161.9,89.1c0-3.1,1.2-5.8,2.8-8.4c0.3-0.4,0.7-0.4,1,0c-1,2.8-1.9,5.6-2.9,8.4
			C162.5,89.4,162.2,89.4,161.9,89.1z"/>
		<path class="st38" d="M166.6,112.4c0.8,0.1,1.7,0.2,2.5,0.2c0.1,0.6,0.1,1.2,0.2,1.8c0,0,0.1-0.1,0.1-0.1
			c-0.3,0.4-0.7,0.6-1.2,0.8c-1.2,0.4-2.5,0.3-3.7,0c-1-0.4-1.8-1-1.9-2.1C163.7,111.3,165.1,112,166.6,112.4z"/>
		<path class="st39" d="M150.5,93.7c-0.3-1.2-0.6-2.4-0.8-3.6c0.2-0.2,0.4-0.3,0.7-0.2c0.7-0.4,1.4-0.4,2.1,0c0.6,1.5,0.2,3-0.1,4.5
			c-1.2,2.3-2.7,3-4.8,1C147.8,93.3,149.9,94.8,150.5,93.7z"/>
		<path class="st39" d="M158,84.2c-0.3,1-0.5,2-0.8,3c-0.7,1.2-0.6,3.4-3,2.7c-0.3-0.7-0.3-1.3,0.2-1.9
			C155.5,86.8,156.7,85.5,158,84.2z"/>
		<path class="st40" d="M165.7,80.7c-0.3,0-0.7,0-1,0c0-1.9,1.3-3.3,1.9-4.9C167.9,77.7,166.6,79.1,165.7,80.7z"/>
		<path class="st41" d="M175.9,47.8l-0.5,0l-0.5,0c0-2.1,1.3-3.6,2.6-5C178,44.8,176.5,46.1,175.9,47.8z"/>
		<path class="st37" d="M166.5,99.3c0.7-1.1,1.8-0.9,2.9-1c0.6,0.9,1.3,1.8,1.9,2.8c-0.2,0.1-0.4,0.2-0.5,0.3
			c-0.3,0.2-0.7,0.2-1.1,0.1c-0.5-0.2-1-0.5-1.4-0.9C167.6,100.3,166.9,100,166.5,99.3z"/>
		<path class="st6" d="M161.9,89.1c0.3,0,0.6,0,0.9,0c0.3,1.5,0.7,3,1,4.6c0,0-0.3,0.2-0.3,0.2c-1.5,0.1-1.9-1-2.3-2.1
			c0-0.9,0-1.8,0.4-2.7L161.9,89.1z"/>
		<path class="st39" d="M160.7,80.1c0.3,2.2-0.9,3.4-2.8,4.1C158.4,82.6,159.6,81.4,160.7,80.1z"/>
		<path class="st42" d="M154.3,88c0,0.6-0.1,1.3-0.1,1.9c-0.6,0.5-1.1,0.6-1.8,0.1c-0.7-0.1-1.3-0.2-2-0.2
			C151.6,89,152.8,88.1,154.3,88z"/>
		<path class="st43" d="M162.9,65.7c-0.1-0.4-0.1-0.8-0.2-1.2c0.3-1.2,0.7-2.2,1.8-2.9C164.8,63.3,163.8,64.5,162.9,65.7z"/>
		<path class="st44" d="M126.1,129.6c-1.7-2.5-4-3.3-7.1-3.2c-21.5,0.5-43,0.8-64.4,1.2c-0.8,0-1.6,0-2.3,0
			c-1.2-0.1-2.8,0.4-2.9-1.4c-0.2-1.8,1.5-1.6,2.6-2c1.3-0.4,2.6-1,3.9-1.5c0.2,0.1,0.4,0.2,0.6,0.3c1.4,1.6,3.3,1.5,5.1,1.4
			c3.5-0.1,7-0.3,10.4-0.6c0.7-0.1,1.4,0,2.1,0.1c3.2,0.7,6.5,0.6,9.8,0.1c3,1,5.5-1.9,8.5-0.9c1.8,1.2,3.8,1.1,5.8,0.5
			c3.2-0.2,6.5-0.3,9.7,0.1c1.9,0.6,3.7,0.8,5.6,0.1c1.7-0.4,3.3-0.4,5-0.3c2.7,0.7,5.5-0.5,8.2,0.5c1.2,0.7,0.9,1.9,1.2,3
			C127.8,128.2,127.3,129.1,126.1,129.6z"/>
		<path class="st45" d="M126.1,129.6c0.3-1,0.7-1.9,1-2.9c0.6-0.5,1-0.2,1.5,0.2c0.4,0.4,0.9,0.8,1.4,1c1,0.4,2,0.3,2.9,0
			c0.7-0.3,1.2-0.7,1.6-1.4c0.1-0.3,0.3-0.7,0.5-1c0.1-0.2,0.2-0.3,0.3-0.5c0.4-0.7,0.8-1.4,1.5-1.7c0.4-0.1,0.8-0.1,1.2,0
			c2.1,0.4,4.1,0.3,6.1-0.3c0.9-0.2,1.8-0.1,2.6,0.4c0.3,0.4,0.4,0.8,0.3,1.3c-0.5,0.8-1.5,1-2.3,1.3c-2,0.1-4.1-0.2-5.4,1.9
			c-2.7,3.6-6.7,2.6-10.3,3.1C128,130.7,126.8,130.6,126.1,129.6z"/>
		<path class="st46" d="M129.1,131c3.4-1.2,7.5-0.2,10.1-3.6c0.3,0.2,0.5,0.4,0.4,0.6c-0.1,0.2-0.2,0.4-0.3,0.4
			C136.6,132.1,132.9,131.7,129.1,131z"/>
		<path class="st47" d="M60.6,121.8c2.7-0.4,5.4-0.7,8.1-1.1c0.8-0.3,1.6-0.4,2.3,0.1c-2.8,3.5-6.4,3.4-10.2,2.4
			C60.4,122.9,60.3,122.4,60.6,121.8z"/>
		<path class="st48" d="M139.3,128.3c0-0.3-0.1-0.6-0.1-0.9c1.1-3.2,3.9-1.2,5.8-1.8c1.4-0.3,3.1-1.6,3.8,1
			c-2.8,0.9-6.2-1.3-8.6,1.7C139.9,128.3,139.6,128.3,139.3,128.3z"/>
		<path class="st49" d="M71,121c-0.8-0.1-1.5-0.2-2.3-0.3c2.5-0.7,5.1-1.4,7.6-2c-0.3,1.5-1.7,1.5-2.6,2.2
			C72.8,121.6,71.9,121.8,71,121z"/>
		<path class="st44" d="M60.6,121.8c0,0.3,0,0.6,0,1c-0.3,0.4-0.7,0.6-1.1,0.8c-1.2,0.3-2.3,0.3-3.3-0.5c-0.1-0.1-0.2-0.2-0.4-0.4
			C57.2,121.2,59,121.8,60.6,121.8z"/>
		<path class="st48" d="M156.2,127.4c-1.9-0.3-3.7-0.5-5.6-0.8c-0.3-0.6-0.2-1.1,0.3-1.5c5.5-1.7,11.1-0.5,16.6-0.8
			c2.9-0.1,5.9-0.1,8.8,0c0.9,0,1.7,0.1,2.6,0.3c7.4,1.2,14.9,0.3,22.4,0.5c4.6,0.6,9.5-1.4,14,1.4c-0.3,2.5-2.3,1.7-3.6,1.6
			c-16.3-0.3-32.6-0.6-48.9-0.9C160.6,127.2,158.4,127.3,156.2,127.4z"/>
		<path class="st50" d="M215.3,126.6c-4.7,0-9.4-0.1-14.1-0.1c-0.3-0.4-0.3-0.7,0-1.1c1-1.1,2.8-0.1,3.6-1.5c-0.7-0.2-1.5-0.4-2-1
			c-0.2-0.4-0.1-0.8,0.3-1.1C207.9,121.6,212,123,215.3,126.6z"/>
		<path class="st51" d="M203.1,121.7c0,0.3,0,0.6,0,0.9c-4.7,2.8-8.8,0-13.1-1.4c-0.4-0.5-0.4-1-0.1-1.5
			C194.4,120.4,198.7,121.1,203.1,121.7z"/>
		<path class="st52" d="M190,119.8c0,0.4,0,0.8-0.1,1.1c-0.3,0.3-0.7,0.4-1.1,0.3c-1.1-0.3-2.1-0.9-3.3-1.2c-1.5-0.6-3.1-0.7-4.2-2
			c-0.2-0.4-0.1-0.8,0.3-1.1C184.6,117.4,187.5,118.2,190,119.8z"/>
		<path class="st52" d="M179.7,117.3c-1.5-0.4-2.9-0.8-3.8-2.2c2.1-0.1,4,0.7,5.8,1.8c-0.1,0.2-0.2,0.3-0.4,0.5
			C180.8,117.8,180.2,117.7,179.7,117.3z"/>
		<path class="st41" d="M179.5,49.6c-0.4-1.5,2.1-2,1.1-3.7c-1.4-4.8,2.3-5.5,5.4-6.8c0.4,0.2,0.6,0.6,0.7,1.1c-2.3,2.2-4,4.5-3.9,8
			c0,1.4-1.2,2.8-3.2,2.6c-0.2-0.2-0.3-0.5-0.3-0.8C179.4,49.7,179.4,49.6,179.5,49.6z"/>
		<path class="st53" d="M189.2,33c3.8-0.3,3,1.5,1.7,3.5c-0.7-0.1-1.4-0.2-2.2-0.3c-0.4-0.1-0.7-0.3-0.9-0.6
			C188.3,34.8,188.8,33.9,189.2,33z"/>
		<path class="st25" d="M186,39.1c0.2-1.4,0.4-2.7,1.8-3.4c0.2,0.1,0.3,0.1,0.5-0.1c0.2,0.4,0.3,0.8,0.4,1.2
			c-0.3,1.3-0.6,2.5-2.2,2.8C186.3,39.4,186.1,39.3,186,39.1z"/>
		<path class="st54" d="M186.4,39.6c0.6-1,1.2-2,1.8-3c1.6-0.3,1.6,0.9,1.9,1.9c0,0.9-0.1,1.8-0.1,2.8c-1.5,1.5-1.6,3.5-2,5.4
			c-2.5,3.5-4.8,7.1-5.6,11.4c-2.5,0.5-3,2.6-3.8,4.6c-1.9,2.4-3.7,4.9-5.6,7.3c-5.6,0.4-1.3-2.8-1.6-4.4c2.2-5.3,5-10.2,8.4-14.8
			c1.6-1.8,3.5-3.3,2-6.2c-0.9-1.7,0.2-2.9,2-3.3C184.9,41.1,186.3,41.3,186.4,39.6z"/>
		<path class="st55" d="M190.1,38.5c-0.6-0.6-1.2-1.3-1.9-1.9c0-0.3,0.1-0.6,0.1-1c0.9,0.3,2.4-1.2,2.6,1
			C190.8,37.3,191.1,38.2,190.1,38.5z"/>
		<path class="st46" d="M150.6,125.6c0,0.3,0,0.7,0,1c-0.6,0-1.3,0-1.9,0c-1-1.4-2.5-0.8-3.8-1c0.4-0.7,1.1-0.9,1.9-0.9
			C148.4,123.6,149.7,123.8,150.6,125.6z"/>
		<path class="st56" d="M122.5,108.9c-1.4-1-3-1.2-4.6-1.3c-0.1-0.2-0.2-0.4-0.4-0.7c0.7-1.3,2.5-0.9,3.4-2.1
			c-1.4-1.8-4.4-1.2-5.1-3.6c1.7-1.1,0.6-5.7,4.7-3.7c0,0,0,0,0,0c1.4,2.4,2.9,3,4.6,0.3c0.4-0.7,0.7-1.7,2-1.2
			c0.9,0,1.8,0.1,2.7,0.1c0.8,0.4,2.2,0.2,2.3,1.6c0.2,2.5,1.4,5.1,0.1,7.6c-0.8,0.6-1.7,1.1-1.4,2.3c0,0.6-0.2,1.2-0.7,1.7
			c-1.9,0.7-4.1-1.5-5.8,0.7C123.3,110.5,123.8,108.8,122.5,108.9z"/>
		<path class="st57" d="M115.9,101.2c1.3,0.5,2.7,0.9,3.9,1.5c1.2,0.7,3.7-0.3,3.4,2.2c-0.3,2.3-2.5,1.8-4.2,1.9
			c-0.5,0-0.9,0.1-1.4,0.1c0,0-0.4,0.1-0.4,0.1l-0.4-0.2c-2-0.9-4.2-0.7-6.3-1c-1.8-0.3-3.1-0.8-2.2-3c1.2-1.4,2.8-2,4.7-1.8
			C113.9,101.1,114.9,101.2,115.9,101.2z"/>
		<path class="st58" d="M108.3,102.9c0.3,2.5,2.5,1.6,3.9,2.3c1.5,0.7,3.5,0.1,4.7,1.7c-2.4-0.1-4.9,0-7.3-0.2
			C106.7,106.3,105.9,105.1,108.3,102.9z"/>
		<path class="st59" d="M124.3,110.6c0.9-6.2,3.8-0.4,5.6-1c1.5-1.3,3.7-0.4,5.2-1.6c0.4-0.5,0.7-0.9,1.1-1.4c1.1-0.8,2.5-1.2,3.6-2
			c0.2-0.1,0.4-0.2,0.5-0.3c0.4-0.2,0.8-0.3,1.2-0.5c2.9,0,6.1-1.3,8.4,1.6c0,0.4-0.1,0.8-0.4,1.2c-0.3,0.3-0.6,0.6-1,0.8
			c-1.7,0.6-3.6,0.7-4.9,2.1c-0.6,0.5-1.4,0.9-2.2,1.1c-1.8,0.4-3.4,1.2-5,2.1c-0.3,0.2-0.7,0.4-1.1,0.5c-0.5,0.3-1,0.6-1.5,0.9
			c-0.8,0.6-1.5,1.4-2.5,1.6c-1.4,0.1-2.4-0.6-2.8-2c-0.5-1.7-1.4-2.7-3.3-2.6C124.6,111.5,124.4,111.2,124.3,110.6z"/>
		<path class="st60" d="M106.4,112.4c0.1-0.3,0.1-0.6,0.1-0.9c0.9-0.3,1.9-0.6,2.8-0.9c3.1,1.9,6.4,0.6,9.6,0.8c0.8,0,1.4,0.2,1.7,1
			c-2.9,2.5-6.5,0.6-9.6,1.6c-0.7,0.2-1.5,0.2-2.2,0C107.8,113.8,106.9,113.4,106.4,112.4z"/>
		<path class="st61" d="M129,113.5c0.4,1.5,1.4,2,2.9,1.8c0.5,1.7-0.7,2.7-1.7,3.7c-1.5,0.5-2.2-0.7-3.1-1.5
			c-0.2-0.4-0.2-0.8,0.1-1.1c0.3-1,0.6-1.9,0.9-2.9C128.4,113.1,128.7,113.1,129,113.5z"/>
		<path class="st62" d="M110.2,113.2c3.4-1.8,7-0.4,10.5-0.8c0.3,0.1,0.6,0.2,0.9,0.3c-0.1,1-0.8,1.4-1.7,1.7
			C116.6,114.5,113.2,115.7,110.2,113.2z"/>
		<path class="st63" d="M127.2,116.3c0,0.3,0,0.5,0,0.8c0.2,0.2,0.3,0.5,0.3,0.7c0,0.3-0.1,0.4-0.1,0.4c-0.3,0.3-0.7,0.4-1.2,0.5
			c-1.4-0.1-2.5-0.7-3.2-1.9c-0.1-0.4-0.1-0.8,0-1.3c0.3-0.6,0.7-1,1.4-1.2C126.3,113.6,125.8,116.3,127.2,116.3z"/>
		<path class="st64" d="M129,113.5c-0.3,0-0.6,0-0.9,0c-0.9-0.7-1.8-1.4-2.8-2.1C127.9,109.8,128.7,111.2,129,113.5z"/>
		<path class="st65" d="M124.3,114.3c-0.3,0.3-0.6,0.6-0.9,1c-1.3-0.1-2.7,0.1-2.8-1.7c0.3-0.3,0.6-0.6,1-0.9
			C122.5,113.3,123.4,113.8,124.3,114.3z"/>
		<path class="st17" d="M127.2,96.5c-3.9,4.8-4.5,4.8-6.6,0.9c2.9,2.9,3.7,0.2,4.7-1.8C126.1,95.7,126.8,95.8,127.2,96.5z"/>
		<path class="st66" d="M59.8,122.9c0.3,0,0.5,0,0.8-0.1c3.6,0.1,7.1-0.4,10.4-1.8c0.9,0,1.8,0,2.7-0.1c0,0.3,0.1,0.7,0.1,1
			c0,1.7-1.4,1.8-2.6,2.3c-2.9,0.4-5.9,0-8.7,0.7C60.9,125.2,59.6,125,59.8,122.9z"/>
		<path class="st67" d="M80.3,120c1.1,0.1,1.9-0.6,2.7-1.1c0.6-0.4,1.2-0.5,1.9-0.4c1.1,0.3,2.2,0.6,3,1.5c-1,3.1-4,2.2-6.1,3.3
			c-0.4,0.1-0.9,0.1-1.4,0c-0.7-0.2-1.1-0.7-1.3-1.4C79.6,121.2,79.9,120.6,80.3,120z"/>
		<path class="st68" d="M71.9,123.7c0.7-0.6,1.3-1.2,2-1.8c0.6,0,1.2,0,1.8,0c0.8,1.1,2.7,0.6,3.1,2.2c-0.1,0.5-0.4,0.8-0.8,0.9
			c-1.4-0.1-2.8,0.4-4.2-0.4c-0.6,0-1.3,0-1.9,0c-0.3-0.2-0.4-0.4-0.3-0.6C71.6,123.8,71.7,123.7,71.9,123.7z"/>
		<path class="st69" d="M78.4,123.7c-1.3,0-2.7,0.1-2.8-1.8c1.2,0,2.4-0.1,3.6-0.1c0.4,0.3,0.7,0.6,1.1,0.9
			C79.9,123.5,79.2,123.7,78.4,123.7z"/>
		<path class="st70" d="M99.9,114.4c0.4,0,0.8-0.1,1.2-0.1c1.3-1.1,2.8-0.8,4.3-0.7c1.4,0.5,2.9,0.7,3.3,2.5
			c-0.7,1.1-1.8,1.4-2.9,1.8c-1.8,0.4-3.5,1-5.4,0.9c-0.9-0.2-1.7-0.6-2.3-1.3C97.4,115.7,99.2,115.3,99.9,114.4z"/>
		<path class="st71" d="M99.9,114.4c0.5,1.7-1.3,1.8-1.9,2.7c-1.2,2-3.1,2.3-5.2,2.3c-1.1-0.5-1.8-1.3-2.4-2.3
			c-0.1-0.5,0-0.9,0.3-1.2c1.7-1.2,3.6-1.6,5.6-1.5C97.5,114.4,98.7,114.4,99.9,114.4z"/>
		<path class="st72" d="M96.3,114.4c-1.8,0.9-3.6,1.7-5.6,1.9c-0.9,0-1.7-0.2-2.2-1.2c0.8-0.5,1.5-1,2.3-1.5
			c1.1-0.1,2.2-0.2,3.4-0.3C95,113.4,95.8,113.5,96.3,114.4z"/>
		<path class="st73" d="M105.7,114.5c-1.5-0.1-3.1-0.2-4.6-0.2c0-0.6-0.1-1.2-0.1-1.8c1.8,0,3.7-0.1,5.5-0.1c0.8,0.1,1.6,0.3,2,1.1
			C108.1,115.5,106.8,114.7,105.7,114.5z"/>
		<path class="st74" d="M140.3,105c-0.7,1.7-2.1,2-3.7,1.9c-0.9,0.9-2,1.3-3.2,1.3c-0.4-0.1-0.8-0.2-1-0.5c-0.4-0.5-0.5-1.1-0.5-1.7
			c-0.3-2.2,0.2-4.6-1.2-6.6c-0.4-0.6,0.6-0.8,1.2-0.9c1.7-1.1,2.4,0.3,3.2,1.3c0.1,0.2,0.2,0.5,0.3,0.8c0.5-0.8-0.4-1.1-0.6-1.7
			c-0.8-1.6-3.2-1.7-3.3-3.9c0.4-2.1,1.6-2,3.1-1.2c0.3,0.2,0.7,0.5,1,0.7c1.4,0.3,2.1,1.6,3.4,2.3c-0.1-1.1-1.4-2-0.5-3.2
			c0.4-1,3.3,0.1,1.9-2.3c1.8-0.1,3.7-0.1,5.5-0.2c0.7,1.2,2.2,1.9,2,3.6c1.6,1.6,3,1.8,3.7-0.8c0.4-0.3,0.8-0.5,1.2-0.4
			c1,0.5,1.4,1.1,0.6,2.1c-0.4,0.6-0.7,1.3-1.1,1.9c-0.2,0.7-0.8,1.2-1,1.8c1.7,1.5,2.7-0.2,3.8-1c1.5-3.1,3.7-1.6,5.7-0.7
			c0.5,0.4,1.1,0.6,1.5,1.2c1.7,2.9,4.7,0.7,6.9,1.7c0.3,0.4,0.7,0.7,1,1.1c0.6,0.8,0.7,2.3,0.1,2.4c-2.9,0.7-4,4.2-7.2,4.4
			c-0.8,0.1-1.7,0.3-2.5-0.4c-0.7-0.8-1.5-1.7-2.8-1.4c-1.1-0.2-2.3,0.1-3.4-0.6c-1.1-1.5-2.8-0.9-4.2-1c-2.7-0.3-4.8-1.3-4.4-4.6
			c0.1-0.8,0.1-1.6-0.8-2c-1.8-0.3-1.1,1-1.2,1.8c0.7,2.6-1.6,3.5-2.8,5l-0.5,0L140.3,105c-0.4-0.4-0.8-0.9-1.1-1.5
			C139.4,104,139.8,104.5,140.3,105z"/>
		<path class="st6" d="M138.3,93.8c0.6,1.8,4.3,3.3,2.2,4.6c-2.1,1.3-3.7-2.1-5-4c0.6-0.6,1.2-1.1,1.8-1.7
			C138,92.8,138.3,93.2,138.3,93.8z"/>
		<path class="st75" d="M138.3,93.8c-0.3-0.3-0.6-0.7-1-1c0.8-0.6,1.5-1.2,2.3-1.7c0.2,0,0.4,0.1,0.7,0.1c1.4,0.4,2.8,0.8,4.6,1.4
			C142.7,94.5,140.4,93.4,138.3,93.8z"/>
		<path class="st76" d="M134.6,93.7c-1.3,0-2.6-0.1-2.7,1.8c-0.3,0.3-0.6,0.3-0.9,0c0-0.7,0-1.5,0-2.2
			C132.2,92.8,133.7,91.3,134.6,93.7z"/>
		<path class="st77" d="M88.5,115.1c0.8,0.2,1.7,0.3,2.2,1.2c-0.1,0.2-0.2,0.4-0.3,0.7c-0.9,1.3-2.2,1.2-3.5,0.9
			c-0.7-0.4-1.3-0.8-1-1.8C86.6,115.3,87.5,115.1,88.5,115.1z"/>
		<path class="st78" d="M85.8,116.1c0.4,0.4,0.8,0.8,1.2,1.2c0,1.5-1,1.7-2.1,1.7c-0.6,0-1.3-0.1-1.9-0.1c-0.3-0.5-0.6-1-0.9-1.5
			C83.4,116.9,84.6,116.5,85.8,116.1z"/>
		<path class="st79" d="M131,95.5c0.3,0,0.6,0.1,0.9,0c1.2,1,3,1.2,3.8,2.7c0.4,1,0.8,2.1-1,2c-0.9-0.6-1.3-2-2.7-1.9
			c-0.7-0.6-1.4-1.2-2-1.8C130.2,96.2,130.6,95.9,131,95.5z"/>
		<path class="st80" d="M179.8,50.9c-2.3,5.2-5.2,10.1-8.4,14.8c-0.4,0-0.7-0.1-1.1-0.1c2.8-5,5.6-10,8.4-14.9
			c0.3-0.3,0.6-0.7,0.9-1C179.6,50,179.7,50.4,179.8,50.9z"/>
		<path class="st5" d="M166.5,70.2c-0.8-1.6-2-2.9-3.6-3.7c3,0.6,2.9-2.7,4.5-3.7c0.8,0,1.4,0.4,1.9,0.9
			C168.1,65.8,166.3,67.5,166.5,70.2z"/>
		<path class="st5" d="M169.3,63.7c-0.8,0-1.5-0.2-1.9-0.9c0.8-1.4,1.8-2.6,3.4-3.2C171.7,61.7,169,62.1,169.3,63.7z"/>
		<path class="st40" d="M152.5,93.7c-0.3,0-0.6,0-0.9,0c-0.2-1.3,0.2-2.5,0.9-3.6c0.6,0,1.2-0.1,1.8-0.1c1-0.9,2-1.9,2.9-2.8
			c1.8,0,1.5,5.1,4.6,1.9c0,0.9,0,1.9,0,2.8c-1,2.9-3.5,2.3-5.7,2.4C154.8,94.3,153.8,93,152.5,93.7z"/>
		<path class="st37" d="M155.3,93.8c2.5,0.6,4.5-0.8,6.5-1.9c0.6,0.7,1.2,1.3,1.8,2c-0.1,0.9,0.2,3.1-1.3,2
			c-2.4-1.7-4.8-0.7-7.2-1.2C155,94.3,155,94,155.3,93.8z"/>
		<path class="st81" d="M169.2,100.3c-1.8,0.3-3.6,0.9-5.5,1c-2.6,0.1-2.3-1.3-1.9-2.9c1.6-1.1,2.6,0.4,3.7,0.9c0.3,0,0.6,0,0.9,0
			C167.5,99.4,168.7,99.1,169.2,100.3z"/>
		<path class="st81" d="M155.2,98.2c-0.4,1.5-1.5,2.4-2.8,3c-0.7,0.3-1.4,0.8-2.1,0c-0.9-1-0.8-1.9,0.2-2.8c1,0.4,2,0.1,3,0.1
			C154.1,98.4,154.6,98.3,155.2,98.2z"/>
		<path class="st82" d="M153.5,98.5c-1,1.4-2.1,2.9-3-0.1c0.6-0.3,1.2-0.7,1.8-1C152.7,97.8,153.1,98.1,153.5,98.5z"/>
		<path class="st37" d="M165.6,99.3c-1.2-0.3-2.5-0.6-3.7-0.9c-0.3-0.3-0.6-0.6-0.9-0.9C162.7,97.5,164.6,97.2,165.6,99.3z"/>
		<path class="st39" d="M155.3,93.8c0,0.3-0.1,0.6-0.2,0.8c-0.6,0.3-1.2,0.6-1.8,0.9c0-0.7-0.2-1.4-0.9-1.7
			C153.4,92.5,154.4,92.5,155.3,93.8z"/>
		<path class="st83" d="M160.9,106.8c0.4,0.7,1.1,0.9,1.9,0.9c0.3,0.2,0.4,0.3,0.3,0.5c-0.1,0.2-0.2,0.2-0.3,0.2
			c-0.4,0.3-0.7,0.5-1.1,0.8c-0.2,0.1-0.4,0.1-0.6,0.2c-1.4,0.4-2.6,0-3.7-0.7c-2.6-1.7-5.9-0.2-8.5-1.8c0.3-0.4,0.5-0.8,0.8-1.2
			c1.9-2.1,3.7-1.9,5.6,0c1-0.4,2-0.5,2.9,0.1C159.3,105.4,160.1,106.1,160.9,106.8z"/>
		<path class="st81" d="M162.8,108.5c0-0.2,0-0.5,0-0.7c2.7-1.8,6.1-3,7.5-6.4c0.2,0,0.4,0,0.5,0.1
			C170.8,105.3,166.8,108.7,162.8,108.5z"/>
		<path class="st6" d="M147.8,94.5c-0.7-1.2-1.9-2.1-2-3.6c1.8,0.5,2.5,2.9,4.7,2.8C149.9,94.9,148.9,94.6,147.8,94.5z"/>
		<path class="st84" d="M171.1,116.3c3.1-0.5,5.5,2.1,8.6,1.7c1.5,0.4,3,0.8,4.1,2c0.3,0.7,0.2,1.4-0.2,2c-0.4,0.3-0.8,0.5-1.2,0.7
			c-0.9,0.2-1.9,0.1-2.8-0.1c-2.7-0.9-5.6-1.1-8.3-2.3c-0.9-0.6-1.7-1.2-2.6-1.7c-0.3-0.3-0.5-0.6-0.6-1c0.1-0.4,0.3-0.7,0.7-1
			C169.5,116.3,170.4,116.7,171.1,116.3z"/>
		<path class="st85" d="M183.3,120c-1.4-0.4-2.8-0.6-3.7-2c0-0.2,0-0.5,0.1-0.7c0.5,0,1,0.1,1.6,0.1c1.6,0.6,3.1,1.2,4.7,1.7
			C185.7,121.4,184.5,120.5,183.3,120z"/>
		<path class="st86" d="M171.1,116.3c-0.7,1.1-1.7,0.7-2.7,0.5c-1.7-0.8-1.4-1.6,0-2.3c0.3-0.1,0.6-0.1,1-0.2
			C169.6,115.3,170.3,115.9,171.1,116.3z"/>
		<path class="st87" d="M157.9,107.8c0.7,1.2,2.7,0,3.2,1.6c0,0.4-0.1,0.8-0.1,1.2c-0.6,2.2-2,0.6-3.1,0.6c-1.4-0.5-2.8-0.6-4.2-0.6
			c-1.3,0-2.5,0.1-3.7,0.5c-0.4,0.1-0.9,0.2-1.4,0.3c-1.4,0-3,0.3-3.7-1.6C148.8,106.6,153.3,106.9,157.9,107.8z"/>
		<path class="st88" d="M158.1,110.6c1-0.4,1.9,1.1,2.9,0.1c1.6,1.3,4,0.2,5.6,1.7c-1.3,0.3-2.7-0.4-3.7,0.9
			c-1.9,1.6-3.7,0.4-5.5-0.3C156.5,111.8,157.1,111.1,158.1,110.6z"/>
		<path class="st89" d="M157.1,112.5c1.9,0.3,3.8,0.5,5.7,0.8c0.6,0.4,1.2,0.9,1.7,1.3c0.2,1.4-0.9,1.7-1.8,2.1
			c-1.5,0.1-2.7-0.7-3.9-1.5c-0.7-0.5-1.3-0.9-1.8-1.5C156.9,113.2,156.9,112.8,157.1,112.5z"/>
		<path class="st90" d="M162.8,115.9c0.6-0.5,1.2-0.9,1.8-1.4c1.3,0,2.6,0,3.8,0c-0.5,0.8-0.8,1.6,0,2.3c0,0,0,0.4,0,0.4
			C166.1,118.6,164.2,118.3,162.8,115.9z"/>
		<path class="st47" d="M71.9,123.7c0,0.3,0,0.6,0,0.9c-4.6,1-9.2,1.1-13.9,0.9c-1.7-0.1-2-1-1.7-2.5c1.2-0.1,2.4-0.1,3.6-0.2
			c0.7,1.7,1.9,1.4,3.4,1.2C66,123.7,69,123.8,71.9,123.7z"/>
		<path class="st91" d="M78.4,123.7c0.6-0.3,1.3-0.7,1.9-1c0.3,0,0.6,0,0.9,0c4.3,0.6,8.5-2.4,12.9-0.4c0.5,0.4,0.6,0.8,0.5,1.4
			c-0.7,0.7-1.4,0.6-2.1,0.1c-2.9-0.5-5.3,2.8-8.4,0.9c-1.9,0.7-3.8,0.7-5.7,0C78.4,124.3,78.4,124,78.4,123.7z"/>
		<path class="st92" d="M108.4,124.7c-3.8,0-7.5,0-11.3,0c-0.3-0.5-0.2-1,0.3-1.4c2.5-1.3,5.2-0.6,7.8-0.8c1.5,0,3,0,4.6,0
			c0.5,0,1,0,1.5,0c2,0.1,3.9-0.1,5.9,0.3c0.5,0.1,0.9,0.3,1.4,0.6c0.4,0.4,0.5,0.8,0.1,1.3c-1.9,0-3.7,0-5.6,0.1
			C111.5,125.3,110,125.4,108.4,124.7z"/>
		<path class="st93" d="M128.3,127.4c-0.4-0.2-0.7-0.5-1.1-0.7c-1.4-0.7,0.2-1.3,0.1-2c0.4-0.4,0.8-0.8,1.3-1c2.6,0,5.6-1.6,7.2,1.9
			l-0.3-0.1c-1.7,1.8-4.3,0.7-6.1,2C129,127.8,128.6,127.7,128.3,127.4z"/>
		<path class="st94" d="M78.4,124.7c1.9,0,3.8,0,5.7,0c-3.4,1.5-6.9,1.5-10.3,0C75.3,124.7,76.8,124.7,78.4,124.7z"/>
		<path class="st95" d="M128,124.6c-0.2,0.1-0.5,0.1-0.7,0.1c-2.9,0-5.7-0.1-8.6-0.1c0-0.3,0.1-0.6,0.1-0.9c2-1.9,4.5-1.1,6.8-1.2
			c0.8,0.1,1.6,0.3,2.2,0.7C128.3,123.6,128.4,124,128,124.6z"/>
		<path class="st96" d="M97.2,123.8c0,0.3,0,0.6,0,0.9c-1.8,1.1-3.5,1.3-4.8-0.9c0.7,0,1.3,0,2-0.1C95.3,123,96.3,122.9,97.2,123.8z
			"/>
		<path class="st94" d="M108.4,124.7c1.6,0,3.1,0,4.7,0C111.5,126,110,126,108.4,124.7z"/>
		<path class="st97" d="M150.6,125.6c-1.2-0.3-2.5-0.6-3.7-0.9c0-0.3-0.1-0.6-0.1-0.8c3.6-2.6,7.8-0.9,11.7-1.4
			c2.4,0.1,4.8-0.1,7.2,0.3c1.8,0.5,3.7,1,5.5,0.3c1.4-0.3,2.8-0.4,4.2,0c0.7,0.3,1.2,0.7,1.6,1.3c0.2,0.5,0.2,0.9-0.2,1.3
			C168.1,125.6,159.3,125.6,150.6,125.6z"/>
		<path class="st98" d="M159.1,123.7c-4.1,0-8.2,0.1-12.3,0.1c-0.9,0-1.8,0-2.7,0c-2.2,0.6-4.4,0.7-6.6,0c-0.3,0-0.7,0.1-1,0.1
			c-0.5,0.2-0.9,0-1.1-0.4c0-0.5,0.2-0.9,0.6-1.2c0.7-0.4,1.4-0.5,2.1-0.6c1-0.1,2-0.1,3.1-0.1c5.4,0.1,10.7-0.2,16.1,0.2
			c0.5,0.1,1.1,0.3,1.5,0.6C159.2,122.6,159.3,123.1,159.1,123.7z"/>
		<path class="st99" d="M129.1,127.3c1.4-3.3,4.3-1,6.5-1.7c0.2,0.3,0.2,0.6,0,0.9C133.5,128.1,131.5,129.4,129.1,127.3z"/>
		<path class="st100" d="M135.6,123.6c0.3,0.1,0.5,0.2,0.8,0.3c0.1,0.7,0.1,1.3-0.6,1.8c-2.4-2.1-5.3-0.5-7.8-1.1
			c0-0.3,0.1-0.5,0.2-0.8C130.6,121.8,133.1,122.1,135.6,123.6z"/>
		<path class="st101" d="M129.1,127.3c2.3,0.7,4.3-0.3,6.4-0.8c0.1,1.3-0.6,1.9-1.8,2.1c-1.6,0.4-3.1,0.6-4.7-0.1
			c-0.3-0.4-0.5-0.7-0.8-1.1C128.5,127.4,128.8,127.3,129.1,127.3z"/>
		<path class="st97" d="M137.4,123.7c2.2,0,4.4,0,6.6,0C141.9,125.1,139.6,125.2,137.4,123.7z"/>
		<path class="st46" d="M129,128.5c1.6,0,3.1,0.1,4.7,0.1C132.1,129.7,130.6,129.7,129,128.5z"/>
		<path class="st102" d="M201.2,125.6c0,0.3,0,0.6,0,0.8c-7.5-0.3-15.1,0.9-22.6-0.8c1.5-1.6,3.5-1.2,5.4-1.3c1.1,0,2.1,0,3.2,0
			c2.1-0.1,4.1,0.1,6.2,0C196,124.4,198.9,122.9,201.2,125.6z"/>
		<path class="st103" d="M184.4,125.5c-1.9,0-3.8,0.1-5.7,0.1c-0.6,0-1.2,0-1.8,0c0-0.3,0-0.6,0-0.9
			C179.6,123.1,182.2,122.1,184.4,125.5z"/>
		<path class="st104" d="M189,120.9c0.3,0,0.6,0,0.9,0c4.5,0,8.6,2.6,13.2,1.8c1.2,0.1,2.3,0.2,3.5,0.3c-0.3,2-0.4,2.2-2.3,2.1
			c-4.1-0.3-8.1-0.9-12.3-0.5c-1.7,0-3-0.5-3.5-2.3C188.5,121.7,188.7,121.3,189,120.9z"/>
		<path class="st51" d="M191.8,123.6c3.6,0.2,7.2-0.1,10.8,0.8c1.3,0.3,3.5,1.2,4-1.5c1.7,1.1,1.3,2.1-0.3,2.4
			c-1.6,0.3-3.4,0.2-5.1,0.2c-2.5-0.6-5-0.6-7.5,0C193.3,124.7,191.2,125.5,191.8,123.6z"/>
		<path class="st105" d="M189,120.9c0,0.3,0,0.7,0,1c-0.3,0.3-0.6,0.5-1,0.6c-1.5,0.1-2.9-0.1-4.1-0.9c-0.2-0.5-0.3-1.1-0.5-1.6
			c0.9-0.2,2,0.3,2.6-0.8C187.1,119.4,188.3,119.8,189,120.9z"/>
		<path class="st74" d="M136.5,108.7c-2,1.7-4.3,1.3-6.6,0.9c0-0.6,0-1.2,0-1.9c0.9-0.8,1.9-0.7,2.8,0l0,0
			C134,108.4,135.5,107.4,136.5,108.7z"/>
		<path class="st106" d="M132.8,107.8c-0.9,0-1.9,0-2.8,0c-0.2-0.7-0.4-1.3-0.6-2c0.8,0,1.6,0.1,2.5,0.1
			C132.6,106.3,132.8,107,132.8,107.8z"/>
		<path class="st107" d="M155.2,105.8c-1.9-0.2-3.7-1.3-5.6,0c-2.6-1.9-5.6-1-8.4-0.8c0.5-1.9,2.6-3.3,1.9-5.6
			c0.9-0.4,1.8,0.4,2.7-0.2c0.4-0.1,0.7,0,1.1,0.2c-0.1,3.5,0.8,5.6,4.9,4.1C153.8,102.8,155,103.5,155.2,105.8z"/>
		<path class="st108" d="M157.9,107.8c-4.6-0.6-9,0.3-13,2.8c-0.2,0.2-0.3,0.3-0.5,0.5c-1,0.5-2.1,0.5-3.1-0.1
			c-0.2-0.2-0.4-0.5-0.3-0.7c0-0.3,0.1-0.4,0.2-0.4c0.7-0.3,1.3-0.5,2-0.8c1.5-1.7,4-0.9,5.6-2.2c0,0,0,0,0,0
			C151.9,106.6,155.1,105.7,157.9,107.8z"/>
		<path class="st109" d="M130.1,118.6c-0.2-1.5,1.4-2,1.7-3.3c0.4-0.8,0.8-1.7,1.8-2c1,0.7,1.3,1.9,1.4,3c-0.5,2.4-1.9,3.6-4.5,3.3
			C130.2,119.4,130,119.1,130.1,118.6z"/>
		<path class="st110" d="M134.6,112.7c0.3-0.1,0.6-0.1,1-0.2c1.4-0.7,2.9-1,4.5-1.2c0.4,0.3,0.7,0.6,0.8,1.1c0.2,0.7,0.1,1.4-0.2,2
			c-0.8,1.3-1.9,2-3.3,2.3c-0.5,0-0.9-0.2-1.2-0.5C137.9,114,134.5,114.2,134.6,112.7z"/>
		<path class="st111" d="M134.6,112.7c1.3,0.7,3.1,1.2,1.9,3.4c-0.1,0.3-0.4,0.6-0.8,0.7c-0.4,0-0.7-0.1-0.9-0.4
			c-1.3-0.7-1-1.9-1.1-3C133.8,112.8,134,112.5,134.6,112.7z"/>
		<path class="st112" d="M140.3,111.7c-1.6,0.4-3,1.3-4.7,0.8c1.8-1,3.3-2.7,5.6-2.6c0,0.3,0,0.6,0,0.8
			C141.4,111.4,141.1,111.8,140.3,111.7z"/>
		<path class="st113" d="M148.8,106.9c-1.3,2.1-3.7,1.4-5.6,2.2C144.4,106.7,146.6,106.8,148.8,106.9z"/>
		<path class="st114" d="M136.5,108.7c-1.3-0.1-2.8,0.4-3.7-0.9c1.2-0.6,2.4-1.1,3.8-0.9C136.5,107.5,136.5,108.1,136.5,108.7z"/>
		<path class="st115" d="M105.7,114.5c0.9-0.3,2.2,0.3,2.8-0.9c0.6-0.1,1.1-0.2,1.7-0.3c3.5,0.1,6.9,0.2,10.4,0.3
			c0.9,0.6,1.9,1.2,2.8,1.7c0,0.3,0,0.7,0,1c-0.6,0.5-1.2,0.6-1.9,0.5c-1.3-0.3-2.7-0.4-4.1-0.4c-2.3,0-4.7-0.1-7,0.4
			c-0.8,0-1.4-0.2-1.9-0.8C107.5,115.5,106.6,115,105.7,114.5z"/>
		<path class="st116" d="M127.2,118.1c0-0.3,0-0.7,0-1c1.4-0.4,1.7,1.6,3,1.5c0,0,0.1,0.2,0.1,0.2c0.2,0.4,0.3,0.8,0.3,1.3
			c-0.1,0.4-0.3,0.8-0.6,1.1c-0.7,0.3-1.3,0.2-1.9-0.1C127.2,120.2,126.5,119.3,127.2,118.1z"/>
		<path class="st117" d="M121.6,116.2c0.6,0.1,1.2,0.1,1.8,0.2c0.9,0.6,1.8,1.2,2.7,1.8c0,1.9-1.5,1.7-2.6,2c-1.5,0.1-3,0-4.5-0.3
			c-2.8-0.9-5.7-0.5-8.6-0.4c-0.5-0.1-0.9-0.3-1.3-0.7c-0.3-1.2,0.2-1.9,1.4-2.2c2.7-0.8,5.5-0.2,8.2-0.4
			C119.6,116.2,120.6,116.2,121.6,116.2z"/>
		<path class="st118" d="M123.4,119.1c0.9-0.2,2.1,0.2,2.6-1c0.4,0,0.7-0.1,1.1-0.1c0.3,0.9,0.6,1.9,0.9,2.8
			c-0.2,0.2-0.3,0.3-0.5,0.5C125.6,121.8,123.9,121.6,123.4,119.1z"/>
		<path class="st119" d="M94.4,122.8c-2.9-0.1-5.7,0.3-8.5,0.8c-1.5,0.3-3.4,0.7-4.6-0.9c1.9-1.8,4.7-1.1,6.7-2.7
			c1.2-1.7,2.7-2.2,4.6-1.2c1.8-0.6,3.6-1.2,5.5-1.8c0.7,0.3,1.4,0.6,2,0.9c0,0.7-0.4,1.1-0.9,1.5c-1.4,0.7-2.8,1.3-3.8,2.6
			C95,122.4,94.7,122.6,94.4,122.8z"/>
		<path class="st120" d="M92.5,118.8c-1.5,0.4-3.1,0.8-4.6,1.2c-1-0.2-2.3,0.2-3-1.1c0.7-0.6,1.4-1.2,2.1-1.7
			c1.1-0.1,2.2-0.2,3.3-0.2C91.4,117.2,92.4,117.5,92.5,118.8z"/>
		<path class="st121" d="M98.9,118.9c0.4-0.3,0.7-0.6,1.1-1c1.9-0.3,3.8-0.5,5.6-0.8c1.5,0,3.3-0.4,2.8,2.2
			c-1.7,1.4-3.8,1.7-5.9,1.8C101,120.9,99.1,121.3,98.9,118.9z"/>
		<path class="st122" d="M108.4,118.8c-0.9-0.5-1.9-1.1-2.8-1.6c0.6-1.3,1.9-0.8,2.8-1.1c0.6,0,1.2,0.1,1.8,0.1
			c0.2,0.2,0.3,0.4,0.2,0.6c-0.1,0.2-0.1,0.3-0.2,0.3c-0.3,0.6-0.7,1.2-1,1.7C109,119.2,108.7,119.2,108.4,118.8z"/>
		<path class="st123" d="M145.9,99.3c-0.3,0.7-0.4,1.8-0.9,2c-1.6,0.5-0.7-1.8-1.9-2c-0.8-0.7-1.2-1.6-0.4-2.3
			c1.1-0.9,2.3-0.7,3.2,0.4C146,98.1,146.6,98.7,145.9,99.3z"/>
		<path class="st124" d="M134.6,100.3c0.8-0.4,0.9-1.2,1-2c1.5,1.6,0.7,3.4,0.6,5.4C133.9,103.1,134.9,101.4,134.6,100.3z"/>
		<path class="st125" d="M140.3,105c-2-0.2-1.9-1.5-1.7-3C140,102.6,140.1,103.8,140.3,105C140.3,105,140.3,105,140.3,105z"/>
		<path class="st126" d="M160.9,106.8c-0.9-0.3-1.9-0.6-2.8-1C159.7,104.3,160.5,104.9,160.9,106.8z"/>
		<path class="st81" d="M157.1,100.2c-0.3-0.6-0.6-1-0.5-1.2c0.1-0.3,0.5-0.6,0.8-0.8c0.2,0.3,0.5,0.7,0.5,0.9
			C157.9,99.4,157.5,99.7,157.1,100.2z"/>
		<path class="st81" d="M145.9,99.3c-0.1-0.6-1-1.3,0-1.9c1.2,0.2,2.4,0.4,0.9,1.9C146.5,99.4,146.2,99.3,145.9,99.3z"/>
		<path class="st127" d="M159.1,123.7c0-0.3-0.1-0.6-0.1-0.8c1.4-1.6,3.4-1.1,5.1-1.6c1.7-0.1,3.4-0.2,5-0.9
			c3.5,1.1,7.1,1.6,10.7,1.4c0.8,0.1,1.7,0.1,2.5,0.2c0.7,0.3,1.5,0.6,1.1,1.7c-2.5,1-5,0.8-7.6,0.1c-1.6,0-3.1,0-4.7,0
			c-1.6,0.8-3.1,0.7-4.7,0C164,123.7,161.5,123.7,159.1,123.7z"/>
		<path class="st128" d="M162.8,115.9c1.9,0.4,3.7,0.9,5.6,1.3c0.1,0.2,0.2,0.4,0.3,0.7c-0.4,0.9-1.2,1.3-2.1,1.6
			c-1.4,0.1-2.7-0.2-4.1-0.3c-1.6-0.3-3.1-0.8-4.7-1.2c-1.5-0.7-3.5-0.3-4.7-1.8c-0.3-1.2,0.2-2,1.3-2.5c1.7-0.4,3.2,0.2,4.7,0.7
			C160.3,114.8,161.5,115.4,162.8,115.9z"/>
		<path class="st129" d="M179.8,121.8c-3.9,2-7.7,1-11.3-0.9c-0.4-0.3-0.5-0.8-0.5-1.3c0.8-1.4,1.8-1.3,3-0.6
			C174,119.9,176.9,120.9,179.8,121.8z"/>
		<path class="st130" d="M183.4,122.8c-0.3-0.3-0.7-0.6-1-0.8c0.5-0.1,1-0.2,1.4-0.3c1.5-1.4,2.8,0.3,4.3,0.3
			c1.1,2.5-0.8,2.4-2.3,2.6C184.7,124.3,183.9,123.7,183.4,122.8z"/>
		<path class="st131" d="M171,119c-1,0-2.1-0.1-2.7,1.1c-1.1,0.4-1.9,0.4-1.8-1.1c0.4-0.9,1.3-0.9,2.1-1.1
			C169.5,118.1,170.6,118,171,119z"/>
		<path class="st132" d="M157.1,112.5c0,0.3,0,0.6,0,0.9c-0.8,0.7-1.8,0.4-2.7,0.5c-0.7,0-1.4,0.2-2.1,0.2c-2.2-0.6-4.6-0.2-6.8-0.9
			c-0.4-0.2-0.7-0.5-1-0.9c-0.1-0.5,0.1-0.8,0.5-1.1c1.4-0.4,3.1,0.4,4.4-0.6l0,0c1.2-0.4,2.7,0.3,3.8-0.9c1.6,0.2,3.3-0.8,4.6,0.9
			C157.8,111.2,157.5,111.8,157.1,112.5z"/>
		<path class="st108" d="M153.4,109.7c-0.9,1.9-2.2,1.8-3.8,0.9C150.7,109.3,152.1,109.8,153.4,109.7z"/>
		<path class="st108" d="M149.6,110.6c-1.4,1.5-3.2,0.8-4.8,0.7c-0.2-0.2-0.3-0.4-0.2-0.5c0.1-0.1,0.2-0.2,0.3-0.2c0,0,0,0,0,0
			C146.5,110.6,148.1,110.6,149.6,110.6z"/>
		<path class="st133" d="M154.3,113.4c0.9,0,1.9,0,2.8,0c0.6,0.3,1.3,0.6,1.9,0.9c-1.6,0-3.1,0-4.7,0c-0.3-0.2-0.5-0.4-0.4-0.6
			C154.1,113.5,154.2,113.4,154.3,113.4z"/>
		<path class="st134" d="M94.4,122.8c0-0.3,0-0.7,0.1-1c1.4-0.4,2.9-0.5,4.4-0.4c2.2,0.5,4.5-0.2,6.6,1c0.3,0.2,0.4,0.5,0.4,0.8
			c0,0.3-0.1,0.4-0.1,0.4c-2.8,0.1-5.6,0.1-8.4,0.2c-0.9,0-1.9,0-2.8-0.1C94.4,123.4,94.4,123.1,94.4,122.8z"/>
		<path class="st135" d="M111.3,123.6c-0.3,0-0.6,0-0.9,0c-0.3-0.3-0.5-0.7-0.4-1.2c0.5-1.2,1.5-1.7,2.6-2.1c1.2-0.3,2.3-0.3,3.5,0
			c1.2,0.6,2.9,0.7,3,2.6c-0.4,0.3-0.8,0.5-1.3,0.4C115.5,123.4,113.3,122.9,111.3,123.6z"/>
		<path class="st118" d="M117.8,122.8c0.3,0,0.6,0,0.9,0c1-1,2.3-1.1,3.6-1.2c1.3,0,2.6,0.1,3.7,0.8c0.4,0.4,0.5,0.8,0.2,1.4
			c-2.5,0-5,0-7.5,0c-0.3-0.1-0.7-0.1-1-0.2c-0.3-0.2-0.4-0.4-0.3-0.6C117.6,122.9,117.7,122.8,117.8,122.8z"/>
		<path class="st136" d="M117.8,122.8c0,0.3,0,0.5,0,0.8c-2.2,0-4.3,0-6.5,0C113.3,122,115.6,123.1,117.8,122.8z"/>
		<path class="st137" d="M110.3,122.8c0,0.2,0,0.5,0,0.7c-1.6,0-3.2,0.1-4.7,0.1c0-0.3,0-0.5,0-0.8c0.5-0.6,1.2-0.9,2-1
			C108.6,121.7,109.6,122,110.3,122.8z"/>
		<path class="st138" d="M126.2,123.7c0-0.3,0-0.6,0-0.9c0.5-0.7,1.2-0.9,2-1c1,0,2-0.1,3-0.3c1.6,0,3.2-0.1,4.3,1.2
			c0,0.2,0,0.5,0,0.7c-2.5,0.1-4.9,0.1-7.4,0.2C127.5,123.8,126.9,123.7,126.2,123.7z"/>
		<path class="st139" d="M183.4,122.8c0.6,0.3,1.2,0.6,1.9,1c0.4,0.8,2.5,0,1.9,1.8c-0.9,0-1.8,0-2.7,0c-2.4-1.6-5-0.6-7.5-0.8
			c-0.3-0.3-0.6-0.6-1-0.9C178.4,123.3,181.1,124.7,183.4,122.8z"/>
		<path class="st139" d="M166.5,123.7c1.6,0,3.1,0,4.7,0C169.7,125.1,168.1,125.1,166.5,123.7z"/>
		<path class="st140" d="M158.1,122.8c-5.9,0-11.9,0-17.8,0c-0.1-2.8,2.1-2.8,4-3.1c3,0,6-0.1,9,0
			C155.4,119.9,157.9,119.5,158.1,122.8z"/>
		<path class="st141" d="M158.1,122.8c-1-2.1-2.9-1.9-4.7-1.9c-2-1.4-1.1-2.2,0.6-2.7c0.5-0.1,0.9-0.1,1.4-0.1c0.7,0,1.4,0.1,2,0.3
			c2.6,0.8,5.4,1,7.2,3.4c-1.6,1.8-3.8,0.7-5.7,1.1C158.7,122.8,158.4,122.8,158.1,122.8z"/>
		<path class="st142" d="M144,120.9c-1.6-0.1-3,0.2-3.7,1.9c-0.9,0-1.9,0-2.8-0.1c-0.5-0.6-0.6-1.3-0.3-2.1c1.1-1.6,2.9-1.9,4.6-2.5
			c2.1-0.4,4.1-0.5,6.2-0.1c0.8,0.2,1.6,0.5,1.7,1.3c0.1,1-0.9,1-1.6,1.1C146.7,120.6,145.3,120,144,120.9z"/>
		<path class="st143" d="M137.5,120.9c0,0.6,0,1.2,0,1.8c-0.6,0-1.3,0.1-1.9,0.1c-1.6-0.1-3.1-0.1-4.7-0.2c-0.6-0.5-0.6-1.1-0.3-1.8
			c1.8-1.4,3.8-0.6,5.7-0.7C136.8,120.3,137.2,120.6,137.5,120.9z"/>
		<path class="st103" d="M187.1,125.6c-0.6-0.6-1.2-1.2-1.9-1.8c1.3-0.1,2.7,0.1,2.8-1.8c0.3,0,0.6,0,0.9,0c0.6,1.2,1.5,1.7,2.8,1.7
			c0.6,0.6,1.3,1.3,1.9,1.9C191.5,125.6,189.3,125.6,187.1,125.6z"/>
		<path class="st144" d="M144.9,110.6c0,0.2-0.1,0.5-0.1,0.7c0,0,0,0.2,0,0.2c-1.1,2.3-2.7,2.3-4.6,1.1c0-0.3,0-0.5,0-0.8
			c0.3-0.3,0.7-0.7,1-1C142.5,110.7,143.7,110.6,144.9,110.6z"/>
		<path class="st145" d="M130,119.9c0.1-0.4,0.1-0.7,0.2-1.1c2.2,0.3,3.8-0.3,4.6-2.5c0.3-0.1,0.6-0.1,0.8,0
			C135.5,120.4,134.8,120.8,130,119.9z"/>
		<path class="st146" d="M154.3,113.4c0,0.3,0,0.6,0,0.9c-0.7,0.3-0.9,0.9-1,1.7c-0.5,0.6-1.1,0.3-1.7,0.1c-2.2-0.9-4.3-0.8-6.5,0
			c-1,0.4-2,0.8-3,1.1c-1.3,0.3-2.6,0.7-4,0.5c-0.7-0.3-1.2-0.7-0.8-1.6c0.5-1.3,1.9-1.3,2.8-1.9c1.6-1.1,3.4-1.4,5.3-1.2
			c2.4,0.1,4.9-0.2,7.3,0.3C153.3,113.3,153.8,113.3,154.3,113.4z"/>
		<path class="st147" d="M137.4,116.1c0.4,0.4,0.8,0.7,1.2,1.1c0.1,0.4,0.1,0.8-0.1,1.2c-0.6,0.9-1.3,1.6-2,2.5
			c-1.9,0.8-3.8,0-5.7,0c-0.3,0.3-0.6,0.3-0.9,0c0-0.3,0-0.7,0-1c2.9,0.4,5-0.5,5.6-3.6c0.3-0.1,0.6-0.2,0.9-0.3
			C136.8,116,137.1,116.1,137.4,116.1z"/>
		<path class="st112" d="M144.7,113.3c-1.5,0.3-3,0.6-4.5,0.9c0-0.5,0.1-1.1,0.1-1.6c1.6,0.1,3.2-0.3,4.6-1.1c0,0.3,0.1,0.5,0,0.8
			C145.6,112.7,145.5,113.1,144.7,113.3z"/>
		<path class="st148" d="M110.3,117.1c0-0.3,0-0.6,0-1c2.4-1.6,5-0.7,7.5-0.7c0.5,0.7,2.5-0.3,1.8,1.7
			C116.5,117.1,113.4,117.1,110.3,117.1z"/>
		<path class="st149" d="M119.5,117.1c-0.6-0.6-1.2-1.1-1.8-1.7c1.4-0.2,2.7-0.4,3.8,0.7C121.1,117,120.4,117.1,119.5,117.1z"/>
		<path class="st150" d="M130,120.9c0.3,0,0.6,0,0.9,0c0,0.6,0,1.2,0,1.8c-0.9,0-1.9,0-2.8,0c-0.6-0.6-0.6-1.2,0-1.8c0,0,0,0,0,0
			C128.7,120.9,129.3,120.9,130,120.9z"/>
		<path class="st151" d="M128.1,120.9c0,0.6,0,1.2,0,1.8c-0.6,0-1.2,0.1-1.8,0.1c-1.3,0-2.5-0.1-3.8-0.1c-2-1.5-4.5-0.9-6.6-1.9
			c-1.3,0-2.5,0-3.8,0c-1.5,0.8-3.3,0.7-4.7,1.8c-0.6,0-1.2,0-1.8,0c-2.5-0.4-5.1,0.8-7.5-0.8c0.8-2.6,3.3-0.8,4.7-1.9
			c1.9-0.4,3.7-0.9,5.6-1.3c0.3,0.2,0.6,0.2,0.9,0.1c0.3,0,0.6,0.1,0.9,0.1c2.9-0.7,5.7-0.6,8.6-0.1c1.5,0.1,3,0.1,4.5,0.2
			C124.7,120.5,126.3,121,128.1,120.9z"/>
		<path class="st152" d="M118.9,118.9c-2.9,0-5.8,0-8.6,0.1C113.1,117.6,116,117.5,118.9,118.9z"/>
		<path class="st153" d="M102.9,120.1c-1.6,0.6-3.1,1.3-4.7,1.9c-1.3,0.7-2.5,0.8-3.7-0.2c0.9-1.9,2.4-2.8,4.5-2.8
			C99.9,120.6,101.6,119.7,102.9,120.1z"/>
		<path class="st154" d="M164.7,121.8c-2.5-0.9-5-1.8-7.5-2.7c1.7-1.6,3.4-0.7,5.1,0c1.3,0.5,0-0.7,0.4-0.8c1.4-0.5,2.6,0.4,3.8,0.8
			c0.6,0.4,1.2,0.7,1.8,1.1c0,0.3,0.1,0.5,0.2,0.8C167.9,124.3,165.9,121.3,164.7,121.8z"/>
		<path class="st155" d="M142.3,116.4c0.9-0.4,1.8-0.8,2.7-1.2c2.5-0.5,5-0.8,7.5,0.2c0.3,0.2,0.6,0.4,1,0.6
			c1.5,0.6,3.5-0.4,4.8,1.1c-0.6,1.2-2.1,0.9-2.8,1.8c-0.3,0.1-0.7,0.1-1,0.2c-0.5-0.5-1.2-0.6-2-0.7c-2.5,0-4.9-0.3-7.4-0.3
			C143.9,118,142.4,118.3,142.3,116.4z"/>
		<path class="st156" d="M155.3,118.8c0.1-1.9,1.6-1.7,2.8-1.8c1.5,0.4,3,0.8,4.5,1.2c0.3,0.3,0.8,0.6,1,0.9
			c0.3,0.6-0.3,0.7-0.7,0.6c-1.9-0.5-3.8-1.3-5.9-0.7C156.5,119,155.9,118.9,155.3,118.8z"/>
		<path class="st157" d="M144.7,113.3c0.1-0.3,0.1-0.7,0.2-1c2.6,0.7,5.4-0.6,7.9,1C150.1,113.2,147.4,113.2,144.7,113.3z"/>
		<path class="st136" d="M115.9,120.9c2.3,0.3,5-1,6.6,1.9c-1.3,0-2.5,0-3.8,0C117.8,122.1,116.8,121.5,115.9,120.9z"/>
		<path class="st134" d="M107.4,122.7c1-2.1,2.9-1.8,4.7-1.8c-0.6,0.6-1.2,1.2-1.9,1.9C109.4,122.8,108.4,122.7,107.4,122.7z"/>
		<path class="st158" d="M153.4,118.1c0.3,0.3,0.6,0.6,0.9,0.9c-1.6,0-1.4,0.8-0.9,1.9c-3.1,0-6.3,0-9.4,0c1.1-1.4,2.8-0.5,4.1-1
			c1.6-0.6,0-0.7-0.3-0.9c-0.3-0.5-0.2-1,0.4-1.3C149.9,117.8,151.7,117.2,153.4,118.1z"/>
		<path class="st98" d="M136.6,120.9c-0.1-1.3-0.1-2.6,1.7-2.8c0.8,0,1.6-0.1,2.3,0.3c0.4,0.2,0.6,0.5,0.8,0.9
			c-1.3,0.6-2.6,1.1-3.9,1.7C137.2,120.9,136.9,120.9,136.6,120.9z"/>
		<path class="st98" d="M147.8,118.2c0,0.3,0,0.6-0.1,0.8c-2.1,0.1-4.2,0.1-6.4,0.2c0,0-0.2-0.3-0.2-0.3
			C143.1,116.5,145.5,117.6,147.8,118.2z"/>
		<path class="st159" d="M147.8,118.2c-2.3-0.1-4.6-0.6-6.7,0.7c-1.1,0.1-2.2,0.3-2.9-0.9c0.1-0.3,0.3-0.6,0.4-0.8
			c1.1-0.8,2.3-1,3.6-0.8c3.5,2.1,7.7-0.6,11.1,1.7C151.5,118.1,149.7,118.2,147.8,118.2z"/>
		<path class="st157" d="M152.4,115.4c-2.5-0.1-5-0.1-7.5-0.2C147.5,113.9,150,113.7,152.4,115.4z"/>
	</g>
</g>
<path class="st160" d="M146.8,134.4c1.2-0.2,2.5,0.2,3.7,0.5c1,0.2,1.9,0.4,2.7-0.5c0.5-0.5,0.9-0.3,1.2,0.2c1.2,1.8,1.7,3.8,2,5.8
	c0.1,0.4-0.1,0.9-0.5,1.1c-0.5,0.3-0.8-0.2-1.1-0.5c-1.6-1.4-3.2-2.7-5.4-3.3c-1.6-0.4-3.3,0.1-3.9,1.2c-0.7,1.3-0.3,2.4,0.8,3.3
	c2.1,1.8,4.6,2.9,6.8,4.6c2.1,1.7,4,3.5,4.9,6.2c1.6,4.7-1,8.9-5.8,9.9c-2.5,0.5-4.9,0.1-7.3-0.5c-1.1-0.3-2-0.3-2.8,0.6
	c-0.7,0.9-1.4,0.5-1.8-0.3c-1-1.9-1.4-3.9-1.6-6c0-0.5,0.2-0.9,0.6-1.1c0.5-0.2,0.9,0.1,1.3,0.5c1.6,1.8,3.6,3,6.1,3.5
	c1.9,0.3,3.9-0.1,4.6-1.4c0.7-1.2,0.4-3.5-0.7-4.9c-0.8-0.9-1.8-1.6-2.8-2.3c-1.9-1.2-3.8-2.4-5.6-3.7c-3.3-2.4-4.3-5.2-3.3-8.3
	C139.7,136.5,143.2,134.1,146.8,134.4z"/>
<path class="st160" d="M27.6,134.5c1.2-0.2,2.5,0.2,3.7,0.5c1,0.2,1.8,0.4,2.5-0.5c0.5-0.6,1-0.3,1.3,0.2c1.1,1.7,1.6,3.7,1.9,5.7
	c0.1,0.4-0.1,0.9-0.5,1.2c-0.6,0.4-0.9-0.2-1.2-0.5c-1.6-1.4-3.2-2.8-5.4-3.2c-1.4-0.3-2.8-0.2-3.7,1.1c-0.8,1.2-0.6,2.4,0.5,3.4
	c1.5,1.4,3.3,2.3,5,3.4c2.1,1.4,4.1,3,5.6,5c3.5,4.8,1.9,11.4-5,12.5c-2.5,0.4-4.7-0.1-7-0.6c-1-0.2-1.9-0.3-2.6,0.6
	c-0.8,1-1.5,0.5-1.9-0.3c-0.9-1.8-1.4-3.8-1.5-5.8c0-0.5,0.1-0.9,0.6-1.1c0.5-0.2,0.9,0,1.3,0.4c1.7,1.9,3.7,3.1,6.2,3.5
	c1.8,0.3,3.8-0.2,4.5-1.3c0.8-1.2,0.5-3.5-0.6-4.9c-0.8-1-1.8-1.6-2.8-2.3c-1.9-1.2-3.8-2.4-5.6-3.7c-3.3-2.4-4.4-5.2-3.4-8.3
	C20.4,136.8,23.7,134.2,27.6,134.5z"/>
<path class="st160" d="M90.9,152.3c0,2.3,0,4.6,0,6.9c0,1,0.2,1.8,1.3,2.2c0.5,0.2,0.9,0.4,0.8,1.1c-0.1,0.6-0.6,0.6-1.1,0.6
	c-2.4,0-4.7,0-7.1,0c-0.5,0-1,0-1.1-0.7c-0.1-0.6,0.3-0.9,0.8-1c1.1-0.3,1.3-1.1,1.3-2.2c0-4.5,0-9,0-13.5c0-1-0.1-1.6-1.2-2
	c-1.2-0.4-1-1.1,0-1.7c1.4-0.8,3-0.9,4.5-1.2c2.9-0.5,5.9-0.9,8.8,0.2c1.7,0.7,3.2,1.6,4,3.4c1.2,2.6,0.4,4.9-2.3,6.8
	c-2.1,1.4-2.1,1.4-0.9,3.7c1.4,2.6,3.4,4.7,5.9,6.3c0.4,0.3,1.1,0.5,0.9,1.2c-0.2,0.6-0.9,0.6-1.5,0.7c-3.4,0.6-5.8-0.7-7.6-3.7
	c-1.1-1.9-2.4-3.6-3.4-5.6c-0.6-1.3-0.4-2,1-2.6c2.8-1.2,3.6-3.1,2.9-5.9c-0.5-1.7-1.8-2.8-3.4-2.6c-1.8,0.2-2.4,1-2.4,3.2
	C90.9,148,90.9,150.2,90.9,152.3z"/>
<path class="st160" d="M208.3,152.3c0,2.2,0,4.4,0,6.6c0,1.1,0.2,2.1,1.4,2.5c0.5,0.2,0.9,0.5,0.7,1.1c-0.2,0.5-0.6,0.5-1.1,0.5
	c-2.4,0-4.7,0-7.1,0c-0.5,0-1,0-1.2-0.6c-0.1-0.6,0.2-0.9,0.7-1.1c1.1-0.3,1.3-1.1,1.3-2.1c0-4.5,0-9.1,0-13.6
	c0-0.9-0.2-1.5-1.1-1.9c-1.2-0.6-1.1-1.1,0-1.8c1.4-0.8,3-0.9,4.5-1.2c2.9-0.5,5.9-0.9,8.8,0.2c1.8,0.7,3.3,1.7,4,3.6
	c1,2.7,0.2,4.8-2.5,6.6c-1.9,1.3-1.9,1.3-0.9,3.4c1.4,2.7,3.4,4.8,5.9,6.4c0.4,0.3,1.2,0.5,1,1.2c-0.2,0.7-0.9,0.7-1.6,0.8
	c-3.5,0.6-5.8-0.8-7.6-3.8c-1.1-1.8-2.3-3.6-3.3-5.5c-0.7-1.4-0.4-2.1,1.1-2.7c2.7-1.1,3.6-3.4,2.7-6.1c-0.5-1.6-2-2.5-3.5-2.3
	c-1.7,0.2-2.3,1.1-2.3,3.1C208.3,147.9,208.3,150.1,208.3,152.3z"/>
<path class="st160" d="M60.1,151.8c0-5.7,2.5-9.7,7.3-11.1c7-2.2,14.6,1.5,14.9,10.4c0.1,3.9-0.7,7.6-4,10.1
	c-3.8,2.9-8,3.1-12.2,1.2C62.2,160.6,60.2,156.7,60.1,151.8z"/>
<path class="st160" d="M187.3,146.8c-1.5,4.3-3.1,8.2-4.1,12.2c-0.2,1-0.2,1.9,1,2.3c0.4,0.2,0.7,0.5,0.6,1c-0.1,0.5-0.5,0.6-1,0.6
	c-1.6,0-3.3,0-4.9,0c-0.3,0-0.7,0-0.8-0.3c-0.2-0.5,0-0.8,0.4-1c2.1-1.2,2.6-3.4,3.3-5.5c1.5-4.7,3-9.5,4.6-14.2
	c0.4-1.1,0.8-2,2.2-2c1.3,0,2.2,0.6,2.6,1.9c1.7,5,3.5,9.9,5.2,14.9c0.6,1.9,1.4,3.5,3.2,4.5c0.5,0.2,1,0.5,0.8,1.2
	c-0.2,0.6-0.8,0.5-1.3,0.5c-2.7,0-5.4,0-8,0c-0.5,0-1,0.1-1.2-0.6c-0.2-0.7,0.2-1,0.8-1.2c1-0.4,1.6-1,1-2.2
	c-0.6-1.1-0.1-3.1-2.4-2.7c-0.8,0.1-1.6,0-2.5,0c-0.7,0-1.1-0.4-1.2-1.1c-0.1-0.8,0.5-1,1.1-1.2c0.2-0.1,0.4,0,0.7,0
	c2.6-0.1,2.6-0.1,1.8-2.5C188.6,150.1,188,148.7,187.3,146.8z"/>
<path class="st160" d="M117.6,150.5c1.3-2.3,2.3-4.4,3.1-6.6c0.3-0.9,0.1-1.5-0.8-1.9c-0.5-0.2-0.9-0.5-0.7-1.1
	c0.2-0.5,0.6-0.6,1.1-0.6c1.9,0,3.8,0,5.7,0c0.5,0,0.9,0.1,1.1,0.5c0.2,0.5-0.3,0.6-0.6,0.8c-1.5,1-2.5,2.4-3.2,4.1
	c-0.5,1.4-1.1,2.8-1.9,4c-1.9,3.1-2.1,6.5-1.9,9.9c0,0.9,0.3,1.4,1.2,1.7c0.4,0.1,1,0.4,0.8,1c-0.2,0.6-0.7,0.6-1.2,0.6
	c-2.2,0-4.5,0-6.7,0c-0.5,0-1,0-1.2-0.6c-0.1-0.5,0.3-0.8,0.7-1c1.1-0.3,1.1-1.1,1.2-2c0.8-5-1.9-9-4-13.2c-0.9-1.7-1.9-3.3-3.6-4.3
	c-0.4-0.2-0.9-0.5-0.7-1.1c0.2-0.5,0.7-0.4,1.1-0.4c2.6,0,5.1,0,7.7,0c0.5,0,1,0,1.2,0.6c0.2,0.6-0.3,0.9-0.8,1
	c-1.1,0.3-1,1-0.7,1.8C115.4,146.1,116.4,148.2,117.6,150.5z"/>
<path class="st160" d="M46.7,142.9c-2-0.5-3.7-0.4-5,1.6c-0.3,0.5-0.8,1.2-1.6,0.7c-0.7-0.5-0.3-1.2,0-1.8c0.8-2.1,1.9-3.2,4.5-3
	c3.7,0.3,7.4,0.1,11.1,0.1c1.8,0,3.9,2.2,3.7,4c-0.1,0.6-0.5,1.2-1.2,0.6c-0.4-0.3-0.8-0.6-1.1-0.9c-1.3-1.4-2.8-1.6-4.5-1
	c-0.2,0.2-0.3,0.5-0.3,0.8c0,5.4,0,10.8,0,16.2c0.1,0.3,0.1,0.6,0.3,0.8c0.3,0.8,2,0.5,1.6,1.7c-0.4,1.2-1.6,0.5-2.4,0.6
	c-1.7,0.1-3.5,0-5.2,0c-0.6,0-1.3,0.2-1.5-0.6c-0.2-0.8,0.4-1,1-1.2c0.2-0.1,0.4-0.3,0.6-0.5c0.2-0.2,0.3-0.5,0.3-0.8
	c0-5.5,0.1-11,0-16.6C46.9,143.2,46.9,143.1,46.7,142.9z"/>
<path class="st160" d="M165.2,142.7c-2-0.5-3.7-0.4-5,1.6c-0.3,0.5-0.8,1.2-1.6,0.7c-0.7-0.5-0.3-1.2,0-1.8c0.8-2.1,1.9-3.2,4.5-3
	c3.7,0.3,7.4,0.1,11.1,0.1c1.8,0,3.9,2.2,3.7,4c-0.1,0.6-0.5,1.2-1.2,0.6c-0.4-0.3-0.8-0.6-1.1-0.9c-1.3-1.4-2.8-1.6-4.5-1
	c-0.2,0.2-0.3,0.5-0.3,0.8c0,5.4,0,10.8,0,16.2c0.1,0.3,0.1,0.6,0.3,0.8c0.3,0.8,2,0.5,1.6,1.7c-0.4,1.2-1.6,0.5-2.4,0.6
	c-1.7,0.1-3.5,0-5.2,0c-0.6,0-1.3,0.2-1.5-0.6c-0.2-0.8,0.4-1,1-1.2c0.2-0.1,0.4-0.3,0.6-0.5c0.2-0.2,0.3-0.5,0.3-0.8
	c0-5.5,0.1-11,0-16.6C165.4,143.1,165.3,142.9,165.2,142.7z"/>
<path class="st160" d="M229.9,142.7c-2-0.5-3.7-0.4-5,1.6c-0.3,0.5-0.8,1.2-1.6,0.7c-0.7-0.5-0.3-1.2,0-1.8c0.8-2.1,1.9-3.2,4.5-3
	c3.7,0.3,7.4,0.1,11.1,0.1c1.8,0,3.9,2.2,3.7,4c-0.1,0.6-0.4,1.2-1.2,0.6c-0.4-0.3-0.8-0.6-1.1-0.9c-1.3-1.4-2.8-1.6-4.5-1
	c-0.2,0.2-0.3,0.5-0.3,0.8c0,5.4,0,10.8,0,16.2c0.1,0.3,0.1,0.6,0.3,0.8c0.3,0.8,2,0.5,1.6,1.7c-0.4,1.2-1.6,0.5-2.4,0.6
	c-1.7,0.1-3.5,0-5.2,0c-0.6,0-1.3,0.2-1.5-0.6c-0.2-0.8,0.4-1,1-1.2c0.2-0.1,0.4-0.3,0.6-0.5c0.2-0.2,0.3-0.5,0.3-0.8
	c0-5.5,0.1-11,0-16.6C230.1,143.1,230,142.9,229.9,142.7z"/>
<path class="st161" d="M77.1,151.8c0,2-0.2,4-1.1,5.9c-0.9,1.9-2.4,3-4.6,3.1c-2.2,0.1-3.8-1-4.7-2.9c-1.9-4-1.8-8.2-0.1-12.2
	c0.9-2.1,2.6-3.1,5-3c2.2,0.2,3.6,1.4,4.5,3.3C76.9,147.8,77.1,149.8,77.1,151.8z"/>
</svg>
