<?xml version="1.0" encoding="utf-8"?>
<!-- Generator: Adobe Illustrator 21.1.0, SVG Export Plug-In . SVG Version: 6.00 Build 0)  -->
<svg version="1.1" id="Layer_1" xmlns="http://www.w3.org/2000/svg" xmlns:xlink="http://www.w3.org/1999/xlink" x="0px" y="0px"
	 viewBox="0 0 672 1018.8" style="enable-background:new 0 0 672 1018.8;" xml:space="preserve">
<style type="text/css">
	.st0{fill:#FFFFFF;}
	.st1{fill:none;stroke:#000000;stroke-miterlimit:10;}
</style>
<path d="M-204.7-145.2"/>
<g id="XMLID_1_">
	<g>
		<path d="M668.9,631.5c3.5,16.9,4,54.8,0.3,68.4c-6.2,22.5,0,55.7-16.3,72.9c-17.4,18.3-28.9,32.6-48.1,48.4
			c-17.4,14.4-26.9,37.9-45.8,48.1c-1.2,9.2-5.7,25.5-13.1,31.8c-14.1-18.6-30,17.3-42.8,26.1c-10.3,7.2-13.5,8.9-23.1,15.4
			c-15,10.2-11.5,8.8-31.6,15.4c-6.2,2-9,19.1-15.4,21.3c-8.7,3.1-19.4,11.7-29.1,14.5c-13.4,3.9-24.7,13.7-38.4,14.5
			c-29.4,1.8-82.7,19.1-104.3,4.3c-21.5-14.7-28.5-16.2-54.3-16.5c-9-0.1-25,3.3-33.3-0.3c-9.3-4-5.2-3.5-14-7.1
			c-8.9-3.6-25.6-8.3-34.2-14.9c-5-3.9-19.7-14-23.9-19.3c-10.5-13.1,4.6-18.2-14.5-17.1c-3.7-5.8-15-1.7-17.9-7.7
			c-2.9-5.9-15.4-13.5-18.8-19.7c-8.7-16.1-15.9-37.2-26.5-60.7c-12.2-27.1-18.3-38.5-23.1-64.1c-2.5-13.5,6.2-27,9-40.9
			c2.4-11.9,2.1-13.9,6.2-22.6c3.9-8.2-2.8-12.2-0.7-21c1.8-7.8,1.9-16.1,3.4-23.1c1.6-7.2,12.9-19,15.3-25.8
			c5.9-16.4,20.6,2.8,32.5-7.5c14.8-12.8-12.5-17.6-12-32.5c0.2-5.4,16.1-31.6,18.2-36.9c4.5-11.7,3.6-9.9,12.4-17.6
			c11.6-10.1,17.2-16.1,27.8-27.5c10.2-11,27-15.4,38.1-26.5c14.3-14.3,12.6-5.9,33.3-5.4c12.3,0.3,20.4-39,16.9-27.2
			c0.7-2.4,1.4-4.9,1.4-4.9c4-4.7,12.6-2.2,9.1-12c-1.8-5.3-8.1-1.6-11.9-5.2c-19-17.8,0,0-26.6-8.5c-21.2-6.8-43.6-51.3-73.5-62.4
			c-19.1-7.1-9.4-35.8-19.7-50.4c-8.3-11.8-27.1-40-13.7-47.8c10.9-6.4,22.2,11.9,27.3-1.7c2.2-5.9,3.9-20.6-0.9-25.6
			c-5.8-7.1-10.9-9.4-17.9-14.6c-8-31.9,71.8-89.7,85.4-107.7c14.6-19.2,12.2-13,21.1-30.9c11-22,38.4-30.8,60-37.2
			c12.9-3.8,23.5-5.3,32.5-13c11.4-9.7,11.5-16.6,25.7-20.8c10.1-3,20.2-3.3,30-7.2c7-2.7,14.9-8.5,21.5-10.7
			c22.8-7.7,35.5-6,57-5.5c8,0.2,17.2-5.9,24.5-4c8.6,2.3,12.6,15.2,18.9,20.3c11.8,9.5,26.6,5.6,38.8,12.3c3.2,1.8,6.9,9,11.3,12.3
			c8.4,6.3,18.2,8,25,15c4.1,4.3,7,11.2,11.6,16.2c7.2,7.6,11,11.4,15.8,19.7c6,10.5,8.5,22.4,13.9,32.9c-19.7,18.9-3.3,14,3.2,33.7
			c4.9,14.7,0.9,42.8-0.1,58.1c-1.9,29.3-13.9,69.1-35.7,86.5c-8.3,6.6-17.4,3.3-20.8,14.7c-2.4,7.9,1.1,17.1-1.9,25.2
			c-7.3,20.1-15.5,24.8-30.3,32.7c-17.1,9.1-32.6,18-13.9,25.5c7.7,3.1,14.6-0.3,21.9,5c7.8,5.7,8,15.5,19.1,19
			c6.7,2.1,15.4-1.7,22.3-0.1c9.5,2.2,7.2,5.4,14.9,9c5.9,2.7,20.2,4.1,23.3,9.4c3.7,6.4-4,13.4-3.3,20.6c0.6,0.5,5.9,5,6.3,5.2
			c23.4,0.3,13.3,2.9,24.2,17c4.2,5.4,13.2,13.2,17.9,17.5c17.3,15.4,20,23.6,24.4,47.8c3,16.6-8.5,43.4,4.5,54.9
			C649.8,616,665.7,616.1,668.9,631.5z"/>
	</g>
	<g>
	</g>
</g>
<g id="XMLID_8_">
	<g>
		<path class="st0" d="M524,616.4c0,15.6,5.7,29.3,5.7,44.3c0,10.3-3.7,15-8.3,23.7c-5,9.5-31.5,101.2-9,96c1,6.7-1.2,20.1-6,25.1
			c-5.1,5.3-15.8,2.6-15.6,12.5c0.2,8.5,16.5,15,17.8,22.9c3.5,20.2-26.7,33.2-38,43.7c-7.1,6.6-16.6,9.4-23.9,15.7
			c-3.1,2.7-4.4,7.1-8.2,10.3c-6.3,5.3-14.5,8.6-22,11.9c-25.5,11-46.7-2.6-72.4-1.9c-1,5.5-3.2,10.5-6.7,14.4
			c-3.5,3.8-8.3-7-14.6-6.2c-9,1.2-19.7,12.9-28.1,8.8c-8.4-4-14.4-10.3-13.9-18.1c-40.4-12.5,7.8,1.1-22.3-9.7
			c-10.3-3.7-38.7,1-52.6-7.5c-13.8-8.5-43.2-40.8-53.2-44.8c-0.4-10.9-3.7-22.9-8.4-32.7c-1.8-3.7-4-1.3-5.4-7
			c-0.8-3.1-0.6-11.3,0.8-13.8c3.9-7.1,15.9-4.3,5.2-15c-6.7-6.7-16.5-1.5-16.2-14.6c0.3-18.1,31.5-48.5,9.5-63.5
			c-11.6-7.9,4.9-14.9,2.6-29.4c-1.6-9.9-26.1-34.1-24.6-44.9c2-14.6,13.1-27.1,18.1-42.1c4-12,0.2-22.2,9.8-31.1
			c8.8-8.1,22-14.6,33.6-17.1c14-3,23.1,0.6,35-8c11.3-8.2,26.3-15.3,36.9-25.1c8.9-8.2,5.2-12.1,10-22.6c2.2-4.8,9.6-19,11.4-25
			c6.3-7.1,18.6-4.1,27.1-5.7c4.6-0.9,7.6-1.9,12.5-3.5c3.8-1.2,9.6-5,12.7-5.7c18.8-4.4,39.3,5.6,51.2,18.4
			c6.3,6.7,4.9,14.9,10.4,22.3c4,5.4,11,12,16,16.7c14.1,13.2,36.7,8.8,54.5,8.8c23.5,0,35.4,8.1,51,25.3
			C525,563.1,524,589.1,524,616.4z"/>
	</g>
	<g>
	</g>
</g>
<g id="XMLID_5_">
	<g>
		<path d="M349.1,752.3c-1.2,10.1,12.3,26.7,9.6,35.9c-4.3,14.7-0.3,0.8-2.4,17.2c-0.3,9.1-2.8,9.2,2.4,23.7
			c4.2,11.7-47.6,56.2-48.8,56.1c-0.2,0-1.2,0.1-1.9-0.4c-8.2-5.5-48.9-41.8-47-51.6c0.8-4.2,5.5-24.5,3.9-24.9
			c-0.5-4.9,2.2-12.4,4.3-16.7c3.8-7.6,9.3-5.5,10.6-17c-2.8-0.2-0.4-4.6-3.8-4.7c2.3-11.9,0.2-24.1,4.4-36.2
			c2-5.9,8.6-10.6,10.4-15.3c2.7-7.2-17.5-9.2-7.6-13.6c-5.6,0.9,3.4-3.3-2.9-4.1c-1.6-18.5,6.3-46.7,12.6-64.1
			c6.2-17.1,13.6-34.7,16.4-53.6c0.5-3.8,8.7-18.1,7.9-22.3c4,1,19.2,2.9,21.1,5.5c5.7,7.6,3.6,20.7,3.3,30.4
			c-0.3,9.4,1.4,11.2-2.1,19.7c-3.5,8.3-12.3,6.6-9.6,17.7c22.4-1.1,9.8,23.2,12.4,32.4c1.5-0.1,2.9,0.2,4.2,1
			c7.7,14.6,8.3,26.8,7.5,43.8c-0.3,6.8,1.1,14.3,0.9,20.5C354.6,740.2,349.9,746.2,349.1,752.3z"/>
	</g>
	<g>
	</g>
</g>
<g id="XMLID_4_">
	<g>
		<path class="st0" d="M464.4,274.5c-1.5,4.3,1.6,3.8,0.1,6.5c-0.9,1.7-8.7,29.7-9.8,31.2c-3,4.2-12.1,6.5-17.1,9.8
			c-1,0.7-6.8-3.4-7.7-2.7c-3.6,2.8,0.9-0.1-3.6,2.8c-5.8,3.6-6.4,7.3-9.3,12.1c-3.2,5.3-6.9,11.8-13,15.4c-5.1,3-4.1,6.3-8.7,11.3
			c-3.8,4.2-5.2,5.3-8.7,9.3c-3,3.5-10.5,10.3-14.8,12.1c-8.4,3.5-9.9,6.5-18.3,9c-13.6,4-27.2,13.9-40.8,13.2
			c-17-1-33.9-9.9-47-20.1c-8.2-6.4-14.3-13.9-22.5-21.4c-8.3-7.6-16.8-25.8-24.5-30.6c-5,1.9-3,3-8.1,3.4
			c-3-6.2-13.9-6.6-16.6-13.7c-3.3-8.9-5.4-17.3-11.2-26c-3.8-5.8-1.4-12.6,1.8-16.7c3.4-2.9,6-8,10.2-8.9c2.4-0.5,6,0.8,9.3,1.4
			c2.2,0.4,4.3,0.5,5.7-0.5c2.2-1.7,3.4-3.1,4-4.4c1.5-3.5-1.7-6.2-2.3-11.6c-0.9-9.1,0.4-25.7,1.3-34.9c0.8-8.1,2.5-15.7,0.8-22.8
			c-0.5-2.1,1.8-5,4.4-7.9c1.8-2,3.7-3.9,5.1-5.5c1.4-1.7,2.2-3.1,1.5-3.9c3.8-3.3,6.8-15.7,12.2-17.9c5.3-2.2,6-12.7,11-15
			c9.9-4.6,10.5-7,9.5-19.3c-0.8-9.7-13.6-10.8-2.3-18.6c7.8-5.3,23.6-3.2,33-3.1c15.4,0.2,31,0.9,46.1,3.5c15.4,2.6,28,9.7,42.7,16
			c8.5,3.7,24.2,17.1,26.6,27.3c2.5,10.7-9.4,11.7,2,20.5c3.5,2.7,5.3,0.4,9.1,4.6c3.1,3.4,2.8,5.5,3.7,9.7c1.4,6.3,0.1,13,2,18.8
			c2.5,7.9,7.6,10.5,12.3,16.8c4.5,5.9-2.4,25.5-2.4,34.8c0,2.5,2.8,1.4,4.1,2.1c-0.2,0.6-0.2,0.8,0.4,0.3c-0.1-0.1-0.2-0.2-0.4-0.3
			c0.3-0.7,1.1-1.9,2.1-3.2c1.5-1.9,3.6-4.1,5.5-4.9c4.3-1.7,10.9-0.4,10.2,2.3c1.6,1.5,0,0,1.8,0.5c2.5,0.8,7,4.3,7.7,6.4
			C462,263,465.9,270.2,464.4,274.5z"/>
		<path class="st0" d="M434.2,260.2c0.1,0.1,0.3,0.2,0.4,0.3C434,261,434,260.8,434.2,260.2z"/>
	</g>
	<g>
		<path class="st1" d="M434.2,260.2c-1.3-0.7-4.1,0.4-4.1-2.1c0-9.3,6.9-28.8,2.4-34.8c-4.8-6.3-9.8-8.8-12.3-16.8
			c-1.9-5.8-0.6-12.6-2-18.8c-0.9-4.1-0.6-6.2-3.7-9.7c-3.8-4.2-5.6-1.9-9.1-4.6c-11.4-8.8,0.5-9.8-2-20.5
			c-2.4-10.2-18.1-23.6-26.6-27.3c-14.6-6.3-27.3-13.4-42.7-16c-15.1-2.5-30.7-3.3-46.1-3.5c-9.4-0.1-25.2-2.2-33,3.1
			c-11.3,7.8,1.4,8.9,2.3,18.6c1.1,12.3,0.5,14.7-9.5,19.3c-5,2.3-5.7,12.8-11,15c-5.4,2.2-8.4,14.6-12.2,17.9"/>
		<path class="st1" d="M434.2,260.2c-0.2,0.6-0.2,0.8,0.4,0.3C434.4,260.4,434.3,260.3,434.2,260.2z"/>
		<path class="st1" d="M184.7,279.2c-3.2,4.1-5.7,10.9-1.8,16.7c5.8,8.8,7.9,17.2,11.2,26c2.6,7.1,13.6,7.6,16.6,13.7
			c5.1-0.4,3.1-1.5,8.1-3.4c7.7,4.8,16.3,23.1,24.5,30.6c8.2,7.5,14.3,15,22.5,21.4c13.1,10.2,30,19.2,47,20.1
			c13.6,0.8,27.2-9.2,40.8-13.2c8.4-2.4,9.9-5.5,18.3-9c4.4-1.8,11.8-8.6,14.8-12.1c3.4-4,4.9-5.1,8.7-9.3c4.6-5,3.6-8.3,8.7-11.3
			c6.1-3.6,9.8-10.2,13-15.4c2.9-4.8,3.5-8.5,9.3-12.1c4.5-2.8,0,0,3.6-2.8c0.9-0.7,6.7,3.4,7.7,2.7c5-3.3,14.1-5.6,17.1-9.8
			c1.1-1.5,8.9-29.5,9.8-31.2c1.5-2.8-1.6-2.3-0.1-6.5c1.5-4.2-2.4-11.5-2.9-13.1c-0.7-2.1-5.1-5.6-7.7-6.4c-1.8-0.5-0.2,1-1.8-0.5
			c0.6-2.7-6-4-10.2-2.3c-2,0.8-4,2.9-5.5,4.9c-1,1.3-1.8,2.5-2.1,3.2"/>
		<path class="st1" d="M184.7,279.2C182.1,281.5,185.8,277.8,184.7,279.2L184.7,279.2z"/>
		<path class="st1" d="M224.6,180.2c0.7,0.8-0.1,2.2-1.5,3.9c-1.3,1.6-3.3,3.6-5.1,5.5c-2.6,2.9-4.9,5.8-4.4,7.9
			c1.6,7.1-0.1,14.7-0.8,22.8c-0.9,9.2-2.2,25.8-1.3,34.9c0.5,5.4,3.8,8,2.3,11.6c-0.6,1.3-1.8,2.7-4,4.4c-1.4,1.1-3.4,1-5.7,0.5
			c-3.2-0.6-6.8-1.9-9.3-1.4c-4.1,0.9-6.8,6-10.2,8.9"/>
	</g>
</g>
<g id="XMLID_3_">
	<g>
		<path d="M349,487.4c2.8,11.7-7.6,19.7-15.3,25.4c15.2,11.8-0.6,25.9-15.1,20.9c-17-5.9-14.2-17.1-20.5-31.2l-1.7-1.7
			C308.3,483.5,325.5,486.3,349,487.4z"/>
	</g>
	<g>
	</g>
</g>
<path d="M-204.7-145.2"/>
<g id="XMLID_10_">
	<g>
		<path d="M668.9,631.5c3.5,16.9,4,54.8,0.3,68.4c-6.2,22.5,0,55.7-16.3,72.9c-17.4,18.3-28.9,32.6-48.1,48.4
			c-17.4,14.4-26.9,37.9-45.8,48.1c-1.2,9.2-5.7,25.5-13.1,31.8c-14.1-18.6-30,17.3-42.8,26.1c-10.3,7.2-13.5,8.9-23.1,15.4
			c-15,10.2-11.5,8.8-31.6,15.4c-6.2,2-9,19.1-15.4,21.3c-8.7,3.1-19.4,11.7-29.1,14.5c-13.4,3.9-24.7,13.7-38.4,14.5
			c-29.4,1.8-82.7,19.1-104.3,4.3c-21.5-14.7-28.5-16.2-54.3-16.5c-9-0.1-25,3.3-33.3-0.3c-9.3-4-5.2-3.5-14-7.1
			c-8.9-3.6-25.6-8.3-34.2-14.9c-5-3.9-19.7-14-23.9-19.3c-10.5-13.1,4.6-18.2-14.5-17.1c-3.7-5.8-15-1.7-17.9-7.7
			c-2.9-5.9-15.4-13.5-18.8-19.7c-8.7-16.1-15.9-37.2-26.5-60.7c-12.2-27.1-18.3-38.5-23.1-64.1c-2.5-13.5,6.2-27,9-40.9
			c2.4-11.9,2.1-13.9,6.2-22.6c3.9-8.2-2.8-12.2-0.7-21c1.8-7.8,1.9-16.1,3.4-23.1c1.6-7.2,12.9-19,15.3-25.8
			c5.9-16.4,20.6,2.8,32.5-7.5c14.8-12.8-12.5-17.6-12-32.5c0.2-5.4,16.1-31.6,18.2-36.9c4.5-11.7,3.6-9.9,12.4-17.6
			c11.6-10.1,17.2-16.1,27.8-27.5c10.2-11,27-15.4,38.1-26.5c14.3-14.3,12.6-5.9,33.3-5.4c12.3,0.3,20.4-39,16.9-27.2
			c0.7-2.4,1.4-4.9,1.4-4.9c4-4.7,12.6-2.2,9.1-12c-1.8-5.3-8.1-1.6-11.9-5.2c-19-17.8,0,0-26.6-8.5c-21.2-6.8-43.6-51.3-73.5-62.4
			c-19.1-7.1-9.4-35.8-19.7-50.4c-8.3-11.8-27.1-40-13.7-47.8c10.9-6.4,22.2,11.9,27.3-1.7c2.2-5.9,3.9-20.6-0.9-25.6
			c-5.8-7.1-10.9-9.4-17.9-14.6c-8-31.9,71.8-89.7,85.4-107.7c14.6-19.2,12.2-13,21.1-30.9c11-22,38.4-30.8,60-37.2
			c12.9-3.8,23.5-5.3,32.5-13c11.4-9.7,11.5-16.6,25.7-20.8c10.1-3,20.2-3.3,30-7.2c7-2.7,14.9-8.5,21.5-10.7
			c22.8-7.7,35.5-6,57-5.5c8,0.2,17.2-5.9,24.5-4c8.6,2.3,12.6,15.2,18.9,20.3c11.8,9.5,26.6,5.6,38.8,12.3c3.2,1.8,6.9,9,11.3,12.3
			c8.4,6.3,18.2,8,25,15c4.1,4.3,7,11.2,11.6,16.2c7.2,7.6,11,11.4,15.8,19.7c6,10.5,8.5,22.4,13.9,32.9c-19.7,18.9-3.3,14,3.2,33.7
			c4.9,14.7,0.9,42.8-0.1,58.1c-1.9,29.3-13.9,69.1-35.7,86.5c-8.3,6.6-17.4,3.3-20.8,14.7c-2.4,7.9,1.1,17.1-1.9,25.2
			c-7.3,20.1-15.5,24.8-30.3,32.7c-17.1,9.1-32.6,18-13.9,25.5c7.7,3.1,14.6-0.3,21.9,5c7.8,5.7,8,15.5,19.1,19
			c6.7,2.1,15.4-1.7,22.3-0.1c9.5,2.2,7.2,5.4,14.9,9c5.9,2.7,20.2,4.1,23.3,9.4c3.7,6.4-4,13.4-3.3,20.6c0.6,0.5,5.9,5,6.3,5.2
			c23.4,0.3,13.3,2.9,24.2,17c4.2,5.4,13.2,13.2,17.9,17.5c17.3,15.4,20,23.6,24.4,47.8c3,16.6-8.5,43.4,4.5,54.9
			C649.8,616,665.7,616.1,668.9,631.5z"/>
	</g>
	<g>
	</g>
</g>
<g id="XMLID_9_">
	<g>
		<path class="st0" d="M524,616.4c0,15.6,5.7,29.3,5.7,44.3c0,10.3-3.7,15-8.3,23.7c-5,9.5-31.5,101.2-9,96c1,6.7-1.2,20.1-6,25.1
			c-5.1,5.3-15.8,2.6-15.6,12.5c0.2,8.5,16.5,15,17.8,22.9c3.5,20.2-26.7,33.2-38,43.7c-7.1,6.6-16.6,9.4-23.9,15.7
			c-3.1,2.7-4.4,7.1-8.2,10.3c-6.3,5.3-14.5,8.6-22,11.9c-25.5,11-46.7-2.6-72.4-1.9c-1,5.5-3.2,10.5-6.7,14.4
			c-3.5,3.8-8.3-7-14.6-6.2c-9,1.2-19.7,12.9-28.1,8.8c-8.4-4-14.4-10.3-13.9-18.1c-40.4-12.5,7.8,1.1-22.3-9.7
			c-10.3-3.7-38.7,1-52.6-7.5c-13.8-8.5-43.2-40.8-53.2-44.8c-0.4-10.9-3.7-22.9-8.4-32.7c-1.8-3.7-4-1.3-5.4-7
			c-0.8-3.1-0.6-11.3,0.8-13.8c3.9-7.1,15.9-4.3,5.2-15c-6.7-6.7-16.5-1.5-16.2-14.6c0.3-18.1,31.5-48.5,9.5-63.5
			c-11.6-7.9,4.9-14.9,2.6-29.4c-1.6-9.9-26.1-34.1-24.6-44.9c2-14.6,13.1-27.1,18.1-42.1c4-12,0.2-22.2,9.8-31.1
			c8.8-8.1,22-14.6,33.6-17.1c14-3,23.1,0.6,35-8c11.3-8.2,26.3-15.3,36.9-25.1c8.9-8.2,5.2-12.1,10-22.6c2.2-4.8,9.6-19,11.4-25
			c6.3-7.1,18.6-4.1,27.1-5.7c4.6-0.9,7.6-1.9,12.5-3.5c3.8-1.2,9.6-5,12.7-5.7c18.8-4.4,39.3,5.6,51.2,18.4
			c6.3,6.7,4.9,14.9,10.4,22.3c4,5.4,11,12,16,16.7c14.1,13.2,36.7,8.8,54.5,8.8c23.5,0,35.4,8.1,51,25.3
			C525,563.1,524,589.1,524,616.4z"/>
	</g>
	<g>
	</g>
</g>
<g id="XMLID_7_">
	<g>
		<path d="M349.1,752.3c-1.2,10.1,12.3,26.7,9.6,35.9c-4.3,14.7-0.3,0.8-2.4,17.2c-0.3,9.1-2.8,9.2,2.4,23.7
			c4.2,11.7-47.6,56.2-48.8,56.1c-0.2,0-1.2,0.1-1.9-0.4c-8.2-5.5-48.9-41.8-47-51.6c0.8-4.2,5.5-24.5,3.9-24.9
			c-0.5-4.9,2.2-12.4,4.3-16.7c3.8-7.6,9.3-5.5,10.6-17c-2.8-0.2-0.4-4.6-3.8-4.7c2.3-11.9,0.2-24.1,4.4-36.2
			c2-5.9,8.6-10.6,10.4-15.3c2.7-7.2-17.5-9.2-7.6-13.6c-5.6,0.9,3.4-3.3-2.9-4.1c-1.6-18.5,6.3-46.7,12.6-64.1
			c6.2-17.1,13.6-34.7,16.4-53.6c0.5-3.8,8.7-18.1,7.9-22.3c4,1,19.2,2.9,21.1,5.5c5.7,7.6,3.6,20.7,3.3,30.4
			c-0.3,9.4,1.4,11.2-2.1,19.7c-3.5,8.3-12.3,6.6-9.6,17.7c22.4-1.1,9.8,23.2,12.4,32.4c1.5-0.1,2.9,0.2,4.2,1
			c7.7,14.6,8.3,26.8,7.5,43.8c-0.3,6.8,1.1,14.3,0.9,20.5C354.6,740.2,349.9,746.2,349.1,752.3z"/>
	</g>
	<g>
	</g>
</g>
<g id="XMLID_6_">
	<g>
		<path class="st0" d="M464.4,274.5c-1.5,4.3,1.6,3.8,0.1,6.5c-0.9,1.7-8.7,29.7-9.8,31.2c-3,4.2-12.1,6.5-17.1,9.8
			c-1,0.7-6.8-3.4-7.7-2.7c-3.6,2.8,0.9-0.1-3.6,2.8c-5.8,3.6-6.4,7.3-9.3,12.1c-3.2,5.3-6.9,11.8-13,15.4c-5.1,3-4.1,6.3-8.7,11.3
			c-3.8,4.2-5.2,5.3-8.7,9.3c-3,3.5-10.5,10.3-14.8,12.1c-8.4,3.5-9.9,6.5-18.3,9c-13.6,4-27.2,13.9-40.8,13.2
			c-17-1-33.9-9.9-47-20.1c-8.2-6.4-14.3-13.9-22.5-21.4c-8.3-7.6-16.8-25.8-24.5-30.6c-5,1.9-3,3-8.1,3.4
			c-3-6.2-13.9-6.6-16.6-13.7c-3.3-8.9-5.4-17.3-11.2-26c-3.8-5.8-1.4-12.6,1.8-16.7c3.4-2.9,6-8,10.2-8.9c2.4-0.5,6,0.8,9.3,1.4
			c2.2,0.4,4.3,0.5,5.7-0.5c2.2-1.7,3.4-3.1,4-4.4c1.5-3.5-1.7-6.2-2.3-11.6c-0.9-9.1,0.4-25.7,1.3-34.9c0.8-8.1,2.5-15.7,0.8-22.8
			c-0.5-2.1,1.8-5,4.4-7.9c1.8-2,3.7-3.9,5.1-5.5c1.4-1.7,2.2-3.1,1.5-3.9c3.8-3.3,6.8-15.7,12.2-17.9c5.3-2.2,6-12.7,11-15
			c9.9-4.6,10.5-7,9.5-19.3c-0.8-9.7-13.6-10.8-2.3-18.6c7.8-5.3,23.6-3.2,33-3.1c15.4,0.2,31,0.9,46.1,3.5c15.4,2.6,28,9.7,42.7,16
			c8.5,3.7,24.2,17.1,26.6,27.3c2.5,10.7-9.4,11.7,2,20.5c3.5,2.7,5.3,0.4,9.1,4.6c3.1,3.4,2.8,5.5,3.7,9.7c1.4,6.3,0.1,13,2,18.8
			c2.5,7.9,7.6,10.5,12.3,16.8c4.5,5.9-2.4,25.5-2.4,34.8c0,2.5,2.8,1.4,4.1,2.1c-0.2,0.6-0.2,0.8,0.4,0.3c-0.1-0.1-0.2-0.2-0.4-0.3
			c0.3-0.7,1.1-1.9,2.1-3.2c1.5-1.9,3.6-4.1,5.5-4.9c4.3-1.7,10.9-0.4,10.2,2.3c1.6,1.5,0,0,1.8,0.5c2.5,0.8,7,4.3,7.7,6.4
			C462,263,465.9,270.2,464.4,274.5z"/>
		<path class="st0" d="M434.2,260.2c0.1,0.1,0.3,0.2,0.4,0.3C434,261,434,260.8,434.2,260.2z"/>
	</g>
	<g>
		<path class="st1" d="M434.2,260.2c-1.3-0.7-4.1,0.4-4.1-2.1c0-9.3,6.9-28.8,2.4-34.8c-4.8-6.3-9.8-8.8-12.3-16.8
			c-1.9-5.8-0.6-12.6-2-18.8c-0.9-4.1-0.6-6.2-3.7-9.7c-3.8-4.2-5.6-1.9-9.1-4.6c-11.4-8.8,0.5-9.8-2-20.5
			c-2.4-10.2-18.1-23.6-26.6-27.3c-14.6-6.3-27.3-13.4-42.7-16c-15.1-2.5-30.7-3.3-46.1-3.5c-9.4-0.1-25.2-2.2-33,3.1
			c-11.3,7.8,1.4,8.9,2.3,18.6c1.1,12.3,0.5,14.7-9.5,19.3c-5,2.3-5.7,12.8-11,15c-5.4,2.2-8.4,14.6-12.2,17.9"/>
		<path class="st1" d="M434.2,260.2c-0.2,0.6-0.2,0.8,0.4,0.3C434.4,260.4,434.3,260.3,434.2,260.2z"/>
		<path class="st1" d="M184.7,279.2c-3.2,4.1-5.7,10.9-1.8,16.7c5.8,8.8,7.9,17.2,11.2,26c2.6,7.1,13.6,7.6,16.6,13.7
			c5.1-0.4,3.1-1.5,8.1-3.4c7.7,4.8,16.3,23.1,24.5,30.6c8.2,7.5,14.3,15,22.5,21.4c13.1,10.2,30,19.2,47,20.1
			c13.6,0.8,27.2-9.2,40.8-13.2c8.4-2.4,9.9-5.5,18.3-9c4.4-1.8,11.8-8.6,14.8-12.1c3.4-4,4.9-5.1,8.7-9.3c4.6-5,3.6-8.3,8.7-11.3
			c6.1-3.6,9.8-10.2,13-15.4c2.9-4.8,3.5-8.5,9.3-12.1c4.5-2.8,0,0,3.6-2.8c0.9-0.7,6.7,3.4,7.7,2.7c5-3.3,14.1-5.6,17.1-9.8
			c1.1-1.5,8.9-29.5,9.8-31.2c1.5-2.8-1.6-2.3-0.1-6.5c1.5-4.2-2.4-11.5-2.9-13.1c-0.7-2.1-5.1-5.6-7.7-6.4c-1.8-0.5-0.2,1-1.8-0.5
			c0.6-2.7-6-4-10.2-2.3c-2,0.8-4,2.9-5.5,4.9c-1,1.3-1.8,2.5-2.1,3.2"/>
		<path class="st1" d="M184.7,279.2C182.1,281.5,185.8,277.8,184.7,279.2L184.7,279.2z"/>
		<path class="st1" d="M224.6,180.2c0.7,0.8-0.1,2.2-1.5,3.9c-1.3,1.6-3.3,3.6-5.1,5.5c-2.6,2.9-4.9,5.8-4.4,7.9
			c1.6,7.1-0.1,14.7-0.8,22.8c-0.9,9.2-2.2,25.8-1.3,34.9c0.5,5.4,3.8,8,2.3,11.6c-0.6,1.3-1.8,2.7-4,4.4c-1.4,1.1-3.4,1-5.7,0.5
			c-3.2-0.6-6.8-1.9-9.3-1.4c-4.1,0.9-6.8,6-10.2,8.9"/>
	</g>
</g>
<g id="XMLID_2_">
	<g>
		<path d="M349,487.4c2.8,11.7-7.6,19.7-15.3,25.4c15.2,11.8-0.6,25.9-15.1,20.9c-17-5.9-14.2-17.1-20.5-31.2l-1.7-1.7
			C308.3,483.5,325.5,486.3,349,487.4z"/>
	</g>
	<g>
	</g>
</g>
</svg>
