<?xml version="1.0" encoding="utf-8"?>
<!-- Generator: Adobe Illustrator 21.1.0, SVG Export Plug-In . SVG Version: 6.00 Build 0)  -->
<svg version="1.1" id="Layer_1" xmlns="http://www.w3.org/2000/svg" xmlns:xlink="http://www.w3.org/1999/xlink" x="0px" y="0px"
	 viewBox="0 0 4738.7 1835.4" style="enable-background:new 0 0 4738.7 1835.4;" xml:space="preserve">
<style type="text/css">
	.st0{fill:#010101;}
	.st1{fill:#FFFFFF;}
	.st2{font-family:'Papyrus';}
	.st3{font-size:427.2103px;}
	.st4{font-size:921.0654px;}
	.st5{fill:none;stroke:#010101;stroke-miterlimit:10;}
</style>
<path class="st0" d="M110.5,168.3"/>
<rect x="1238.3" y="135.3" class="st1" width="2703.4" height="1467.4"/>
<text transform="matrix(1 0 0 1 1421.1638 594.9327)" class="st0 st2 st3">The Eight Dollar</text>
<text transform="matrix(1 0 0 1 1383.5706 1345.1154)" class="st0 st2 st4">Tie Guy</text>
<g id="oNkC4U_2_">
	<g>
		<path class="st0" d="M210.7,136.4l36.5-14.9l60,34.4l18.3-3.3l-11.6-11.7c8.4-8.3,15.6-13.6,21.7-15.8c6.1-2.2,15.9-3.3,29.2-3.3
			l191.9,0.5l30.9,5.1l0,10.8l16.6,16.7c5-8.9,14.7-13.3,29.2-13.3c7.8-14.5,15.4-22.5,22.6-24.1l64.2,0.2l97.7-6.4l25.8,10.1
			l16.7,3.4l24.3-18.3l19.2,1.7l21.7,3.4l19.2,6.7l18.3,5c19.5-14.4,31.5-21.6,35.9-21.6l112.8,14.4l63.2,29.9l-1.7,6.4l-1.9,77.4
			c-16.7,0-28.1-5.1-34.2-15.1l-10-19.2c-3.9-7.8-11.4-11.7-22.5-11.7c-2.8,0-12.6,1.1-29.2,3.3l-1.7,10c10,10,15.8,21.5,17.5,34.2
			l-13.2,17.7l-157.8-26.4l-49.2,1.5l-41.7-21l-18.3,0c-21.2,18.3-36.5,27.4-46,27.4l-5,0l-20.8-11.7l-1.7,0l-70.1,8.2l-10,3.3
			l-10.9-1.7l-25-8.4l-35.9,8.3l-30.9-3.4l-20.3-5.8l-58,6.5l-80-22.2l-40,11.7l-68.2,29.9L232.4,305 M185.7,234.4l-56.4-17.1"/>
	</g>
	<g>
		<path class="st0" d="M153.6,1411l88.3-43.7l35.6,36.2l59,23l68-15.5l77,9.7l45.9,6.6l5,15.9l21.5-10.1c-2.2-6.7,10-5.3,14.4-14.2
			l135.2-1.8c0,0,43.1,30.1,54.3,22.1c11.1-8.1,18.6-17.7,22.5-28.8l140.2,18.2c0,7.2,48.4-23.4,56.7-23.4l33.4-0.2l24-12.1
			c15.6,4.4,38.8-54.9,51-54.9c28.9,0,36.8,87.1,45.1,80.4l27.5-19.2l8.9,50.1l-13.7,31.9l-18.8,1.7c0,0-20.2,22.8-32.5,22.8
			l-63.1,23.8l-135.2,5.1l-50.1-6.6l-39.2,5.1l-57.6-3.3l-58.4,8.4l-24.2,3.4l-32.5,0l-42.6-1.6l-27.5,0l-30,1.7l-10.8,0l-25.1-10
			l-22.5-3.3l-17.5,1.7l-52.6,13.4l-102.6-6.6c-34.5-1.7-62.3-5.5-83.5-11.6l-6.7-24.2l-9.2-1.6l-35-2.8l-14.5-25.3"/>
	</g>
</g>
<g>
	<path class="st0" d="M1156.3,143.2l17.1,9.1l14.5,22.8c0,11.7,2.2,7.3,0,11.7l-10.3,46.6l-2.5,17.5c11.7,1.1,18.6,3.1,20.9,5.8
		c2.2,2.8,3.3,10.3,3.3,22.5l1.7,19.2c0,8.9-6.7,18.1-20,27.5v20l-1.7,17.5v6.7l15,24.2l-5,158.5l-1.7,114.3l-22.5,45.1l12.5,62.6
		l-17.5,41.7c1.1,3.4,6.1,9.5,15,18.4l14.2,15.8l5,269.5l-19.2,24.2c1.7,8.9,2.8,16.3,3.3,22.1c0.5,5.8,0.8,9.9,0.8,12.1
		c0,12.2-3.1,30.9-9.2,55.9l9.2,17.5l3.8,31.9l5.7,36.5l-18.2,35.9l1.1,30.8l0.6,17.1c-1.1,6.7-2.3,23.1-5.1,39.3l-6.8,12.5
		l-10.3,4.6l-82.5-29.2l4.2-112.6c0-23.9,6.1-47.3,18.4-70.1l-10-25.9c-9.5-18.3-14.2-28.6-14.2-30.9c0-7.8,6.9-24.2,20.9-49.2
		c5.6-9.5,8.3-18.1,8.3-25.9c0-10-8.4-17.5-25-22.5l3.3-13.3l-7.5-3.3v-11.7V1052l14.2-57.6V850.9l16.7-66.8
		c-1.1-7.2-7.8-17-20-29.2l1.7-39.2l-5-151c0-11.1,7.2-29.7,21.7-55.9l12.5-22.5c-20.6-8.9-30.9-17.2-30.9-25c0-5,2.2-15.9,6.7-32.5
		l-19.2-14.2l-1.7-34.2l-1.7-39.2v-6.7l14.2-42.6l-40.5-64.7l27.9-24.6l-11.9-86.5L1156.3,143.2z"/>
</g>
<g>
	<path class="st0" d="M195.9,1521.7c-5.6-11.1-46.7-29.2-46.7-37.6L112,1384l9.2-78.4l-1.7-37.6c-1.7-28.9-5.3-51.2-10.8-66.8
		l-5-85.1l49.5-95.6c4.6-4.8,52-4.5,65.4,8.1c12.3,11.6-9.8,16.9,2.1,31.2c15.8,18.9,3.8,48.3,3.8,48.3l21,31.4l-15,53.4l10,61.7
		l1.7,25c-17.2,2.8-25.9,12-25.9,27.5c0,8.4,2.2,15,6.7,20c4.4,5,12,9.7,22.5,14.2l-5,35.9l-13.4,10v43.4l3.3,25
		c0,1.7-0.2,2.9-0.4,3.7c-0.3,0.9-0.7,1.8-1.2,2.9l-7.5,53.4"/>
</g>
<g>
	<path class="st0" d="M242.2,125.3l-1.7,16.7L223,162.9l-1.7,11.7v11.7l14.2,17.5c6.7,7.2,10.5,12.8,11.7,16.7
		c1.1,3.9,1.7,11.4,1.7,22.5l-1.7,42.6l-3.3,30.9l5,37.6c-14.5,14.5-46.5,53.6-72.6,64.7c-26.1,11.1-57.6-115.6-57.6-115.6
		c-7.8-18.9,26-146.5,26-146.5"/>
</g>
<g>
	<path class="st0" d="M122.3,1389.7l21.8-21.8l39.8-27c26.5-19.5,42.6-29.3,48.1-29.3c2.5,0,5.1,1.6,7.9,4.9
		c2.8,3.2,4.1,6.6,4.1,10.1c0,11.5-3,20.3-9,26.3l-77.3,73.6 M113.9,1053.1c9.5-21,5.4-40.3,6.9-58.3l4.5-74.3l14.3-25.5
		c0-1,0.1-2,0.4-3c0.3-1,0.6-2.3,1.1-3.8c0-6.5-6.3-13.5-18.8-21l3-23.3V698.1l3-117.1l-10.5-49.6v-25.5l-3-51.1
		c2.5-7.5,18.3-22.3,47.3-44.3l37.5-29.3c6-6.5,13.5-9.8,22.5-9.8c6.5,0,12.3,2,17.3,6c5,4,7.5,8.3,7.5,12.8c0,13-4,28.3-12,45.8
		l-6,21.8l7.5,7.5l-11.3,126.2l-4.5,12.8l-19.5,3v24c0,15.5,1.3,27,3.8,34.5c2.5,7.5,8.8,17.5,18.8,30l-1.5,24.8v4.5l1.5,12.8
		c0,16.5-3,31.3-9,44.3l10.5,12.8l-1.5,41.3c-7,4-10.5,8.5-10.5,13.5l1.5,12.8l21.8,3v22.5l-1.5,20.3v30.8c0,13.5,1.4,23.5,4.1,30
		c2.8,6.5-3.1,17,6.4,24.5c-6.5,17.5-9.3,29.3-32.3,42.3l-72.1,41.3C127.6,1075.8,124.9,1067.6,113.9,1053.1z"/>
</g>
<g id="XMLID_1_">
	<g>
		<path class="st0" d="M984.1,945c3.5,16.9,4,54.8,0.3,68.4c-6.2,22.5,0,55.7-16.3,72.9c-17.4,18.3-28.9,32.6-48.1,48.4
			c-17.4,14.4-26.9,37.9-45.8,48.1c-1.2,9.2-5.7,25.5-13.1,31.8c-14.1-18.6-30,17.3-42.8,26.1c-10.3,7.1-13.5,8.9-23.1,15.4
			c-15,10.1-11.5,8.8-31.6,15.4c-6.2,2-9,19.1-15.4,21.4c-8.7,3.1-19.4,11.7-29.1,14.5c-13.4,3.9-24.7,13.7-38.4,14.5
			c-29.4,1.8-82.7,19.1-104.3,4.3c-21.5-14.7-28.5-16.2-54.3-16.5c-9-0.1-25,3.2-33.3-0.3c-9.3-4-5.2-3.5-14-7.1
			c-8.9-3.6-25.6-8.3-34.2-14.9c-5-3.9-19.7-14-23.9-19.3c-10.5-13.1,4.6-18.2-14.5-17.1c-3.7-5.8-15-1.7-17.9-7.7
			c-2.9-5.9-15.4-13.5-18.8-19.7c-8.7-16.1-15.9-37.2-26.5-60.7c-12.2-27.1-18.3-38.5-23.1-64.1c-2.5-13.5,6.2-27,9-40.9
			c2.4-11.9,2.1-13.9,6.2-22.6c3.9-8.2-2.8-12.2-0.7-21.1c1.8-7.8,1.9-16.1,3.4-23.1c1.6-7.2,12.9-19,15.3-25.8
			c5.9-16.4,20.6,2.8,32.5-7.5c14.8-12.8-12.5-17.6-12-32.5c0.2-5.4,16.1-31.6,18.2-36.9c4.5-11.7,3.6-9.9,12.4-17.6
			c11.6-10.1,17.2-16.1,27.8-27.5c10.2-11,27-15.4,38.1-26.5c14.3-14.3,12.6-5.9,33.3-5.4c12.7,0.3,20.9-41.6,16.5-25.9l1.7-6.2
			c4-4.7,12.6-2.2,9.1-12c-1.8-5.3-8.1-1.6-11.9-5.2c-19-17.8,0,0-26.6-8.5c-21.2-6.8-43.6-51.3-73.5-62.4
			c-19.1-7.1-9.4-35.8-19.7-50.4c-8.3-11.8-27.1-40-13.7-47.8c10.9-6.4,22.2,11.9,27.3-1.7c2.2-5.9,3.9-20.6-0.9-25.6
			c-5.8-7.1-10.9-9.4-17.9-14.6c-8-31.9,71.8-89.7,85.4-107.7c14.6-19.2,12.2-13,21.1-30.9c11-22,38.4-30.8,60-37.2
			c12.9-3.8,23.5-5.3,32.5-13c11.4-9.7,11.5-16.6,25.7-20.8c10.1-3,20.2-3.3,30-7.2c7-2.7,14.9-8.5,21.5-10.7
			c22.8-7.7,35.5-6,57-5.5c8,0.2,17.2-5.9,24.5-4c8.6,2.3,12.6,15.2,18.9,20.3c11.8,9.5,26.6,5.6,38.8,12.3c3.2,1.8,6.9,9,11.3,12.3
			c8.4,6.3,18.2,8,25,15c4.1,4.3,7,11.2,11.6,16.2c7.2,7.6,11,11.4,15.8,19.7c6,10.5,8.5,22.4,13.9,32.9c-19.7,18.9-3.3,14,3.2,33.7
			c4.9,14.7,0.9,42.8-0.1,58.1c-1.9,29.3-13.9,69.1-35.7,86.5c-8.3,6.6-17.4,3.3-20.8,14.7c-2.4,7.9,1.1,17.1-1.9,25.2
			c-7.3,20.1-15.5,24.8-30.3,32.7c-17.1,9.1-32.6,18-13.9,25.5c7.7,3.1,14.6-0.3,21.9,5c7.8,5.7,8,15.5,19.1,19
			c6.7,2.1,15.4-1.7,22.3-0.1c9.5,2.2,7.2,5.4,14.9,9c5.9,2.7,20.2,4.1,23.3,9.4c3.7,6.4-4,13.4-3.3,20.6c0.6,0.5,5.9,5,6.3,5.2
			c23.4,0.3,13.3,2.9,24.2,17c4.2,5.4,13.2,13.2,17.9,17.5c17.3,15.4,20,23.6,24.4,47.8c3,16.6-8.5,43.4,4.5,54.9
			C965.1,929.5,980.9,929.5,984.1,945z"/>
	</g>
	<g>
	</g>
</g>
<g id="XMLID_8_">
	<g>
		<path class="st1" d="M839.2,929.8c0,15.6,5.7,29.3,5.7,44.3c0,10.3-3.7,15-8.3,23.7c-5,9.5-31.5,101.3-9,96c1,6.7-1.2,20.1-6,25.1
			c-5.1,5.3-15.8,2.6-15.6,12.5c0.2,8.5,16.5,15,17.8,22.9c3.5,20.2-26.7,33.2-38,43.7c-7.1,6.6-16.6,9.4-23.9,15.7
			c-3.1,2.7-4.4,7.1-8.2,10.3c-6.3,5.3-14.5,8.6-22,11.9c-25.5,11.1-46.7-2.6-72.4-1.9c-1,5.5-3.2,10.5-6.7,14.4
			c-3.5,3.8-8.3-7-14.6-6.2c-9,1.2-19.7,12.9-28.1,8.8c-8.4-4-14.4-10.3-13.9-18.1c-40.4-12.5,7.8,1.1-22.3-9.7
			c-10.3-3.7-38.7,1-52.6-7.5c-13.8-8.4-43.1-40.8-53.2-44.8c-0.4-10.9-3.7-22.9-8.4-32.7c-1.8-3.7-4-1.3-5.4-7
			c-0.8-3.1-0.6-11.3,0.8-13.8c3.9-7.1,15.9-4.3,5.2-15c-6.7-6.7-16.5-1.5-16.2-14.6c0.3-18.1,31.5-48.5,9.5-63.5
			c-11.6-7.9,4.9-14.9,2.6-29.4c-1.6-9.9-26.1-34.1-24.6-44.9c2-14.6,13.1-27.1,18.1-42.1c4-12,0.2-22.2,9.8-31.1
			c8.8-8.1,22-14.6,33.6-17.1c14-3,23.1,0.6,35-8c11.3-8.2,26.3-15.3,36.9-25.1c8.9-8.2,5.2-12.1,10-22.6c2.2-4.8,9.6-19,11.4-25
			c6.3-7.1,18.6-4.1,27.1-5.7c4.6-0.9,7.6-1.9,12.5-3.5c3.8-1.2,9.6-5,12.7-5.7c18.8-4.4,39.3,5.6,51.2,18.4
			c6.3,6.7,4.9,14.9,10.4,22.3c4,5.4,11,12,16,16.7c14.1,13.2,36.7,8.8,54.5,8.8c23.5,0,35.4,8.1,51,25.3
			C840.3,876.6,839.2,902.6,839.2,929.8z"/>
	</g>
	<g>
	</g>
</g>
<g id="XMLID_5_">
	<g>
		<path class="st0" d="M664.4,1065.8c-1.2,10.1,12.3,26.7,9.6,35.9c-4.3,14.7-0.3,0.7-2.4,17.2c-0.3,9.1-2.8,9.2,2.4,23.7
			c4.2,11.7-47.6,56.2-48.8,56.1c-0.2,0-1.2,0.1-1.9-0.4c-8.2-5.5-48.9-41.8-47-51.6c0.8-4.2,5.5-24.5,3.9-24.9
			c-0.5-4.9,2.2-12.4,4.3-16.7c3.8-7.6,9.3-5.5,10.6-17c-2.8-0.2-0.4-4.7-3.8-4.7c2.3-11.9,0.2-24.1,4.4-36.2
			c2-5.9,8.6-10.6,10.4-15.3c2.7-7.2-17.5-9.2-7.6-13.6c-5.6,0.8,3.4-3.3-2.9-4.1c-1.6-18.5,6.3-46.7,12.6-64.1
			c6.2-17.1,13.6-34.7,16.4-53.6c0.5-3.8,8.7-18.1,7.9-22.3c4,1,19.2,2.9,21.1,5.5c5.7,7.6,3.6,20.7,3.3,30.4
			c-0.3,9.4,1.4,11.2-2.1,19.7c-3.5,8.3-12.3,6.6-9.6,17.7c22.4-1.1,9.8,23.2,12.4,32.4c1.5-0.1,2.9,0.3,4.2,1
			c7.7,14.6,8.3,26.7,7.5,43.8c-0.3,6.8,1.1,14.3,0.9,20.5C669.8,1053.6,665.1,1059.7,664.4,1065.8z"/>
	</g>
	<g>
	</g>
</g>
<g id="XMLID_4_">
	<g>
		<path class="st1" d="M779.6,587.9c-1.5,4.3,1.6,3.8,0.1,6.5c-0.9,1.7-8.7,29.7-9.8,31.2c-3,4.2-12.1,6.5-17.1,9.8
			c-1,0.7-6.8-3.4-7.7-2.7c-3.6,2.8,0.9-0.1-3.6,2.8c-5.8,3.6-6.4,7.3-9.3,12.1c-3.2,5.3-6.9,11.8-13,15.4c-5.1,3-4.1,6.3-8.7,11.3
			c-3.8,4.2-5.3,5.3-8.7,9.3c-3,3.5-10.5,10.3-14.8,12.1c-8.4,3.5-9.9,6.5-18.3,9c-13.6,4-27.2,13.9-40.8,13.2
			c-17-1-33.9-9.9-47-20.1c-8.2-6.4-14.3-13.9-22.5-21.4c-8.3-7.6-16.8-25.8-24.6-30.6c-5,1.9-3,3-8.1,3.4
			c-3-6.2-13.9-6.6-16.6-13.7c-3.3-8.9-5.4-17.3-11.2-26c-3.8-5.8-1.4-12.6,1.8-16.7c3.4-2.9,6-8,10.2-8.9c2.4-0.5,6,0.8,9.3,1.4
			c2.2,0.4,4.3,0.5,5.7-0.5c2.2-1.7,3.4-3.1,4-4.4c1.5-3.5-1.7-6.2-2.3-11.6c-0.9-9.1,0.4-25.7,1.3-34.9c0.8-8.1,2.5-15.7,0.8-22.8
			c-0.5-2.1,1.8-5,4.4-7.9c1.8-2,3.7-3.9,5.1-5.5c1.4-1.7,2.2-3.1,1.5-3.9c3.8-3.3,6.8-15.7,12.2-17.9c5.3-2.2,6-12.7,11-15
			c9.9-4.6,10.5-7,9.5-19.3c-0.8-9.7-13.6-10.8-2.3-18.6c7.8-5.3,23.6-3.2,33-3.1c15.4,0.2,31,0.9,46.1,3.5c15.4,2.6,28,9.7,42.7,16
			c8.5,3.7,24.2,17.1,26.6,27.3c2.5,10.7-9.4,11.7,2,20.5c3.5,2.7,5.3,0.4,9.1,4.6c3.1,3.4,2.8,5.5,3.7,9.7c1.4,6.3,0.1,13,2,18.8
			c2.5,7.9,7.6,10.5,12.3,16.8c4.5,5.9-2.4,25.5-2.4,34.8c0,2.5,2.8,1.4,4.1,2.1c-0.2,0.6-0.2,0.8,0.4,0.3c-0.1-0.1-0.2-0.2-0.4-0.3
			c0.3-0.7,1.1-1.9,2.1-3.2c1.5-1.9,3.6-4.1,5.5-4.9c4.3-1.7,10.9-0.4,10.2,2.3c1.6,1.5,0,0,1.8,0.5c2.5,0.8,7,4.3,7.7,6.4
			C777.2,576.4,781.1,583.7,779.6,587.9z"/>
		<path class="st1" d="M749.4,573.7c0.1,0.1,0.3,0.1,0.4,0.3C749.3,574.5,749.2,574.3,749.4,573.7z"/>
	</g>
	<g>
		<path class="st5" d="M749.4,573.7c-1.3-0.7-4.1,0.4-4.1-2.1c0-9.3,6.9-28.8,2.4-34.8c-4.8-6.3-9.8-8.8-12.3-16.8
			c-1.9-5.8-0.6-12.6-2-18.8c-0.9-4.1-0.6-6.2-3.7-9.7c-3.8-4.2-5.6-1.9-9.1-4.6c-11.4-8.8,0.5-9.8-2-20.5
			c-2.4-10.2-18.1-23.6-26.6-27.3c-14.6-6.3-27.3-13.4-42.7-16c-15.1-2.5-30.7-3.3-46.1-3.5c-9.4-0.1-25.2-2.2-33,3.1
			c-11.3,7.8,1.4,8.9,2.3,18.6c1.1,12.3,0.5,14.7-9.5,19.3c-5,2.3-5.7,12.8-11,15c-5.4,2.2-8.4,14.6-12.2,17.9"/>
		<path class="st5" d="M749.4,573.7c-0.2,0.6-0.2,0.8,0.4,0.3C749.7,573.9,749.5,573.8,749.4,573.7z"/>
		<path class="st5" d="M499.9,592.7c-3.2,4.1-5.7,10.9-1.8,16.7c5.8,8.8,7.9,17.2,11.2,26c2.6,7.1,13.6,7.6,16.6,13.7
			c5.1-0.4,3.1-1.5,8.1-3.4c7.7,4.8,16.3,23.1,24.6,30.6c8.2,7.5,14.3,15,22.5,21.4c13.1,10.2,30,19.2,47,20.1
			c13.6,0.8,27.2-9.2,40.8-13.2c8.4-2.4,9.9-5.5,18.3-9c4.4-1.8,11.8-8.6,14.8-12.1c3.4-4,4.9-5.1,8.7-9.3c4.6-5,3.6-8.4,8.7-11.3
			c6.1-3.6,9.8-10.1,13-15.4c2.9-4.8,3.5-8.5,9.3-12.1c4.5-2.8,0,0,3.6-2.8c0.9-0.7,6.7,3.4,7.7,2.7c5-3.3,14.1-5.6,17.1-9.8
			c1.1-1.5,8.9-29.5,9.8-31.2c1.5-2.8-1.6-2.3-0.1-6.5c1.5-4.2-2.4-11.5-2.9-13.1c-0.7-2.1-5.1-5.6-7.7-6.4c-1.8-0.5-0.2,1-1.8-0.5
			c0.6-2.7-6-4-10.2-2.3c-2,0.8-4,2.9-5.5,4.9c-1,1.3-1.8,2.6-2.1,3.2"/>
		<path class="st5" d="M499.9,592.7C497.3,594.9,501,591.3,499.9,592.7L499.9,592.7z"/>
		<path class="st5" d="M539.9,493.7c0.7,0.8-0.1,2.2-1.5,3.9c-1.3,1.6-3.3,3.6-5.1,5.5c-2.6,2.9-4.9,5.8-4.4,7.9
			c1.6,7.1-0.1,14.7-0.8,22.8c-0.9,9.2-2.2,25.8-1.3,34.9c0.5,5.4,3.8,8,2.3,11.6c-0.6,1.3-1.8,2.7-4,4.4c-1.4,1.1-3.4,1-5.7,0.5
			c-3.2-0.6-6.8-1.9-9.3-1.4c-4.1,0.9-6.8,6-10.2,8.9"/>
	</g>
</g>
<g id="XMLID_3_">
	<g>
		<path class="st0" d="M664.2,800.9c2.8,11.7-7.6,19.7-15.3,25.4c15.2,11.8-0.6,25.9-15.1,20.9c-17-5.9-14.2-17.1-20.5-31.2
			l-1.7-1.7C623.5,797,640.7,799.8,664.2,800.9z"/>
	</g>
	<g>
	</g>
</g>
</svg>
