<svg width="32" height="32" xmlns="http://www.w3.org/2000/svg">

 <g>
  <title>background</title>
  <rect fill="none" id="canvas_background" height="402" width="582" y="-1" x="-1"/>
 </g>
 <g>
  <title>Layer 1</title>
  <path stroke="null" fill="#ffffff" id="svg_1" d="m2.404871,9.167035l27.248565,0c1.253434,0 2.270714,-1.01728 2.270714,-2.270714s-1.01728,-2.270714 -2.270714,-2.270714l-27.248565,0c-1.253434,0 -2.270714,1.01728 -2.270714,2.270714s1.01728,2.270714 2.270714,2.270714zm27.248565,4.541428l-27.248565,0c-1.253434,0 -2.270714,1.01728 -2.270714,2.270714s1.01728,2.270714 2.270714,2.270714l27.248565,0c1.253434,0 2.270714,-1.01728 2.270714,-2.270714s-1.01728,-2.270714 -2.270714,-2.270714zm0,9.082855l-27.248565,0c-1.253434,0 -2.270714,1.01728 -2.270714,2.270714s1.01728,2.270714 2.270714,2.270714l27.248565,0c1.253434,0 2.270714,-1.01728 2.270714,-2.270714s-1.01728,-2.270714 -2.270714,-2.270714z"/>
 </g>
</svg>