<?xml version="1.0" encoding="utf-8"?>
<!-- Generator: Adobe Illustrator 21.1.0, SVG Export Plug-In . SVG Version: 6.00 Build 0)  -->
<svg version="1.1" id="Layer_1" xmlns="http://www.w3.org/2000/svg" xmlns:xlink="http://www.w3.org/1999/xlink" x="0px" y="0px"
	 viewBox="0 0 427 427" style="enable-background:new 0 0 427 427;" xml:space="preserve">
<style type="text/css">
	.st0{fill:#FFFFFF;}
	
		.st1{fill:none;stroke:#99CCFF;stroke-width:20;stroke-miterlimit:10;stroke-dasharray:47.3585,4.7358,4.7358,4.7358,9.4717,47.3585;}
	.st2{fill:#99CCFF;}
</style>
<g>
	<circle class="st0" cx="213.5" cy="213.5" r="203.5"/>
	<circle class="st1" cx="213.5" cy="213.5" r="203.5"/>
</g>
<polygon class="st2" points="260,184 244.1,184 244.1,184 244.1,165 244.1,165 260,165 260,165 260,184 "/>
<rect x="204.4" y="88" class="st2" width="31.8" height="18"/>
<polygon class="st2" points="260,141 244.1,141 244.1,141 244.1,87 244.1,87 260,87 260,87 260,141 "/>
<rect x="204.4" y="121.8" class="st2" width="31.8" height="6.2"/>
<polygon class="st2" points="260,151.5 244.1,151.5 244.1,151.5 244.1,145 244.1,145 260,145 260,145 260,151.5 "/>
<rect x="204.4" y="133" class="st2" width="31.8" height="51"/>
<polygon class="st2" points="204.7,313.7 204.7,295.8 204.7,295.8 236.5,295.8 236.5,295.8 236.5,313.7 236.5,313.7 204.7,313.7 "/>
<polygon class="st2" points="161.4,329.3 161.4,311.4 161.4,311.4 193.2,311.4 193.2,311.4 193.2,329.3 193.2,329.3 161.4,329.3 "/>
<rect x="161.7" y="267.2" class="st2" width="31.8" height="35.8"/>
<polygon class="st2" points="150.9,303.1 135,303.1 135,303.1 135,267.2 135,267.2 150.9,267.2 150.9,267.2 150.9,303.1 "/>
<rect x="135" y="240.3" class="st2" width="15.9" height="17.9"/>
<rect x="204.4" y="110.8" class="st2" width="31.8" height="6.2"/>
<rect x="244" y="154.8" class="st2" width="16" height="6.2"/>
<polygon class="st2" points="260,285 244.1,285 244.1,285 244.1,266 244.1,266 260,266 260,266 260,285 "/>
<rect x="204.4" y="189" class="st2" width="31.8" height="18"/>
<polygon class="st2" points="260,242 244.1,242 244.1,242 244.1,188 244.1,188 260,188 260,188 260,242 "/>
<rect x="204.4" y="222.8" class="st2" width="31.8" height="6.2"/>
<polygon class="st2" points="260,252.5 244.1,252.5 244.1,252.5 244.1,246 244.1,246 260,246 260,246 260,252.5 "/>
<rect x="204.4" y="234" class="st2" width="31.8" height="51"/>
<rect x="204.4" y="211.8" class="st2" width="31.8" height="6.2"/>
<rect x="244" y="255.8" class="st2" width="16" height="6.2"/>
</svg>
