<?xml version="1.0" encoding="utf-8"?>
<!-- Generator: Adobe Illustrator 21.1.0, SVG Export Plug-In . SVG Version: 6.00 Build 0)  -->
<svg version="1.1" id="Layer_1" xmlns="http://www.w3.org/2000/svg" xmlns:xlink="http://www.w3.org/1999/xlink" x="0px" y="0px"
	 viewBox="0 0 567.9 577.3" style="enable-background:new 0 0 567.9 577.3;" xml:space="preserve">
<style type="text/css">
	.st0{fill:#7EC0EE;}
	.st1{fill:#FFFFFF;}
</style>
<g>
	<path class="st0" d="M564.2,297.4l-90.1,200.7c-5.2,11.5-15.3,20.1-27.6,23.2L233.4,576c-12.3,3.1-25.3,0.5-35.4-7.1L22.4,436.4
		C12.3,428.8,6.2,417,5.9,404.3L0,184.4c-0.3-12.6,5.1-24.7,14.8-32.9L183.1,9.8c9.7-8.1,22.5-11.4,34.9-9L433.7,44
		c12.4,2.5,23,10.5,28.8,21.7l100.7,195.6C569,272.6,569.4,285.9,564.2,297.4z"/>
</g>
<g>
	<path class="st1" d="M311.5,182.7l-90.9,0c-5.6,0-10.1-4.5-10.1-10.1l0-51.9c0-5.6,4.5-10.1,10.1-10.1l90.9,0
		c5.6,0,10.1,4.5,10.1,10.1l0,51.9C321.6,178.2,317,182.7,311.5,182.7z"/>
</g>
<g>
	<path class="st1" d="M225.1,114.9l90.3,52.1c6.7,3.9,6.7,13.6,0,17.4l-90.3,52.1c-6.7,3.9-15.1-1-15.1-8.7V123.6
		C210,115.9,218.4,111,225.1,114.9z"/>
</g>
<g>
	<path class="st1" d="M324.3,216.6l0,104.2c0,7.7-8.4,12.6-15.1,8.7l-90.3-52.1c-6.7-3.9-6.7-13.6,0-17.4l90.3-52.1
		C315.9,204,324.3,208.9,324.3,216.6z"/>
</g>
<g>
	<path class="st1" d="M228.1,259.9l90.3,52.1c6.7,3.9,6.7,13.6,0,17.4l-90.3,52.1c-6.7,3.9-15.1-1-15.1-8.7V268.6
		C213,260.9,221.4,256,228.1,259.9z"/>
</g>
<g>
	<path class="st1" d="M197.3,332.6l0,104.2c0,7.7-8.4,12.6-15.1,8.7l-90.3-52.1c-6.7-3.9-6.7-13.6,0-17.4l90.3-52.1
		C188.9,320,197.3,324.9,197.3,332.6z"/>
</g>
<g>
	<path class="st1" d="M356.1,208.9l90.3,52.1c6.7,3.9,6.7,13.6,0,17.4l-90.3,52.1c-6.7,3.9-15.1-1-15.1-8.7V217.6
		C341,209.9,349.4,205,356.1,208.9z"/>
</g>
<g>
	<path class="st1" d="M451.3,269.6l0,104.2c0,7.7-8.4,12.6-15.1,8.7l-90.3-52.1c-6.7-3.9-6.7-13.6,0-17.4l90.3-52.1
		C442.9,257,451.3,261.9,451.3,269.6z"/>
</g>
<g>
	<path class="st1" d="M441.5,383.7l-90.9,0c-5.6,0-10.1-4.5-10.1-10.1l0-51.9c0-5.6,4.5-10.1,10.1-10.1l90.9,0
		c5.6,0,10.1,4.5,10.1,10.1l0,51.9C451.6,379.2,447,383.7,441.5,383.7z"/>
</g>
</svg>
