<?xml version="1.0" encoding="utf-8"?>
<!-- Generator: Adobe Illustrator 21.1.0, SVG Export Plug-In . SVG Version: 6.00 Build 0)  -->
<svg version="1.1" id="Layer_1" xmlns="http://www.w3.org/2000/svg" xmlns:xlink="http://www.w3.org/1999/xlink" x="0px" y="0px"
	 viewBox="0 0 638.1 650.6" style="enable-background:new 0 0 638.1 650.6;" xml:space="preserve">
<style type="text/css">
	.st0{fill:#FFFFFF;}
	.st1{fill:#006699;}
	.st2{fill:none;}
</style>
<g>
	<polygon class="st0" points="27.5,466 20.3,195.7 227.1,21.5 492.2,74.6 616,315 505.2,561.6 243.3,628.8 	"/>
	<path class="st1" d="M232.6,43l246.2,49.3l115,223.3L490.9,544.7l-243.2,62.4L47.2,455.8l-6.7-251L232.6,43 M221.6,0L0,186.6
		l7.7,289.5l231.2,174.5l280.6-72l118.7-264.2L505.6,56.9L221.6,0L221.6,0z"/>
</g>
<g>
	<path class="st1" d="M345.1,345.1h-87.8c-0.3,0-0.5-0.2-0.5-0.5v-102c0-0.3,0.2-0.5,0.5-0.5h87.8c0.3,0,0.5,0.2,0.5,0.5v102.1
		C345.6,344.9,345.4,345.1,345.1,345.1z"/>
</g>
<g>
	<rect x="358.9" y="341.4" class="st1" width="88.7" height="101.7"/>
</g>
<line class="st2" x1="346.1" y1="361.1" x2="257.1" y2="450.1"/>
<g id="XMLID_42_">
	<path class="st1" d="M345.6,354.4v0.9l-86.8,86.8c-0.3,0.3-0.5,0.6-0.7,1h-1.2v-88.7L345.6,354.4L345.6,354.4z"/>
</g>
<g id="XMLID_40_">
	<path class="st1" d="M358.4,254.5h0.9l86.3,85.2c0.5,0.4,1,0.8,1.5,1v1.4l-88.2,0.5L358.4,254.5z"/>
</g>
<g>
	<rect x="168.9" y="354.4" class="st1" width="88.7" height="88.7"/>
</g>
<g id="XMLID_39_">
	<path class="st1" d="M257,243v-0.9l84.5-86.9c0.4-0.5,0.8-1,1-1.5h1.4l1.2,88.2L257,243z"/>
</g>
</svg>
