<?xml version="1.0" encoding="utf-8"?>
<!-- Generator: Adobe Illustrator 21.1.0, SVG Export Plug-In . SVG Version: 6.00 Build 0)  -->
<svg version="1.1" id="Layer_1" xmlns="http://www.w3.org/2000/svg" xmlns:xlink="http://www.w3.org/1999/xlink" x="0px" y="0px"
	 viewBox="0 0 369.4 626.1" style="enable-background:new 0 0 369.4 626.1;" xml:space="preserve">
<style type="text/css">
	.st0{fill:#FFFFFF;}
</style>
<g>
	<g>
		<path class="st0" d="M0.3,313c0-102.6,0-205.3-0.1-307.9c0-3.3,0.5-4.2,4-4.2c120.4,0.1,240.7,0.1,361,0c3.9,0,4.2,1.1,4.2,4.5
			c-0.1,205.4-0.1,410.9,0,616.3c0,3.4-0.5,4.4-4.3,4.4C245,626,124.9,626,4.7,626.1c-4,0-4.5-1.1-4.5-4.7
			C0.4,518.6,0.3,415.8,0.3,313z M366.2,238.5h-0.1c0-68.8,0-137.7,0.1-206.5c0-4.2-1.2-7.2-4.4-9.9c-5-4.1-9.9-8.5-14.5-13
			c-2.7-2.6-4.2-2.8-6.8,0.2c-17.2,19.3-34.7,38.3-51.9,57.5c-2.6,2.9-4.1,2.7-6.6,0.2c-4.9-4.7-10.3-9-15-13.9
			c-3-3-4.6-2.6-7.3,0.3c-33.9,36.3-67.9,72.4-101.8,108.7c-2.2,2.3-3.3,2.5-5.7,0.2c-9.3-9.1-18.8-18-28.3-26.8
			c-5.8-5.4-5.8-5.3-10.9,0.5c-2.7,3-5.7,5.7-8.1,8.9c-2.3,3.1-3.9,3.4-6.9,0.6C80.1,129,61.9,112.9,44.1,96.4
			c-3.3-3-4.1-1.9-5.7,1.3C28,117.8,17.6,137.9,7.5,158.2c-1.8,3.6-2.8,7.9-2.8,11.9C4.7,275,5,380,5.1,484.9c0.1,44,0.1,88-0.1,132
			c0,4,0.7,5.4,5.1,5.4c116.8-0.1,233.6-0.1,350.5,0c4.4,0,5.1-1.5,5.1-5.4c0.1-60.5,0.4-120.9,0.5-181.4
			C366.3,369.8,366.2,304.2,366.2,238.5z"/>
		<path d="M366.2,238.5c0,65.7,0.1,131.3,0,197c-0.1,60.5-0.4,120.9-0.5,181.4c0,3.9-0.7,5.4-5.1,5.4c-116.8-0.1-233.6-0.1-350.5,0
			c-4.4,0-5.1-1.4-5.1-5.4c0.1-44,0.1-88,0.1-132C5,380,4.7,275,4.7,170c0-4,1-8.3,2.8-11.9c10-20.3,20.5-40.3,30.6-60.6
			c1.6-3.3,2.5-4.3,5.7-1.3c17.9,16.5,36.1,32.6,53.9,49.1c3,2.8,4.6,2.6,6.9-0.6c2.4-3.2,5.4-5.9,8.1-8.9c5.1-5.8,5.2-5.8,10.9-0.5
			c9.5,8.9,19,17.7,28.3,26.8c2.4,2.3,3.5,2.2,5.7-0.2c33.9-36.3,68-72.4,101.8-108.7c2.8-3,4.4-3.4,7.3-0.3
			c4.8,4.9,10.1,9.2,15,13.9c2.5,2.4,4,2.7,6.6-0.2c17.2-19.3,34.7-38.3,51.9-57.5c2.7-3,4.2-2.9,6.8-0.2c4.6,4.6,9.5,8.9,14.5,13
			c3.3,2.7,4.4,5.6,4.4,9.9c-0.1,68.8-0.1,137.7-0.1,206.5C366.1,238.5,366.1,238.5,366.2,238.5z M184.8,609.8
			c54.1,0,108.3,0,162.4,0.1c4.3,0,6-0.7,6-5.6c-0.2-49.5-0.2-99,0-148.4c0-4.2-0.8-5.7-5.4-5.7c-108.3,0.1-216.6,0.1-324.9,0
			c-4.6,0-5.4,1.4-5.4,5.6c0.1,49.3,0.2,98.6-0.1,147.9c0,5.3,1.7,6.2,6.4,6.2C77.5,609.7,131.2,609.8,184.8,609.8z M141.4,361.9
			c-0.3,0-0.6-0.1-0.9-0.1c0-1.8,0-3.7,0-5.5c0.2-16.2-7.2-26.9-22.7-31.8c-3-1-5.9-2.3-8.8-3.4c-14.2-5.7-15.5-7.7-14.6-23.1
			c0.5-8.9,4.9-13.8,12.5-13.9c8.2-0.2,13.5,4.3,13.5,13.3c0,7.2,2.9,8.8,9,7.7c0.3-0.1,0.7,0,1,0c10.9,0,10.9,0,10.3-10.9
			c-0.8-14.7-11.5-26.7-26.6-29.6c-15.3-3-29.9,4.3-36,17.9c-10.9,24.2-2.1,46.6,22.2,56.5c21.2,8.7,21.2,8.7,20.1,31.8
			c-0.4,8.9-4.5,12.6-13.8,12.5c-8.4-0.1-13.6-4.6-13.1-12.8c0.3-6.2-1.4-8.5-7.5-7.4c-0.8,0.2-1.7,0-2.5,0
			c-10.9,0-10.9,0-10.1,11.1c1.1,14.5,13.4,27.1,28.1,28.8c18.8,2.2,32.3-5.4,36.8-21.5C139.9,375.1,140.4,368.4,141.4,361.9z
			 M228.6,333.8c0.1,0,0.2,0,0.3,0c0,14-0.8,28,0.2,42c1.3,17.5,13.1,27.3,31.3,27.5c15.8,0.2,29.4-11.4,31.7-27
			c1.9-12.9,1.6-13.3-11.2-13.3c-0.2,0-0.3,0-0.5,0c-6.3-1.2-8.6,0.9-8.2,7.7c0.5,8.9-6.3,14.1-15.1,12.4c-5.6-1.1-8.5-5.7-8.5-14.6
			c-0.1-22.7,0-45.3,0-68c0-2,0.2-4,0.5-6c1.2-7.5,4.3-10.5,10.8-10.6c6.4-0.1,11.1,4.1,12.3,10.8c0.5,3.3-0.1,8.1,1.8,9.4
			c2.3,1.7,6.7,0.5,10.2,0.5c0.2,0,0.3,0,0.5,0c6.3,1.2,8-1.3,7.8-7.7c-0.6-19.6-13.2-33-31.9-33c-19,0-31.8,13.1-32,32.7
			C228.6,309.1,228.6,321.4,228.6,333.8z M176.9,323.8c0-14.5,0.1-29,0-43.5c0-5,1.5-11.8-1.1-14.3c-2.6-2.6-9.4-0.6-14.4-1
			c-4.1-0.4-4.5,1.6-4.5,4.9c0.1,42.5,0.1,85,0,127.5c0,3.7,0.9,4.9,4.7,4.8c12.8-0.2,25.7-0.1,38.5-0.1c15.8,0,15.7,0,15.6-15.8
			c0-3.7-1.4-4.3-4.7-4.3c-9.8,0.2-19.7-0.1-29.5,0.2c-3.9,0.1-4.7-1.2-4.7-4.8C177,359.5,176.9,341.7,176.9,323.8z"/>
		<path class="st0" d="M184.8,609.8c-53.6,0-107.3-0.1-160.9,0.1c-4.8,0-6.5-0.8-6.4-6.2c0.2-49.3,0.2-98.6,0.1-147.9
			c0-4.2,0.8-5.6,5.4-5.6c108.3,0.1,216.6,0.1,324.9,0c4.6,0,5.4,1.5,5.4,5.7c-0.1,49.5-0.2,99,0,148.4c0,4.9-1.6,5.6-6,5.6
			C293.1,609.7,239,609.8,184.8,609.8z M147.5,564.6c-5.8-8.3-10.5-15-15.2-21.8c-12.1-17.3-24.3-34.6-36.2-52.1
			c-2.7-3.9-6.1-2.8-9.2-2.5c-0.8,0.1-1.8,3.6-1.8,5.6C85,520,85,546.1,85,572.3c0,2.7-0.4,5.2,3.8,5.2c4.1,0,4.5-1.9,4.5-5.2
			c-0.1-19-0.1-38-0.1-57c0-4.4,0-8.8,0-15.2c7.9,11.3,14.6,21.1,21.4,30.8c10.1,14.5,20,29.1,30.5,43.3c1.5,2.1,5.9,2.1,9,3
			c0.6-2,1.7-4,1.8-6c0.2-9.3,0.1-18.7,0.1-28c0-17-0.1-34,0.1-51c0-3.5-1.1-4.4-4.5-4.5c-4.1-0.1-4.1,1.9-4.1,4.9
			C147.5,516,147.5,539.4,147.5,564.6z M173.3,532.6c0,13.5,0.1,27-0.1,40.5c-0.1,3.5,1.1,4.5,4.5,4.4c18.8-0.2,37.6-0.1,56.5,0
			c3.1,0,4.4-0.6,4.4-4.1c0-3.6-1.9-3.5-4.4-3.5c-16.2,0-32.3-0.1-48.5,0.1c-3.3,0-4.3-0.9-4.2-4.2c0.2-8.8,0.2-17.7,0-26.5
			c-0.1-3.7,1.2-4.4,4.6-4.4c14.3,0.2,28.6,0,43,0.1c2.8,0,4.5-0.1,4.5-3.9c0-3.8-1.8-3.9-4.6-3.9c-13.8,0.1-27.6-0.1-41.5,0.1
			c-4.3,0.1-6.3-0.7-6-5.7c0.5-7.1,0.4-14.3,0-21.5c-0.2-4.4,1.5-5.2,5.4-5.2c15.2,0.2,30.3,0,45.5,0.1c2.8,0,4.1-0.5,4.2-3.8
			c0-3.4-1.5-3.7-4.2-3.7c-18.3,0.1-36.6,0.1-55,0c-3.3,0-4.2,1-4.1,4.2C173.4,505.6,173.3,519.1,173.3,532.6z M286.4,536
			c0-12,0.1-24-0.1-36c-0.1-3.6,0.7-5,4.6-4.8c8,0.3,16,0,24,0.1c3.1,0.1,4.7-1,3.8-3.9c-0.4-1.4-2.4-3.3-3.7-3.3
			c-22-0.2-43.9-0.2-65.9,0c-1.3,0-3.2,1.9-3.6,3.3c-0.9,2.9,0.6,4,3.7,3.9c7.8-0.2,15.7,0.2,23.5-0.2c4.3-0.2,5.7,0.9,5.6,5.4
			c-0.2,24.1-0.1,48.3-0.2,72.4c0,3,0.5,4.5,4,4.5c3.6,0,4.4-1.2,4.4-4.6C286.3,560.6,286.4,548.3,286.4,536z M66.6,570.2
			c-0.9-2.6-2-5.5-6.6-5.5s-6.4,2.5-6.6,6.4c-0.1,4.1,2.5,6.6,6.6,6.5C64,577.6,66.4,575.3,66.6,570.2z"/>
		<path class="st0" d="M141.4,361.9c-1,6.5-1.5,13.3-3.2,19.6c-4.4,16-17.9,23.7-36.8,21.5c-14.7-1.7-27-14.3-28.1-28.8
			c-0.8-11.1-0.8-11.1,10.1-11.1c0.8,0,1.7,0.1,2.5,0c6.1-1.2,7.9,1.2,7.5,7.4c-0.4,8.2,4.8,12.7,13.1,12.8
			c9.3,0.1,13.4-3.6,13.8-12.5c1.1-23.2,1.1-23.2-20.1-31.8C75.8,329.1,67,306.7,78,282.5c6.1-13.6,20.7-20.8,36-17.9
			c15.1,2.9,25.8,14.8,26.6,29.6c0.6,10.9,0.6,10.9-10.3,10.9c-0.3,0-0.7,0-1,0c-6.1,1-9-0.5-9-7.7c0-9-5.3-13.4-13.5-13.3
			c-7.6,0.1-11.9,5-12.5,13.9c-0.9,15.4,0.3,17.4,14.6,23.1c2.9,1.2,5.8,2.5,8.8,3.4c15.5,5,22.9,15.7,22.7,31.8c0,1.8,0,3.7,0,5.5
			C140.8,361.8,141.1,361.8,141.4,361.9z"/>
		<path class="st0" d="M228.6,333.8c0-12.3-0.1-24.7,0-37c0.1-19.7,12.9-32.7,32-32.7c18.7,0,31.3,13.4,31.9,33
			c0.2,6.4-1.5,8.9-7.8,7.7c-0.2,0-0.3,0-0.5,0c-3.5,0-7.9,1.2-10.2-0.5c-1.9-1.3-1.2-6.2-1.8-9.4c-1.1-6.7-5.9-10.9-12.3-10.8
			c-6.6,0.1-9.7,3.1-10.8,10.6c-0.3,2-0.5,4-0.5,6c0,22.7-0.1,45.3,0,68c0,8.8,2.9,13.5,8.5,14.6c8.8,1.6,15.6-3.5,15.1-12.4
			c-0.4-6.8,1.9-9,8.2-7.7c0.2,0,0.3,0,0.5,0c12.8,0,13.1,0.4,11.2,13.3c-2.3,15.6-15.9,27.2-31.7,27c-18.2-0.2-30-10-31.3-27.5
			c-1-13.9-0.2-28-0.2-42C228.9,333.8,228.7,333.8,228.6,333.8z"/>
		<path class="st0" d="M176.9,323.8c0,17.8,0.1,35.7-0.1,53.5c0,3.6,0.8,4.9,4.7,4.8c9.8-0.3,19.7,0,29.5-0.2
			c3.3-0.1,4.6,0.5,4.7,4.3c0.1,15.8,0.3,15.8-15.6,15.8c-12.8,0-25.7-0.1-38.5,0.1c-3.8,0.1-4.7-1.2-4.7-4.8
			c0.1-42.5,0.1-85,0-127.5c0-3.4,0.4-5.3,4.5-4.9c4.9,0.5,11.8-1.5,14.4,1c2.6,2.5,1.1,9.4,1.1,14.3
			C176.9,294.9,176.9,309.4,176.9,323.8z"/>
		<path d="M147.5,564.6c0-25.3,0-48.6,0-71.9c0-3,0-5,4.1-4.9c3.4,0.1,4.5,1,4.5,4.5c-0.2,17-0.1,34-0.1,51c0,9.3,0.1,18.7-0.1,28
			c0,2-1.2,4-1.8,6c-3.1-1-7.5-0.9-9-3c-10.5-14.2-20.4-28.8-30.5-43.3c-6.8-9.8-13.6-19.5-21.4-30.8c0,6.3,0,10.7,0,15.2
			c0,19-0.1,38,0.1,57c0,3.3-0.4,5.2-4.5,5.2c-4.3,0-3.8-2.5-3.8-5.2c0-26.2,0-52.3,0.1-78.5c0-2,1-5.5,1.8-5.6
			c3.2-0.3,6.5-1.5,9.2,2.5c11.9,17.5,24.1,34.7,36.2,52.1C136.9,549.6,141.7,556.4,147.5,564.6z"/>
		<path d="M173.3,532.6c0-13.5,0.1-27-0.1-40.5c0-3.2,0.8-4.2,4.1-4.2c18.3,0.2,36.6,0.1,55,0c2.7,0,4.2,0.2,4.2,3.7
			c0,3.3-1.3,3.8-4.2,3.8c-15.2-0.1-30.3,0.1-45.5-0.1c-4-0.1-5.6,0.8-5.4,5.2c0.4,7.1,0.4,14.3,0,21.5c-0.3,4.9,1.7,5.7,6,5.7
			c13.8-0.2,27.6,0,41.5-0.1c2.8,0,4.6,0.1,4.6,3.9c0,3.7-1.7,3.9-4.5,3.9c-14.3-0.1-28.6,0.1-43-0.1c-3.3,0-4.7,0.7-4.6,4.4
			c0.3,8.8,0.2,17.7,0,26.5c-0.1,3.3,0.9,4.2,4.2,4.2c16.2-0.2,32.3,0,48.5-0.1c2.5,0,4.4-0.2,4.4,3.5c0,3.5-1.3,4.1-4.4,4.1
			c-18.8-0.1-37.6-0.1-56.5,0c-3.4,0-4.6-0.9-4.5-4.4C173.4,559.5,173.3,546,173.3,532.6z"/>
		<path d="M286.4,536c0,12.3-0.1,24.6,0.1,36.9c0.1,3.4-0.8,4.6-4.4,4.6c-3.5,0-4-1.5-4-4.5c0.1-24.1-0.1-48.3,0.2-72.4
			c0-4.6-1.4-5.6-5.6-5.4c-7.8,0.3-15.6,0-23.5,0.2c-3.1,0.1-4.6-1-3.7-3.9c0.5-1.4,2.4-3.3,3.6-3.3c22-0.2,43.9-0.2,65.9,0
			c1.3,0,3.3,1.9,3.7,3.3c0.9,2.9-0.7,4-3.8,3.9c-8-0.2-16,0.2-24-0.1c-3.9-0.2-4.7,1.2-4.6,4.8C286.5,512,286.4,524,286.4,536z"/>
		<path d="M66.6,570.2c-0.2,5.1-2.7,7.4-6.6,7.4c-4,0-6.7-2.5-6.6-6.5c0.1-3.8,2-6.3,6.6-6.4C64.6,564.7,65.7,567.6,66.6,570.2z"/>
	</g>
</g>
<g id="aSWDOU.tif">
	<g>
		<g>
			<path class="st0" d="M186,602.8c-54.1,0-108.2,0-162.3-0.1c-0.9,0-2.7-1.7-2.7-2.7c-0.1-47.1-0.1-94.2,0-141.3
				c0-0.9,1.7-2.7,2.7-2.7c108.2-0.1,216.4-0.1,324.6,0c0.9,0,2.7,1.7,2.7,2.7c0.1,47.1,0.1,94.2,0,141.3c0,0.9-1.7,2.7-2.7,2.7
				C294.2,602.8,240.1,602.8,186,602.8z M154.2,529.9c0.1,0,0.1,0,0.2,0c0-13.6,0.2-27.3-0.2-40.9c-0.1-2-3-3.9-4.6-5.8
				c-1.6,2-4.4,4-4.4,6c-0.3,23.2-0.1,46.4-0.1,69.6c0,1-0.2,2-0.3,3c-0.8-0.7-1.7-1.4-2.3-2.2c-16.8-24.1-33.4-48.2-50.5-72.1
				c-1.7-2.4-6.4-2.6-9.7-3.9c-0.9,2.4-2.5,4.8-2.5,7.3c-0.2,26.7-0.3,53.4,0,80.1c0,2.2,2.6,4.5,4,6.7c1.6-2.3,4.6-4.6,4.7-6.9
				c0.4-23,0.2-45.9,0.3-68.9c0-1.1,0.5-2.2,0.7-3.2c0.7,0.8,1.4,1.5,2,2.4c16.7,23.8,33.2,47.8,50.3,71.4c1.9,2.7,6.9,3.1,10.4,4.6
				c0.8-2.7,2.2-5.5,2.2-8.2C154.3,555.8,154.2,542.8,154.2,529.9z M172,530.2c0,14-0.2,28,0.2,41.9c0,1.8,2.9,5.2,4.5,5.2
				c19.9,0.4,39.9,0.3,59.8,0c1.5,0,3-2.7,4.6-4.2c-1.6-1.3-3.1-3.8-4.8-3.8c-8.1-0.4-16.3-0.2-24.5-0.2c-30.8,0-30.9,0-30.4-31
				c0-1.8,3.3-5,5.1-5c14.7-0.4,29.4,0,44-0.3c1.8,0,3.5-2.6,5.2-4c-1.8-1.4-3.5-3.9-5.4-4c-7.2-0.5-14.4-0.2-21.7-0.2
				c-27.4,0-27.6,0-27.2-27.4c0-2,3.8-5.6,5.8-5.6c15.4-0.4,30.8,0,46.1-0.3c1.8,0,3.6-2.5,5.5-3.9c-1.8-1.4-3.5-4-5.3-4
				c-18.6-0.3-37.3-0.3-55.9,0.1c-1.9,0-5.3,3.4-5.3,5.2C171.8,502.5,172,516.3,172,530.2z M291.2,534.7c0-4.7,0-9.3,0-14
				c0.1-28.9,0.1-28.8,29-29.4c1.7,0,3.4-1.8,5.1-2.7c-1.7-1.7-3.4-4.9-5.1-5c-22.5-0.3-45-0.3-67.4,0c-1.7,0-3.4,3.2-5.1,5
				c1.7,1,3.4,2.7,5.1,2.7c7.6,0.3,15.2-0.5,22.7,0.3c2.5,0.3,6.5,4.1,6.6,6.4c0.4,24.8,0,49.6,0.3,74.4c0,1.7,3,3.5,4.6,5.2
				c1.4-1.7,4.1-3.4,4.2-5.2C291.4,559.8,291.2,547.2,291.2,534.7z M53.2,560.9c-3.1,4.2-6.7,7.2-6.2,8.8c1,3.4,4.3,6.2,6.6,9.2
				c2.2-3.2,5.3-6.1,6.2-9.7C60.2,567.7,56.4,564.9,53.2,560.9z"/>
			<path d="M154.2,529.9c0,12.9,0.1,25.9-0.1,38.8c-0.1,2.7-1.5,5.5-2.2,8.2c-3.5-1.5-8.5-2-10.4-4.6
				c-17.1-23.6-33.6-47.5-50.3-71.4c-0.6-0.8-1.3-1.6-2-2.4c-0.2,1.1-0.7,2.2-0.7,3.2c-0.1,23,0.1,45.9-0.3,68.9
				c0,2.3-3,4.6-4.7,6.9c-1.4-2.2-4-4.5-4-6.7c-0.2-26.7-0.2-53.4,0-80.1c0-2.4,1.7-4.8,2.5-7.3c3.3,1.2,8,1.5,9.7,3.9
				c17.1,23.8,33.7,48,50.5,72.1c0.6,0.9,1.5,1.5,2.3,2.2c0.1-1,0.3-2,0.3-3c0-23.2-0.2-46.4,0.1-69.6c0-2,2.9-4,4.4-6
				c1.6,1.9,4.5,3.8,4.6,5.8c0.4,13.6,0.2,27.3,0.2,40.9C154.3,529.9,154.3,529.9,154.2,529.9z"/>
			<path d="M172,530.2c0-13.9-0.2-27.7,0.2-41.6c0.1-1.9,3.4-5.2,5.3-5.2c18.6-0.4,37.3-0.4,55.9-0.1c1.8,0,3.5,2.6,5.3,4
				c-1.8,1.4-3.6,3.8-5.5,3.9c-15.4,0.3-30.8-0.1-46.1,0.3c-2.1,0.1-5.8,3.6-5.8,5.6c-0.3,27.4-0.2,27.4,27.2,27.4
				c7.2,0,14.5-0.3,21.7,0.2c1.9,0.1,3.6,2.6,5.4,4c-1.7,1.4-3.5,4-5.2,4c-14.7,0.3-29.4-0.1-44,0.3c-1.8,0-5.1,3.3-5.1,5
				c-0.4,31-0.4,31,30.4,31c8.2,0,16.3-0.2,24.5,0.2c1.7,0.1,3.2,2.5,4.8,3.8c-1.5,1.5-3,4.2-4.6,4.2c-19.9,0.3-39.9,0.3-59.8,0
				c-1.6,0-4.4-3.3-4.5-5.2C171.9,558.2,172,544.2,172,530.2z"/>
			<path d="M291.2,534.7c0,12.6,0.2,25.2-0.2,37.7c-0.1,1.8-2.7,3.5-4.2,5.2c-1.6-1.7-4.6-3.4-4.6-5.2c-0.2-24.8,0.1-49.6-0.3-74.4
				c0-2.3-4.1-6.1-6.6-6.4c-7.5-0.8-15.1,0-22.7-0.3c-1.7-0.1-3.4-1.8-5.1-2.7c1.7-1.7,3.4-5,5.1-5c22.5-0.3,45-0.3,67.4,0
				c1.7,0,3.4,3.2,5.1,5c-1.7,1-3.4,2.7-5.1,2.7c-28.9,0.6-28.9,0.5-29,29.4C291.2,525.3,291.2,530,291.2,534.7z"/>
			<path d="M53.2,560.9c3.3,4,7,6.8,6.6,8.4c-0.9,3.5-4,6.5-6.2,9.7c-2.3-3-5.6-5.8-6.6-9.2C46.4,568.1,50,565.2,53.2,560.9z"/>
		</g>
	</g>
</g>
</svg>
